<mxfile host="Electron" agent="Mozilla/5.0 (X11; Linux x86_64) AppleWebKit/537.36 (KHTML, like Gecko) draw.io/24.7.17 Chrome/128.0.6613.36 Electron/32.0.1 Safari/537.36" version="24.7.17" pages="4">
  <diagram name="Online" id="h5dm34LNFS02VEf0YKeU">
    <mxGraphModel dx="2074" dy="1166" grid="1" gridSize="10" guides="1" tooltips="1" connect="1" arrows="1" fold="1" page="1" pageScale="1" pageWidth="827" pageHeight="1169" math="0" shadow="0">
      <root>
        <mxCell id="0" />
        <mxCell id="1" parent="0" />
        <mxCell id="kqebPcg_vNXRvDzYQm3f-1" value="" style="rounded=1;whiteSpace=wrap;html=1;fillColor=none;sketch=1;curveFitting=1;jiggle=2;strokeColor=#6c8ebf;" vertex="1" parent="1">
          <mxGeometry x="50" y="100" width="400" height="370" as="geometry" />
        </mxCell>
        <mxCell id="iSlwvEaFTV1MsLrmG7Bg-2" value="Precache" style="rounded=1;whiteSpace=wrap;html=1;glass=0;sketch=1;curveFitting=1;jiggle=2;fillStyle=hachure;fillColor=#ffe6cc;fontStyle=1;fontSize=18;strokeColor=#d79b00;fontColor=#D79B00;" vertex="1" parent="1">
          <mxGeometry x="70" y="114" width="100" height="40" as="geometry" />
        </mxCell>
        <mxCell id="iSlwvEaFTV1MsLrmG7Bg-3" value="App cache" style="rounded=1;whiteSpace=wrap;html=1;glass=0;sketch=1;curveFitting=1;jiggle=2;fillStyle=hachure;fillColor=#ffe6cc;fontStyle=1;fontSize=18;strokeColor=#d79b00;fontColor=#D79B00;" vertex="1" parent="1">
          <mxGeometry x="195" y="112" width="100" height="40" as="geometry" />
        </mxCell>
        <mxCell id="z7JpvZq2FA8dysia0Ozg-1" value="" style="endArrow=classic;html=1;rounded=0;entryX=0.5;entryY=0;entryDx=0;entryDy=0;fontColor=#0069D1;strokeWidth=2;strokeColor=#d79b00;exitX=0.5;exitY=1;exitDx=0;exitDy=0;fillColor=#ffe6cc;" edge="1" parent="1" source="z7JpvZq2FA8dysia0Ozg-2" target="iSlwvEaFTV1MsLrmG7Bg-2">
          <mxGeometry width="50" height="50" relative="1" as="geometry">
            <mxPoint x="120" y="80" as="sourcePoint" />
            <mxPoint x="440" y="300" as="targetPoint" />
          </mxGeometry>
        </mxCell>
        <mxCell id="z7JpvZq2FA8dysia0Ozg-2" value="Application build" style="text;strokeColor=none;align=center;fillColor=none;html=1;verticalAlign=middle;whiteSpace=wrap;rounded=0;fontColor=#D79B00;fontSize=14;" vertex="1" parent="1">
          <mxGeometry x="44" y="50" width="110" height="30" as="geometry" />
        </mxCell>
        <mxCell id="z7JpvZq2FA8dysia0Ozg-4" value="" style="shape=image;html=1;verticalLabelPosition=bottom;verticalAlign=top;imageAspect=0;image=img/clipart/Gear_128x128.png" vertex="1" parent="1">
          <mxGeometry x="220" y="194" width="50" height="60" as="geometry" />
        </mxCell>
        <mxCell id="z7JpvZq2FA8dysia0Ozg-5" value="Service worker" style="text;strokeColor=none;align=center;fillColor=none;html=1;verticalAlign=middle;whiteSpace=wrap;rounded=0;fontColor=#0069D1;fontSize=14;fontStyle=1" vertex="1" parent="1">
          <mxGeometry x="280" y="220" width="110" height="30" as="geometry" />
        </mxCell>
        <mxCell id="HNRuWznxrvH1GRP3ciW0-1" value="" style="endArrow=classic;html=1;rounded=0;entryX=0.5;entryY=1;entryDx=0;entryDy=0;fontColor=#0069D1;strokeWidth=2;strokeColor=#0069D1;startArrow=classic;startFill=1;exitX=0.5;exitY=0;exitDx=0;exitDy=0;" edge="1" parent="1" source="kqebPcg_vNXRvDzYQm3f-5" target="z7JpvZq2FA8dysia0Ozg-4">
          <mxGeometry width="50" height="50" relative="1" as="geometry">
            <mxPoint x="245" y="310" as="sourcePoint" />
            <mxPoint x="275" y="340" as="targetPoint" />
          </mxGeometry>
        </mxCell>
        <mxCell id="HNRuWznxrvH1GRP3ciW0-2" value="Ressource request" style="edgeLabel;html=1;align=center;verticalAlign=middle;resizable=0;points=[];fontColor=#0069D1;" vertex="1" connectable="0" parent="HNRuWznxrvH1GRP3ciW0-1">
          <mxGeometry x="0.1714" relative="1" as="geometry">
            <mxPoint x="-55" y="2" as="offset" />
          </mxGeometry>
        </mxCell>
        <mxCell id="HNRuWznxrvH1GRP3ciW0-3" value="" style="endArrow=classic;html=1;rounded=0;entryX=0.015;entryY=0.4;entryDx=0;entryDy=0;fontColor=#0069D1;strokeWidth=2;strokeColor=#d79b00;exitX=0.5;exitY=0;exitDx=0;exitDy=0;startArrow=classic;startFill=1;entryPerimeter=0;fillColor=#ffe6cc;" edge="1" parent="1" source="iSlwvEaFTV1MsLrmG7Bg-3" target="HNRuWznxrvH1GRP3ciW0-10">
          <mxGeometry width="50" height="50" relative="1" as="geometry">
            <mxPoint x="350" y="130" as="sourcePoint" />
            <mxPoint x="350" y="60" as="targetPoint" />
          </mxGeometry>
        </mxCell>
        <mxCell id="HNRuWznxrvH1GRP3ciW0-4" value="HTTP request" style="edgeLabel;html=1;align=center;verticalAlign=middle;resizable=0;points=[];fontColor=#D79B00;" vertex="1" connectable="0" parent="HNRuWznxrvH1GRP3ciW0-3">
          <mxGeometry x="0.1714" relative="1" as="geometry">
            <mxPoint as="offset" />
          </mxGeometry>
        </mxCell>
        <mxCell id="HNRuWznxrvH1GRP3ciW0-5" value="" style="endArrow=classic;html=1;rounded=0;entryX=0.5;entryY=1;entryDx=0;entryDy=0;fontColor=#0069D1;strokeWidth=2;strokeColor=#d79b00;exitX=0.5;exitY=0;exitDx=0;exitDy=0;startArrow=classic;startFill=1;fillColor=#ffe6cc;" edge="1" parent="1" source="z7JpvZq2FA8dysia0Ozg-4" target="iSlwvEaFTV1MsLrmG7Bg-3">
          <mxGeometry width="50" height="50" relative="1" as="geometry">
            <mxPoint x="239.5" y="230" as="sourcePoint" />
            <mxPoint x="239.5" y="160" as="targetPoint" />
          </mxGeometry>
        </mxCell>
        <mxCell id="HNRuWznxrvH1GRP3ciW0-6" value="External ressource" style="edgeLabel;html=1;align=center;verticalAlign=middle;resizable=0;points=[];fontColor=#D79B00;" vertex="1" connectable="0" parent="HNRuWznxrvH1GRP3ciW0-5">
          <mxGeometry x="0.1714" relative="1" as="geometry">
            <mxPoint x="50" y="5" as="offset" />
          </mxGeometry>
        </mxCell>
        <mxCell id="HNRuWznxrvH1GRP3ciW0-8" value="" style="endArrow=classic;html=1;rounded=0;fontColor=#0069D1;strokeWidth=2;strokeColor=#d79b00;exitX=0;exitY=0.25;exitDx=0;exitDy=0;startArrow=classic;startFill=1;fillColor=#ffe6cc;" edge="1" parent="1" source="z7JpvZq2FA8dysia0Ozg-4" target="iSlwvEaFTV1MsLrmG7Bg-2">
          <mxGeometry width="50" height="50" relative="1" as="geometry">
            <mxPoint x="255" y="230" as="sourcePoint" />
            <mxPoint x="255" y="170" as="targetPoint" />
          </mxGeometry>
        </mxCell>
        <mxCell id="HNRuWznxrvH1GRP3ciW0-9" value="Internal&lt;div&gt;ressource&lt;/div&gt;" style="edgeLabel;html=1;align=center;verticalAlign=middle;resizable=0;points=[];fontColor=#D79B00;" vertex="1" connectable="0" parent="HNRuWznxrvH1GRP3ciW0-8">
          <mxGeometry x="0.1714" relative="1" as="geometry">
            <mxPoint x="-34" y="9" as="offset" />
          </mxGeometry>
        </mxCell>
        <mxCell id="HNRuWznxrvH1GRP3ciW0-10" value="Ressource&lt;div&gt;provider&lt;/div&gt;" style="whiteSpace=wrap;html=1;shape=mxgraph.basic.cloud_callout;fillColor=#ffe6cc;strokeColor=#d79b00;fontStyle=0;verticalAlign=middle;spacingBottom=15;" vertex="1" parent="1">
          <mxGeometry x="390" y="10" width="130" height="80" as="geometry" />
        </mxCell>
        <mxCell id="HNRuWznxrvH1GRP3ciW0-11" value="Backend services" style="rounded=1;whiteSpace=wrap;html=1;glass=0;sketch=1;curveFitting=1;jiggle=2;fillStyle=hachure;fillColor=#f8cecc;fontStyle=1;fontSize=18;strokeColor=#b85450;fontColor=#660000;labelPosition=center;verticalLabelPosition=middle;align=center;verticalAlign=middle;spacingBottom=60;" vertex="1" parent="1">
          <mxGeometry x="70" y="527" width="350" height="101" as="geometry" />
        </mxCell>
        <mxCell id="HNRuWznxrvH1GRP3ciW0-13" value="" style="endArrow=classic;html=1;rounded=0;entryX=0.5;entryY=1;entryDx=0;entryDy=0;fontColor=#660000;strokeWidth=2;strokeColor=#b85450;exitX=0.5;exitY=0;exitDx=0;exitDy=0;startArrow=classic;startFill=1;fillColor=#f8cecc;" edge="1" parent="1" source="HNRuWznxrvH1GRP3ciW0-11" target="iSlwvEaFTV1MsLrmG7Bg-1">
          <mxGeometry width="50" height="50" relative="1" as="geometry">
            <mxPoint x="244.5" y="510" as="sourcePoint" />
            <mxPoint x="244.5" y="440" as="targetPoint" />
          </mxGeometry>
        </mxCell>
        <mxCell id="HNRuWznxrvH1GRP3ciW0-14" value="Service request" style="edgeLabel;html=1;align=center;verticalAlign=middle;resizable=0;points=[];fontColor=#660000;" vertex="1" connectable="0" parent="HNRuWznxrvH1GRP3ciW0-13">
          <mxGeometry x="0.1714" relative="1" as="geometry">
            <mxPoint y="4" as="offset" />
          </mxGeometry>
        </mxCell>
        <mxCell id="HNRuWznxrvH1GRP3ciW0-15" value="catalog" style="rounded=1;whiteSpace=wrap;html=1;glass=0;sketch=1;curveFitting=1;jiggle=2;fillStyle=hachure;fillColor=#f8cecc;fontStyle=1;fontSize=16;strokeColor=#b85450;" vertex="1" parent="1">
          <mxGeometry x="80" y="570" width="90" height="30" as="geometry" />
        </mxCell>
        <mxCell id="HNRuWznxrvH1GRP3ciW0-16" value="projects" style="rounded=1;whiteSpace=wrap;html=1;glass=0;sketch=1;curveFitting=1;jiggle=2;fillStyle=hachure;fillColor=#f8cecc;fontStyle=1;fontSize=16;strokeColor=#b85450;" vertex="1" parent="1">
          <mxGeometry x="160" y="585" width="90" height="30" as="geometry" />
        </mxCell>
        <mxCell id="HNRuWznxrvH1GRP3ciW0-17" value="features" style="rounded=1;whiteSpace=wrap;html=1;glass=0;sketch=1;curveFitting=1;jiggle=2;fillStyle=hachure;fillColor=#f8cecc;fontStyle=1;fontSize=16;strokeColor=#b85450;" vertex="1" parent="1">
          <mxGeometry x="240" y="570" width="90" height="30" as="geometry" />
        </mxCell>
        <mxCell id="HNRuWznxrvH1GRP3ciW0-18" value="MongoDB collections" style="rounded=1;whiteSpace=wrap;html=1;glass=0;sketch=1;curveFitting=1;jiggle=2;fillStyle=hachure;fillColor=#d5e8d4;fontStyle=1;fontSize=18;strokeColor=#82b366;fontColor=#67AB9F;spacingBottom=50;" vertex="1" parent="1">
          <mxGeometry x="70" y="700" width="350" height="80" as="geometry" />
        </mxCell>
        <mxCell id="HNRuWznxrvH1GRP3ciW0-19" value="" style="endArrow=classic;html=1;rounded=0;entryX=0.5;entryY=1;entryDx=0;entryDy=0;fontColor=#67AB9F;strokeWidth=2;strokeColor=#82b366;exitX=0.5;exitY=0;exitDx=0;exitDy=0;startArrow=classic;startFill=1;fillColor=#d5e8d4;" edge="1" parent="1" source="HNRuWznxrvH1GRP3ciW0-18" target="HNRuWznxrvH1GRP3ciW0-11">
          <mxGeometry width="50" height="50" relative="1" as="geometry">
            <mxPoint x="244.5" y="717" as="sourcePoint" />
            <mxPoint x="244.5" y="638" as="targetPoint" />
          </mxGeometry>
        </mxCell>
        <mxCell id="HNRuWznxrvH1GRP3ciW0-20" value="Database request" style="edgeLabel;html=1;align=center;verticalAlign=middle;resizable=0;points=[];fontColor=#67AB9F;fontStyle=0" vertex="1" connectable="0" parent="HNRuWznxrvH1GRP3ciW0-19">
          <mxGeometry x="0.1714" relative="1" as="geometry">
            <mxPoint x="-1" y="5" as="offset" />
          </mxGeometry>
        </mxCell>
        <mxCell id="kqebPcg_vNXRvDzYQm3f-3" value="" style="group" vertex="1" connectable="0" parent="1">
          <mxGeometry x="70" y="389" width="350" height="63" as="geometry" />
        </mxCell>
        <mxCell id="iSlwvEaFTV1MsLrmG7Bg-1" value="Frontend services" style="rounded=1;whiteSpace=wrap;html=1;glass=0;sketch=1;curveFitting=1;jiggle=2;fillStyle=hachure;fillColor=#A9C4EB;fontStyle=1;fontSize=18;fontColor=#0069D1;strokeColor=#0069D1;spacingBottom=40;" vertex="1" parent="kqebPcg_vNXRvDzYQm3f-3">
          <mxGeometry y="-10" width="350" height="73" as="geometry" />
        </mxCell>
        <mxCell id="QV3rKbsVsacZU6C7xN6P-1" value="" style="group" vertex="1" connectable="0" parent="kqebPcg_vNXRvDzYQm3f-3">
          <mxGeometry x="15" y="19.6875" width="329" height="33.075" as="geometry" />
        </mxCell>
        <mxCell id="HNRuWznxrvH1GRP3ciW0-21" value="catalog" style="rounded=1;whiteSpace=wrap;html=1;glass=0;sketch=1;curveFitting=1;jiggle=2;fillStyle=hachure;fillColor=#dae8fc;fontStyle=1;fontSize=16;strokeColor=#6c8ebf;fontColor=#0069D1;" vertex="1" parent="QV3rKbsVsacZU6C7xN6P-1">
          <mxGeometry width="90" height="23.625" as="geometry" />
        </mxCell>
        <mxCell id="HNRuWznxrvH1GRP3ciW0-22" value="projects" style="rounded=1;whiteSpace=wrap;html=1;glass=0;sketch=1;curveFitting=1;jiggle=2;fillStyle=hachure;fillColor=#dae8fc;fontStyle=1;fontSize=16;strokeColor=#6c8ebf;fontColor=#0069D1;" vertex="1" parent="QV3rKbsVsacZU6C7xN6P-1">
          <mxGeometry x="75" y="9.45" width="90" height="23.625" as="geometry" />
        </mxCell>
        <mxCell id="HNRuWznxrvH1GRP3ciW0-23" value="features" style="rounded=1;whiteSpace=wrap;html=1;glass=0;sketch=1;curveFitting=1;jiggle=2;fillStyle=hachure;fillColor=#dae8fc;fontStyle=1;fontSize=16;strokeColor=#6c8ebf;fontColor=#0069D1;" vertex="1" parent="QV3rKbsVsacZU6C7xN6P-1">
          <mxGeometry x="155" width="90" height="23.625" as="geometry" />
        </mxCell>
        <mxCell id="ruwFsdogks2OUBjYZpxi-1" value="auth." style="rounded=1;whiteSpace=wrap;html=1;glass=0;sketch=1;curveFitting=1;jiggle=2;fillStyle=hachure;fillColor=#dae8fc;fontStyle=1;fontSize=16;strokeColor=#6c8ebf;fontColor=#0069D1;" vertex="1" parent="QV3rKbsVsacZU6C7xN6P-1">
          <mxGeometry x="239" y="9.449999999999989" width="90" height="23.625" as="geometry" />
        </mxCell>
        <mxCell id="kqebPcg_vNXRvDzYQm3f-5" value="Application components" style="rounded=1;whiteSpace=wrap;html=1;glass=0;sketch=1;curveFitting=1;jiggle=2;fillStyle=hachure;fillColor=#A9C4EB;fontStyle=1;fontSize=18;fontColor=#0069D1;strokeColor=#0069D1;spacingBottom=0;" vertex="1" parent="1">
          <mxGeometry x="130" y="298" width="230" height="40" as="geometry" />
        </mxCell>
        <mxCell id="kqebPcg_vNXRvDzYQm3f-9" value="" style="endArrow=classic;html=1;rounded=0;fontColor=#0069D1;strokeWidth=2;strokeColor=#0069D1;exitX=0.5;exitY=1;exitDx=0;exitDy=0;startArrow=classic;startFill=1;entryX=0.5;entryY=0;entryDx=0;entryDy=0;" edge="1" parent="1" source="kqebPcg_vNXRvDzYQm3f-5" target="iSlwvEaFTV1MsLrmG7Bg-1">
          <mxGeometry width="50" height="50" relative="1" as="geometry">
            <mxPoint x="230" y="219" as="sourcePoint" />
            <mxPoint x="157" y="164" as="targetPoint" />
          </mxGeometry>
        </mxCell>
        <mxCell id="kqebPcg_vNXRvDzYQm3f-12" value="Service operation" style="edgeLabel;html=1;align=center;verticalAlign=middle;resizable=0;points=[];fontColor=#0069D1;" vertex="1" connectable="0" parent="1">
          <mxGeometry x="190" y="357" as="geometry" />
        </mxCell>
        <mxCell id="XRZgBeV-gsUpbsgiuMPn-1" value="PWA" style="text;strokeColor=none;align=center;fillColor=none;html=1;verticalAlign=middle;whiteSpace=wrap;rounded=0;fontColor=#0069D1;fontSize=18;fontStyle=1" vertex="1" parent="1">
          <mxGeometry y="266" width="50" height="30" as="geometry" />
        </mxCell>
        <mxCell id="nGZGi0N4qY7D4wfxavwS-1" value="auth." style="rounded=1;whiteSpace=wrap;html=1;glass=0;sketch=1;curveFitting=1;jiggle=2;fillStyle=hachure;fillColor=#f8cecc;fontStyle=1;fontSize=16;strokeColor=#b85450;" vertex="1" parent="1">
          <mxGeometry x="324" y="585" width="90" height="30" as="geometry" />
        </mxCell>
        <mxCell id="f0XmKRaVPFYsfpO-2ZKJ-1" value="catalog" style="rounded=1;whiteSpace=wrap;html=1;glass=0;sketch=1;curveFitting=1;jiggle=2;fillStyle=hachure;fillColor=#d5e8d4;fontStyle=1;fontSize=16;strokeColor=#82b366;fontColor=#67AB9F;" vertex="1" parent="1">
          <mxGeometry x="110" y="730" width="90" height="30" as="geometry" />
        </mxCell>
        <mxCell id="f0XmKRaVPFYsfpO-2ZKJ-2" value="projects" style="rounded=1;whiteSpace=wrap;html=1;glass=0;sketch=1;curveFitting=1;jiggle=2;fillStyle=hachure;fillColor=#d5e8d4;fontStyle=1;fontSize=16;strokeColor=#82b366;fontColor=#67AB9F;" vertex="1" parent="1">
          <mxGeometry x="190" y="745" width="90" height="30" as="geometry" />
        </mxCell>
        <mxCell id="f0XmKRaVPFYsfpO-2ZKJ-3" value="features" style="rounded=1;whiteSpace=wrap;html=1;glass=0;sketch=1;curveFitting=1;jiggle=2;fillStyle=hachure;fillColor=#d5e8d4;fontStyle=1;fontSize=16;strokeColor=#82b366;fontColor=#67AB9F;" vertex="1" parent="1">
          <mxGeometry x="270" y="730" width="90" height="30" as="geometry" />
        </mxCell>
        <mxCell id="PN5uY3tM5oHQRRnjHRIf-1" value="" style="shape=image;verticalLabelPosition=bottom;labelBackgroundColor=default;verticalAlign=top;aspect=fixed;imageAspect=0;image=https://miro.medium.com/v2/resize:fit:512/1*doAg1_fMQKWFoub-6gwUiQ.png;clipPath=inset(0.67% 31.33% 21.67% 31.33%);" vertex="1" parent="1">
          <mxGeometry x="390" y="712.02" width="23.06" height="47.98" as="geometry" />
        </mxCell>
        <mxCell id="gQ_RrKwn94iJOaYIy5KJ-1" value="" style="shape=image;verticalLabelPosition=bottom;labelBackgroundColor=default;verticalAlign=top;aspect=fixed;imageAspect=0;image=https://feathersjs.com/logo.svg;" vertex="1" parent="1">
          <mxGeometry x="397" y="112" width="34" height="34" as="geometry" />
        </mxCell>
        <mxCell id="gQ_RrKwn94iJOaYIy5KJ-2" value="" style="shape=image;verticalLabelPosition=bottom;labelBackgroundColor=default;verticalAlign=top;aspect=fixed;imageAspect=0;image=https://feathersjs.com/logo.svg;" vertex="1" parent="1">
          <mxGeometry x="379" y="531" width="34" height="34" as="geometry" />
        </mxCell>
        <mxCell id="-aQKNf2H7tmwe5uFc-KJ-1" value="" style="shape=image;verticalLabelPosition=bottom;labelBackgroundColor=default;verticalAlign=top;aspect=fixed;imageAspect=0;image=https://samvloeberghs.be/assets/share/posts/workbox_share.jpg;clipPath=inset(26.58% 37.33% 26.58% 36.33%);" vertex="1" parent="1">
          <mxGeometry x="394" y="151.15" width="34" height="31.85" as="geometry" />
        </mxCell>
      </root>
    </mxGraphModel>
  </diagram>
  <diagram id="jbcM8ZsHUhBdIJF_sJ3L" name="Online-Caching">
    <mxGraphModel dx="2074" dy="1166" grid="1" gridSize="10" guides="1" tooltips="1" connect="1" arrows="1" fold="1" page="1" pageScale="1" pageWidth="827" pageHeight="1169" math="0" shadow="0">
      <root>
        <mxCell id="0" />
        <mxCell id="1" parent="0" />
        <mxCell id="Qz2SuXK2U2u-8fV5oh8R-1" value="" style="rounded=1;whiteSpace=wrap;html=1;fillColor=none;sketch=1;curveFitting=1;jiggle=2;strokeColor=#6c8ebf;" vertex="1" parent="1">
          <mxGeometry x="49" y="100" width="761" height="370" as="geometry" />
        </mxCell>
        <mxCell id="Sf5N2lBpixZHKHx4K-zn-4" value="Layers cache" style="rounded=1;whiteSpace=wrap;html=1;glass=0;sketch=1;curveFitting=1;jiggle=2;fillStyle=hachure;fillColor=#ffe6cc;fontStyle=1;fontSize=18;strokeColor=#d79b00;fontColor=#D79B00;" vertex="1" parent="1">
          <mxGeometry x="364.5" y="110" width="130" height="40" as="geometry" />
        </mxCell>
        <mxCell id="Qz2SuXK2U2u-8fV5oh8R-6" value="" style="shape=image;html=1;verticalLabelPosition=bottom;verticalAlign=top;imageAspect=0;image=img/clipart/Gear_128x128.png" vertex="1" parent="1">
          <mxGeometry x="407.5" y="194" width="50" height="60" as="geometry" />
        </mxCell>
        <mxCell id="Qz2SuXK2U2u-8fV5oh8R-7" value="Service worker" style="text;strokeColor=none;align=center;fillColor=none;html=1;verticalAlign=middle;whiteSpace=wrap;rounded=0;fontColor=#0069D1;fontSize=14;fontStyle=1" vertex="1" parent="1">
          <mxGeometry x="290" y="209" width="110" height="30" as="geometry" />
        </mxCell>
        <mxCell id="Qz2SuXK2U2u-8fV5oh8R-8" value="" style="endArrow=classic;html=1;rounded=0;entryX=0.5;entryY=1;entryDx=0;entryDy=0;fontColor=#0069D1;strokeWidth=2;strokeColor=#0069D1;startArrow=classic;startFill=1;exitX=0.5;exitY=0;exitDx=0;exitDy=0;" edge="1" parent="1" source="Qz2SuXK2U2u-8fV5oh8R-32" target="Qz2SuXK2U2u-8fV5oh8R-6">
          <mxGeometry width="50" height="50" relative="1" as="geometry">
            <mxPoint x="245" y="310" as="sourcePoint" />
            <mxPoint x="275" y="340" as="targetPoint" />
          </mxGeometry>
        </mxCell>
        <mxCell id="Qz2SuXK2U2u-8fV5oh8R-9" value="Ressources&amp;nbsp;&lt;div&gt;used by view&lt;/div&gt;" style="edgeLabel;html=1;align=center;verticalAlign=middle;resizable=0;points=[];fontColor=#0069D1;" vertex="1" connectable="0" parent="Qz2SuXK2U2u-8fV5oh8R-8">
          <mxGeometry x="0.1714" relative="1" as="geometry">
            <mxPoint x="-55" y="2" as="offset" />
          </mxGeometry>
        </mxCell>
        <mxCell id="Qz2SuXK2U2u-8fV5oh8R-10" value="" style="endArrow=classic;html=1;rounded=0;entryX=0.015;entryY=0.4;entryDx=0;entryDy=0;fontColor=#0069D1;strokeWidth=2;strokeColor=#d79b00;exitX=0.5;exitY=0;exitDx=0;exitDy=0;startArrow=classic;startFill=1;entryPerimeter=0;fillColor=#ffe6cc;" edge="1" parent="1" source="Sf5N2lBpixZHKHx4K-zn-4" target="Qz2SuXK2U2u-8fV5oh8R-16">
          <mxGeometry width="50" height="50" relative="1" as="geometry">
            <mxPoint x="350" y="130" as="sourcePoint" />
            <mxPoint x="350" y="60" as="targetPoint" />
          </mxGeometry>
        </mxCell>
        <mxCell id="Qz2SuXK2U2u-8fV5oh8R-11" value="HTTP requests" style="edgeLabel;html=1;align=center;verticalAlign=middle;resizable=0;points=[];fontColor=#D79B00;" vertex="1" connectable="0" parent="Qz2SuXK2U2u-8fV5oh8R-10">
          <mxGeometry x="0.1714" relative="1" as="geometry">
            <mxPoint as="offset" />
          </mxGeometry>
        </mxCell>
        <mxCell id="Qz2SuXK2U2u-8fV5oh8R-12" value="" style="endArrow=classic;html=1;rounded=0;entryX=0.5;entryY=1;entryDx=0;entryDy=0;fontColor=#0069D1;strokeWidth=2;strokeColor=#d79b00;exitX=0.5;exitY=0;exitDx=0;exitDy=0;startArrow=classic;startFill=1;fillColor=#ffe6cc;" edge="1" parent="1">
          <mxGeometry width="50" height="50" relative="1" as="geometry">
            <mxPoint x="434" y="194" as="sourcePoint" />
            <mxPoint x="431" y="150" as="targetPoint" />
          </mxGeometry>
        </mxCell>
        <mxCell id="Qz2SuXK2U2u-8fV5oh8R-13" value="External ressources&lt;div&gt;used by view&lt;/div&gt;" style="edgeLabel;html=1;align=center;verticalAlign=middle;resizable=0;points=[];fontColor=#D79B00;" vertex="1" connectable="0" parent="Qz2SuXK2U2u-8fV5oh8R-12">
          <mxGeometry x="0.1714" relative="1" as="geometry">
            <mxPoint x="73" y="12" as="offset" />
          </mxGeometry>
        </mxCell>
        <mxCell id="Qz2SuXK2U2u-8fV5oh8R-16" value="Ressource&lt;div&gt;provider&lt;/div&gt;" style="whiteSpace=wrap;html=1;shape=mxgraph.basic.cloud_callout;fillColor=#ffe6cc;strokeColor=#d79b00;fontStyle=0;verticalAlign=middle;spacingBottom=15;" vertex="1" parent="1">
          <mxGeometry x="480" y="10" width="130" height="80" as="geometry" />
        </mxCell>
        <mxCell id="Qz2SuXK2U2u-8fV5oh8R-17" value="Backend services" style="rounded=1;whiteSpace=wrap;html=1;glass=0;sketch=1;curveFitting=1;jiggle=2;fillStyle=hachure;fillColor=#f8cecc;fontStyle=1;fontSize=18;strokeColor=#b85450;fontColor=#660000;labelPosition=center;verticalLabelPosition=middle;align=center;verticalAlign=middle;spacingBottom=60;" vertex="1" parent="1">
          <mxGeometry x="70" y="527" width="350" height="101" as="geometry" />
        </mxCell>
        <mxCell id="Qz2SuXK2U2u-8fV5oh8R-18" value="" style="endArrow=classic;html=1;rounded=0;entryX=0.5;entryY=1;entryDx=0;entryDy=0;fontColor=#660000;strokeWidth=2;strokeColor=#b85450;exitX=0.5;exitY=0;exitDx=0;exitDy=0;startArrow=classic;startFill=1;fillColor=#f8cecc;" edge="1" parent="1" source="Qz2SuXK2U2u-8fV5oh8R-17" target="Qz2SuXK2U2u-8fV5oh8R-28">
          <mxGeometry width="50" height="50" relative="1" as="geometry">
            <mxPoint x="244.5" y="510" as="sourcePoint" />
            <mxPoint x="244.5" y="440" as="targetPoint" />
          </mxGeometry>
        </mxCell>
        <mxCell id="Qz2SuXK2U2u-8fV5oh8R-19" value="Service items&lt;div&gt;used by view&lt;/div&gt;" style="edgeLabel;html=1;align=center;verticalAlign=middle;resizable=0;points=[];fontColor=#660000;" vertex="1" connectable="0" parent="Qz2SuXK2U2u-8fV5oh8R-18">
          <mxGeometry x="0.1714" relative="1" as="geometry">
            <mxPoint y="6" as="offset" />
          </mxGeometry>
        </mxCell>
        <mxCell id="Qz2SuXK2U2u-8fV5oh8R-24" value="" style="endArrow=classic;html=1;rounded=0;entryX=0.5;entryY=1;entryDx=0;entryDy=0;fontColor=#67AB9F;strokeWidth=2;strokeColor=#82b366;exitX=0.5;exitY=0;exitDx=0;exitDy=0;startArrow=classic;startFill=1;fillColor=#d5e8d4;" edge="1" parent="1" target="Qz2SuXK2U2u-8fV5oh8R-17">
          <mxGeometry width="50" height="50" relative="1" as="geometry">
            <mxPoint x="245" y="700" as="sourcePoint" />
            <mxPoint x="244.5" y="638" as="targetPoint" />
          </mxGeometry>
        </mxCell>
        <mxCell id="Qz2SuXK2U2u-8fV5oh8R-25" value="Database items&lt;div&gt;used by view&lt;/div&gt;" style="edgeLabel;html=1;align=center;verticalAlign=middle;resizable=0;points=[];fontColor=#67AB9F;fontStyle=0" vertex="1" connectable="0" parent="Qz2SuXK2U2u-8fV5oh8R-24">
          <mxGeometry x="0.1714" relative="1" as="geometry">
            <mxPoint x="-1" y="5" as="offset" />
          </mxGeometry>
        </mxCell>
        <mxCell id="Qz2SuXK2U2u-8fV5oh8R-26" value="PWA" style="text;strokeColor=none;align=center;fillColor=none;html=1;verticalAlign=middle;whiteSpace=wrap;rounded=0;fontColor=#0069D1;fontSize=18;fontStyle=1" vertex="1" parent="1">
          <mxGeometry y="266" width="50" height="30" as="geometry" />
        </mxCell>
        <mxCell id="Qz2SuXK2U2u-8fV5oh8R-27" value="" style="group;spacingBottom=9;" vertex="1" connectable="0" parent="1">
          <mxGeometry x="70" y="389" width="350" height="63" as="geometry" />
        </mxCell>
        <mxCell id="Qz2SuXK2U2u-8fV5oh8R-28" value="Frontend online services" style="rounded=1;whiteSpace=wrap;html=1;glass=0;sketch=1;curveFitting=1;jiggle=2;fillStyle=hachure;fillColor=#A9C4EB;fontStyle=1;fontSize=18;fontColor=#0069D1;strokeColor=#0069D1;spacingBottom=40;" vertex="1" parent="Qz2SuXK2U2u-8fV5oh8R-27">
          <mxGeometry y="-10" width="350" height="73" as="geometry" />
        </mxCell>
        <mxCell id="Qz2SuXK2U2u-8fV5oh8R-32" value="Add map view to cache" style="rounded=1;whiteSpace=wrap;html=1;glass=0;sketch=1;curveFitting=1;jiggle=2;fillStyle=hachure;fillColor=#A9C4EB;fontStyle=1;fontSize=18;fontColor=#0069D1;strokeColor=#0069D1;spacingBottom=0;" vertex="1" parent="1">
          <mxGeometry x="297.5" y="301" width="270" height="40" as="geometry" />
        </mxCell>
        <mxCell id="Qz2SuXK2U2u-8fV5oh8R-33" value="" style="endArrow=classic;html=1;rounded=0;fontColor=#0069D1;strokeWidth=2;strokeColor=#0069D1;exitX=0;exitY=0.5;exitDx=0;exitDy=0;startArrow=classic;startFill=1;entryX=0.5;entryY=0;entryDx=0;entryDy=0;" edge="1" parent="1" source="Qz2SuXK2U2u-8fV5oh8R-32" target="Qz2SuXK2U2u-8fV5oh8R-28">
          <mxGeometry width="50" height="50" relative="1" as="geometry">
            <mxPoint x="230" y="219" as="sourcePoint" />
            <mxPoint x="157" y="164" as="targetPoint" />
            <Array as="points">
              <mxPoint x="245" y="321" />
            </Array>
          </mxGeometry>
        </mxCell>
        <mxCell id="Qz2SuXK2U2u-8fV5oh8R-34" value="Service items&lt;div&gt;used by view&lt;/div&gt;" style="edgeLabel;html=1;align=center;verticalAlign=middle;resizable=0;points=[];fontColor=#0069D1;" vertex="1" connectable="0" parent="1">
          <mxGeometry x="200" y="330" as="geometry" />
        </mxCell>
        <mxCell id="v01ws5RllLbdN7XysroI-1" value="" style="shape=image;verticalLabelPosition=bottom;labelBackgroundColor=default;verticalAlign=top;aspect=fixed;imageAspect=0;image=https://icons.iconarchive.com/icons/icons-land/gis-gps-map/256/Layers-icon.png;" vertex="1" parent="1">
          <mxGeometry x="250" y="243" width="76" height="76" as="geometry" />
        </mxCell>
        <mxCell id="ESwYxoB_mNq8HLL_CdRm-2" value="" style="group" vertex="1" connectable="0" parent="1">
          <mxGeometry x="500" y="527" width="320" height="190" as="geometry" />
        </mxCell>
        <mxCell id="ESwYxoB_mNq8HLL_CdRm-1" value="IndexedDB collections" style="rounded=1;whiteSpace=wrap;html=1;glass=0;sketch=1;curveFitting=1;jiggle=2;fillStyle=hachure;fillColor=#ffe6cc;fontStyle=1;fontSize=18;strokeColor=#d79b00;fontColor=#D79B00;verticalAlign=top;" vertex="1" parent="ESwYxoB_mNq8HLL_CdRm-2">
          <mxGeometry x="-30" width="350" height="100" as="geometry" />
        </mxCell>
        <mxCell id="v01ws5RllLbdN7XysroI-70" value="" style="shape=image;imageAspect=0;aspect=fixed;verticalLabelPosition=bottom;verticalAlign=top;image=data:image/png,iVBORw0KGgoAAAANSUhEUgAAAbgAAAIZCAYAAADUYiplAAAABGdBTUEAALGPC/xhBQAAAAlwSFlzAAAOwgAADsIBFShKgAAAABl0RVh0U29mdHdhcmUAcGFpbnQubmV0IDQuMC4yMfEgaZUAAGYiSURBVHhe7d2HnxzlmSfwy3nvbi/s7t3e3e6FtTR5RjMKowySSJ4clONM9wQJkTFgMAZsgjFgY0zGgMhJYHLOGQGKCOU8OUr+A56rp5jGTek3Pd09lev3fD7fxfuoK8xbPc8z1V311j8SESIiotCBSSIioqCDSSIioqCDSSIioqCDSSIioqCDSSIioqCDSSIioqCDSSIioqCDSSIioqCDSSIioqCDSSIioqCDSSIioqCDSSIioqCDSSIioqCDSSIioqCDSSIioqCDSSIioqCDSSIioqCDSSIioqCDSSIioqCDSSIioqCDSSIioqCDSSIioqCDSSIioqCDSSIioqCDSSIioqCDSSIioqCDSSIioqCDSSIioqCDSSIioqCDSYqG3/zmN5Ip6zqIRvPiiy/C99BYrOshyhZMUjQYof8nI9Z1EI3mnHPOge+hVP7P//k/xqJ4fUSZgkmKBmtxSYd1HUSjYYMjr8Gkn1VVVclf/MVfZMy6HtJ6gotMKtZ1EI3GiQanv///4T/8B/nLv/xL+c//+T/LX/3VX8nf/M3fyH//7/9d/uf//J/yd3/3d+Y6/t//+3/yox/9SHJyciQvL08KCgqkuLj4B6ZNmyannXaaNDY2SiwWkwsuuECuvvpqYzN423bRevQf/+N/lP/0n/6T/Jf/8l/kr//6r+W//bf/Jn/7t38r/+t//S/5+7//++9/hgkTJnz/MxQWFp70M0ydOlXmzZsnNTU1smLFCtExv+mmm+Spp54yNoW3HyUw6Wf6Bke/GGOxrod0WPBYpWJdB9FonGpwaDknaFOMx+Py8MMPG5vG+5MN63ac9K/+1b8SHbPf//73xqbx/oQZTPoZG5x9rGOUDus6iEYT9AaXTM+urrzySmMX8H5lwrput2iz07NU6/6EGUz6GRucfaxjlA7rOohGE6YGl0w/zrTuVyas63Obfrxr3aewgkk/Y4Ozj3WM0mFdB9FowtrglO6n3gZh3b90WNfllfvvv9/YHbyPYQGTfsYGZx/rGKXDug6i0YS5wSWcf/75xm7hfR2NdR1e+Sf/5J8Yu4P3MSxg0s/Y4OxjHaN0WNdBNJooNDj185//3Ng1vL+IdXkvlZeXG7uE9zMMYNLP2ODsYx2jdFjXQTSaqDQ4tWHDBmP38D5bWZf1mnX/wgQm/YwNzj7WMUqHdR1Eo4lSg1PWfR2NdTmvXXjhhcZu4X0NOpj0MzY4+1jHKB3WdRCNJmoNrrKy0thFvN/JrMul4/TTT//+opaXXnrJPGO85ZZbzG2i12eitrbWXG8YwaSfscHZxzpG6bCug2g0fmpwOiuIzgSiM3/MmjXL3I7eF4ZeOx7W/UWsy6RDbzi3rifZpEmT4HLp0GWt6wsLmPQzNjj7WMcoHdZ1EI3GTw3Oup5kP/vZz8ypstBymWpoaDBWibeTYF0mHWM1OPUv/sW/gMuOpaioyFgcrzPoYNLPgtLgbr31Vjn33HOloqJCTjnlFFm0aJGsX7/e+Cf8ejs8+eSTcv3115s3op566qmyfPlyc269xx57zPjnk19vHaN0WNeRrUcffVRuuOEGWbt2rfkxy9y5c2XlypVy+eWXy9133228BC8XVTomV1xxhTlG+n7S95WOnR5vHUvr652i+3HJJZeYhfyMM84w39O/+93vjH86+bVBaXAJ+n5Ey2bKul4r6+vTkU6D0995tOxY6uvrjcXxOoMOJv3MiTe4Fgq0TCr615J1PXfeeafMmDEDvj7Zv/t3/06uueaak5bP1sKFC+F2rJqbm42X/3k567+nI3n5TOn46AS3aL2IjvGyZcvkj3/8o7E4XqeVdR2Z+PWvf22sAq83IZv3SoJ1XWPRe6x0Ql60LmTixImiZyPW9YyXPqNNP+JD20ymkxvfddddxiLfLRe0Bqf0vaYTIaN1pEv/uLWuN5n19elIp8FddNFFcNmxXHvttcbieJ1BB5N+5tcGp3/NotelMt6PBvSsB613LIkiaM2nI7HtTLS1tY37+w4t9OnMkK4T46Ll06Ez0lvXZ2VdJl3W9aSiZ2hoHZnQ3xPrejN18803mzP3o/Wnoo1Olw9ig1MvvPACXEe6xrpow/r6dKTT4ObPnw+XHYt1PWECk37mxwaXyV/ZVtk2OX2sBlpfuvSvTJQfi3U/xqI/H1pPti677DJjtXhbCXohAVo2HY8//rixCrzeX/ziF3CZsWiDt64L0TNItHy29PEx1m2k69JLL4XrTJc+8iWoDU7p1wtoPenQM0Dr+pJZX5+OdBqcdZl0nHfeecaieH1hAJN+5rcG9z/+x/+A/56JTGYp10uE//W//tdwPZnQj0lRfizW/RmNflSFlreDni1bt2dlXSZdU6ZMMRbH68zmQgR93pd1PciSJUvg8nZI56PXZPodLlpPpv7rf/2vMJ+KXxqc0ufNoXWlw7quZNbXpmOsBqfPi0PLpaKfAFnXEzYw6Wd+anDV1dXw3zKVyZxw//gf/2O4DrdY9wfRBy6iZe001l+e2Z5tKeu61B/+8Af42rFY14Nk8r1ktqzbHI3e9IuWd4ufGtx4zuJSPUPO+tp0aDN6+umnZePGjSb9pEGnCNOPQ9Hrx7JgwQJjV/D+hQlM+plfGpzd9It8635Z2dVQx8O6T4h1GafoVaPWbSdL58IIBH2Homd26LWpaKO3rsdKLyRBy9pN7wGzbhuxLuc2PzU4ZV1Pum677TZjcXvXaRdt3NZ9CiuY9LOwNriysjJjV/D+KX20BVrObdb9stJCipZzgn6EZN2+lXWZdI13PXpWZl2HlTZotKxTxvouUCfeRcu5yW8NLtuPKfUTBOu6EqyvdYtebW3dl7CDST8La4NT1v1Kls33GU6w7leylpYWuEwq+r3Wr371K/Pet3Xr1sHXpHL77bcbm8b7o1pbW+FyY0n+ziPd2zCSJZZNJZuLk9rb2+XBBx8073/L9Hs765W/yXR9aBm3+a3BZfsHW6r5Ha2vdZL+4az391n3ISpg0s/82uDGe++Msu5Xgt7Ii16fib/4i7+A+UxZ9y2Z9bVjWbVqlbHYyev5l//yX8LXI7NnzzYWOXkdyfRCD7TsWBLL//N//s/hv48m1fcvCb/97W/hsqmgG/Yvvvhi+NrRaHO0rkOVlpbC17vNbw0um9t/lPWe02TW1zpNb3/R+0mj8IBTK5j0M781OP1eLHld2d5sqUb73F5njUCvT4f1L8nxXgCSvK5kmX6E+u///b83FsPryvTLfevyVnrzLlpuLD/5yU/MhoD+bTQ6e4x1+0g6EwIk07Nb6zoSMrlX7cwzzzQWOXkd1telSz9ZsBbO8dzH57cGp7N8oPWNpampyVgcr9P6WjfpPYpjfeoRJjDpZ35qcDU1NcbiJ69Pv+tArx/LjTfeaCx+8vr+6T/9p/D1Y7nqqquMxU9en7K+Nl3W9SRo4USvH41OK2RdR4LeCoGWGc11111nLIbXlbB48WK4bCp/93d/Z54hon9D9PYN63ZHY112LNblk+kVpWiZ0ViX/+UvfwlfN5b/+3//70nrSsj2oz2/NbhMjn+yCy64wFgcr9P6Wi+M9odO2MCkn/mpwVnXk8z62nTovJHW9WT78eScOXNOWleybL4vU9b1JFhfN5axPsazvj4VvaHYujyS6UeNmbJubzSZNpR/+2//rbEYXpfSuSDRcqOxLp/tx5PPPffcSetKZn19OvzW4HJzc+H6xpJqKj7ra72i339b9y1sYNLP/NLg9Hsi63qS/Zt/82/gcqno7BHW9WR7P1c6Txi2LpMO6zoSrK8by1jfB1hfn0pjY6OxCF5PsnvvvRcub4dMLr3O9HYPvYnXuo5kOvUaWm401uW1gaLXpTJWI1LZfJLhtwZnXU+67rjjDmNxe9fpBJ2owrp/YQKTfuaXBqf3WFnXkyybv/z0Ox/res4++2z42rFY14Nkc9O4dR3qnnvuga91y8yZM43dOHm/kGwvGkhFJzm2bicVry/oeOSRR4zd+PP+WP89Hei9apXN7PxhaXDW9SSzvjYdOvWZ1hytKyUlJeZtKNl+fGql3wdb9zEsYNLP/NLgxipqP/7xj+FyqegVcdb1ZHOJ+t/+7d+etB5EiwlaPhXrOpRONYZe65ax/tiwsi4/Xtb1j+Wv//qv4XrcYp26y/rv6Uh1I3PCE088AZdNxU8NTps4Wlc6rOtKZn1tOsaaqkuPaSZXH1ulM5F5EMGkn/mlwSVmTB9NNo+SR/fO6Hdp6LWppHOTscrmKcDWdSi9Ygy91i1/9Vd/ZezGyfs1GrsnNbaufyzW5d1mnfvU+u/pGOv7twTrcmPxU4PL9taa//2//7exOF6nsr4+HelMtqysy6UrrPNSwqSf+aXB/cM//IOxKF6f0gdSouVS0WmbrOvRM0X02lROO+20k9aD2HUGp9tDr3VLqlsOkGyOdyoFBQXGavG2EOvybkv+eDHbWygSy6eSzUwtfmlw2V5ZqvT9ZV1fMuvr05Fug8t2bkplXVcYwKSf+aXBpbpEWmXT4NCFCtmcwel3PNb1INl8pGFdh6qrq4OvdUuqGToQ6/J20NlYrNsZjXVZt1nfZ9Z/T4dO/Ju8DuSWW26By6bilwZnXT4T+jw56/qSWV+fjnQbnLIumy7resIAJv3MLw1urI8hsmlw+vh/63qy+Q5urH1LsC6XDus6lE4fhV7rJus+jUa/n0TL28G6rdHo0yPQ8m6xo8Hp1GrJ60CymfTADw1uPBcBOTU/KhtcdmDSz/zS4PSBo9b1JMumwaHZKrTpodeOxboeq4ceegguNxbrepTeUI5emy29ulObgN7g/s/+2T8TvX9Nz9L0jFOfDK63YOil7fpMO/2eJN2PKLMdy3TpjDPWbSLZPFcuFTReibHSm8+t42VHgxvrYziVTaPwusFNmDABLp+uxNPyU7Euk450G9x4pvWzrisMYNLP/NLgxrp/5KyzzoLLpaJnQtb1ZPtdwFi/aHppPVpuLNb1qGyapU7ua12P06z74ISxPp5S2VzebV2HnbK9mMK6Hivr69PhVYPTuRrRcpmyrhexLpOOdBtcNnUnwbquMIBJP/NLg9MJTK3rSZbN/VY68711Pdk+UiXVRyXjmY/Suq4E6+vGkum9Y+OV6WNP9MpMPTNE/5aKTu9l3bZVNme8o03jZodsnnWn9B5N67oSZs2aBZcZi1MNTucI1dl79CxeLV261Jwuzs6ndOgfo9b9RazLpSOdBpftkzOU3mdnXV8YwKSf+aXB/c3f/I2xKF6f0ifmouVSGe1NbH1duvSjKeuUWDpHHnptupLXlayoqAi+PpWpU6cai+L1paIXOGiBsuZHox/Joe2nouOU7dOtL7/8cmOzeF8SrMuk44orrjAWxetLRWfD0SdAW/MJ+mRotL10WCeX1vup9AIs9Np0ONXgnDbavLSIddl0pJrEWx+WPN57K1NN5h1kMOlnfmlwY917NW/ePLhcKqM9YiObZukU674lZHtTrH5XNNpjc5LpBMzJzz8b6zaNZIllMjGeZVVi+dHoJwBoubHotF2pHqaZoEVPnwWWWE5vura+JlnidV4LYoNLd2KFBOvyfmDdx7CAST/zS4PTZ4xZ15NMb5xEy6Uy2iM2srnc2inWfUuWzUd6VnpRhDYvvYhHLyxBr1E5OTnGJvF+JMtmnsXkM8tsH5cy1r2Iv//97+FymdL3YX5+vvlf9O8JzzzzjLFZvC/KyatLMxHEBqd/fFn3MxXr8l7L9pOUIIBJP/NLg9OnMVvXkyyb7yBSPUNKCz9axm3W/Urm5lOh9XEs1u1bZfvYojvvvNNY/M/rsf57usa64EQbE1rOCc8++6yxSbwfyuvp1hKC1uD0413rPo7Fug6vWfcvTGDSz/zS4PQJ3tb1JMv0gZYqVYMb74NK7WLdL6tsbkzPhk4zZt22lXWZdKDjms3Hzeov//IvT1pXshdffBEu54SxGpzSM2e0rJuC0uD0IbN6Sb51/9JhXZeX0BNMwgQm/cwvDW6se690Pki0XCqpGpxK/k7FK9Z9QtwolHrln3W7ybJ9SKx1nkaV7XRW6pJLLjlpfcnuuusuuJzd0mlw2V6xa6cgNDi9Qtq6X5mwrs8r6T5HMchg0s/80uD0plnrepJlc+n1WA1OZfOcOSTbKwSt+zMaLVRoebtMnz7d2Aze9urVq+EyY0k15Ve2T6hW1nVZufHxYDoNTmX7IFwrPRM+5ZRT4L+l4vcGl+op+emyrtML+hR4636FEUz6mV8anH4nZl1PsmxmcUinwanxzoSR+MvNmk9HYh/SoVdHonXYIdUzrKyvTZe+D6zrSsh25hel38da14eM5/L6saTb4NR4HhOj9I8wXY++z9C/p+LXBrdy5Upj83ifMmVdt5t0hiXr/oQZTPqZXxqcXt5uXU8yfSghWi6VdBucyuYpA1p49Lu8xDqs/56OxLLpeuCBB8zJn9G6xmO0Bmd9XSas67Iazx8W6cxwovTMOptJsMeSSYNT1157LVzPWE4//XRj8e/WEfQGp58S2HHGZmXdjtN0koMofByJwKSf+aXBjTWDfTYfaWXS4JR+Z5LOBRDa2NAsKdbXpcO6jnTp88Pmz59vzomI1jsWLfrV1dUnXeGYbPHixXDZdOgDaq3rs7r55pvhsunQ7wSt60tF73XL5qnwCfoQWJ1pRC9ksa47E5dddplZINE2kulH8hs2bDAW+fOyfm5wOn+nztmpM5nosx11//Vm6uuuu070O1frdu1k3Zfx0J9D5x/VC5p0Fh29Mlcbs15BfMcddxibw/sQFTBJwXPfffeZlyzrzeL6V7QWe52S6J577jH+GS/jpXvvvdd8LtmaNWvMj030Xpzy8nKzicViMdHCqvf/WWdiiSo9o9LjqTe76x8KOnOMTjW1aNEis5Fdc801ZvMf6363bOnsMXo8dIYXfcKFHjM9dsnPliPyG5gkIiIKOpgkIiIKOpgkIiIKOpgkIiIKOpgkIiIKOpgkIiIKOpgkIiIKOpgkIiIKOpgkIiIKOpgkIiIKOpgkIiIKOpgkIiIKOpgkIiIKOpgkIiIKOpgkIiIKOpgkIiIKOpgkIiIKOpgkIiIKOpgkIiIKOpgkIiIKOpgkIiIKOph0y7HKHwkREUWPtR84ASbdgn5oIiIKP2s/cAJMugX90EREFH7WfuAEmHQL+qGJiCj8rP3ACTDpFvRDExFR+Fn7gRNg0i2dy8vhD05EROGltd/aD5wAk27pObsC/vBERBReWvut/cAJMOmWvitWwR+eiIjCS2u/tR84ASbdMnjTBfCHJyKi8NLab+0HToBJtwzfex384YmIKLyG77vOaAG4L9gJJt1y4um74Q9PREThpbXf2g+cAJNuQj88ERGFl7UPOAUm3YR+eCIiCi9rH3AKTLoJ/fBERBRe1j7gFJh0E/rhiYgovKx9wCkw6Sb0wxMRUXhZ+4BTYNJNnUvK4AAQEVH4dC6ZbJR+3A/sBpNu6m4/Aw4CERGFj9Z8ax9wCky6qe/SZXAQiIgofPouW2aUftwP7AaTbhq44Rw4CEREFD5a8619wCkw6aahu66Gg0BEROEzdNc1RunH/cBuMOmmE0/cDgeBiIjCR2u+tQ84BSbdhgaBiIjCx1r/nQSTbkODQERE4WOt/06CSbehQSAiovCx1n8nwaTb0CAQEVH4WOu/k2DSbWgQiIgofKz130kw6baOxmI4EEREFB4dC4uNko/7gBNg0m3d8XlwMIiIKDy64/ONko/7gBNg0m29Fy+Cg0FEROGhtd5a/50Ek27rv3YtHAwiIgoPrfXW+u8kmHTb0O9/BgeDKMw6qoncdazq5Pehm4Zu/5lR8nEfcAJMuu34I7+Fg0EUZsfjOUSu6q6fAN+Lbjn+6K1Gycd9wAkw6QU0GERhhgoQkZM6a71tcNa67zSY9AIaDKIwQwWIyEnmx5TgvegWa913Gkx6AQ0GUZihAkTkJPQ+dJO17jsNJr2ABoMozFABInLKcDMbnGfQYBCFGSpCRE4ZWjMRvg/dZK37ToNJL3TU5cMBIQorVISInDKwytsGpzXeWvedBpNe6GqaAweFKKxQESJySv9ybxtcV9Nco9Tj+u8UmPRC7/l1cFCIwgoVISKn9C31tsH1XlBvlHpc/50Ck17ov7oFDgpRWKEiROSU3sXe3gPXf02LUepx/XcKTHph8NbL4KAQhRUqQkRO6VnobYPTGm+t+06DSS8c33ATHBSisEJFiMgp3Q0eT9O14Waj1OP67xSY9AoaFKKwQkWIyCldddGapkvBpFfQoBCFFSpCRE7pqMHvQ7dY670bYNIraFCIwgoVISKnoPegm6z13g0w6RU0KERhhYoQkROiOE2XgkmvoEEhCitUiIicMLSGDc5zx6q8nyuNyC2oEBE5YdDjabqOVU80Sjyu+06CSa90rZyBB4cohFAhInLCwAqPp+laNcMo8bjuOwkmvdJzThUcHKIwQoWIyAl9y7xtcD3nVBslHtd9J8GkV/quXAMHhyiMUCEicoLX03T1XdlklHhc950Ek14ZvPliODhEYYQKEZETPJ+m65aLjRKP676TYNIrw3+4AQ4OURihQkTkBK+n6Rq+/wajxOO67ySY9MqfNt4LB4cojFAhInJCFKfpUjDpJTQ4RGGEChGREzojOE2XgkkvocEhCiNUiIiccKwKvwfdYq3zboFJL6HBIQojVIiI7DYci+YsJgomvYQGhyiMUDEisltUp+lSMOklNDhEYYSKEZHdPJ+my2Ct826BSS91LpsKB4goTPTZXKgYEdnN62m6tKZb67xbYNJL3WvPgoNEFCaDqyfCYkRkt36vp+lad5ZR2nG9dxpMeqnvpyvgIBGFCSpERE7oXeLxNF2XrzRKO673ToNJLw3ceB4cJKIwQYWIyAk9i7xtcAO/Pt8o7bjeOw0mvTR8zy/hIBGFCSpERE7obvR4mi6jplvrvFtg0ksnnroTDhJRmKBCROQEr6fpOvHUXUZpx/XeaTDpNTRIRGGCChGRE6I6TZeCSa+hQSIKE1SIiJzQEdFpuhRMeg0NEtFYjlb8ww8ZucNVE+VQ5QQ5WPEj06HqXNlbnSe7K3N+YGddiWxdOEW+biiTTbUl8nlVoXxakf+911rr5PnmKnlq2enycONcebB2ltxfPUP+UDVd7q2cllKqeGjJ9DE9vHSGPLZitjy+co480zxfXmg/S149p0o+XH+GbG6eLFtXFZm2rymRnbEy2d06Vfa3TZGj8SLpaM7/ga54ofS1FEh/LEcG4rmmwXieDMcm/gAqlBQ8UZ6mS8Gk19AgEVkdrs2X3bWF8k1lruyoypOtZnOaJJ9XF8unlYXyYW2ZvLxsnjy16FTZUFUu91eYN5wyjHh0yTR5auUsebHlNHln3emyZXWxoUi2NZXI7nipHIwVyWGjIaqO1mLpay+BBZT8baiJDc530CBRNOkZmJ5dbanMk88Xlcvbi2fLizVT5I8Vk+QJo3Ex3IknW38sr6+YLO82z5BN7bNlV3OJ7G0qlEOtpdLXVgSLK3lPJxRAv1duMgLWeTfApNc6F02CA0XhdaCuUHbWl8jmynx5P1YhT64403grMIIUr689Q7a1TJO9sWI53D5F+tn4POf5NF2LS/WtAeu8G2DSa92tp8HBouA7YpyRaTP7tipPthtnZi//JG4cckaY4+0LG2RP2zTpaCmWwZZ8WIjJGV5P09Xddpq+BWCddwNMeq33kiVwsCi4Dtbmy6srzDc7gyFv/jwOCzLZq2+Jtw2u95KlerhhnXcDTHpt4Pqz4WBRMBxcWCqbYmfKcwvnyIaGucYhZTBSx/vnVsixs8tlOJ4LCzVlx/Npuq5fr4cX1nk3wKTXhu74ORws8p5eeq+X3e+vypE9NfmyvX6SfFFZIO+sWCCP1c82Dh+DMf7YuGKGfNoyS76Nl8nheLF0xwukL54nA7FcNsEMeD1N19CdV+nhhHXeDTDptROP3QYHi9ynVzHurcqVnVV58nVNsXxcM0meXHiKcZgYDHfjkZVz5Y+rZsnnbbNlT3OxHNV7+kbu4UPFnXKkq97jaboev00PHazzboBJP0CDRe44Up1jnpl90DBVnqubbhwOBsOf8YxxpvdO03TZ0TJVDhlnev28X+8HOmvx77hbjID13S0w6QdosMg5++sKZcvCKfJirNoYfgYjuPFG2wLZv7ZcBlryI392F+VpuhRM+gEaLLKPTmV1qGqibG6cIo/yQhBGSOOzWLl0tRTKUFshbAChFvFpuhRM+gEaLLLPey08U2NEK15vmScDrQW4GYRQ1KfpUjDpB2iwaHw+WTxTHl56ujG8DEZ047nYPDncOkmGQVMIk6hP06Vg0g86GgrhgFFq5gz6lRPkQFWO7KrMkY9qJhnDyWAwULywZrZ8s7pIjrSUSF8sV4biuaH53m5gpbcNrqOhSIcY1ne3wKQfdDWfAgeNTqbfpx3USYlrCuSLxqnyfF25MYQMBiOTeGTlHPmgebrsiZdKR7ww8Gd4/cs9nqYrZk6GDuu7W2DSD3ovbISDRj+kje2zhinydP1MY9gYDIZd8cbKKbKtfab0tATzApW+pR5P03VRow4jrO9ugUk/6P9FGxw0+s6eqjx5O1ZpDBWDwXA6PjLO7Lpbi2Ej8atej6fp6v9luw4drO9ugUk/GLrtcjhoUabfr+1YNVeeXjLfGCKGX+KuimlpubuyXO6pmm56YHH6GP4JnUWltyUYV2J6Pk3X76/QIYP13S0w6QfHH74FDlpU7anOk6eXcTZ+p+KxWINsPHu5vHr+KvlkxanyVUXeD2yuKpCtNUXmI3521E+SbxtLjbPoXNlXOVH2VkxIi75W5/BU3c250tWUkx7jtcdaS8xnrB1sLZP9LaWyL14iu5sKZdeagh/Y2TJFXruiSZ6/eNnIT8ZwIr46+1Q53uLvOTG9nqbr+MO/0aGC9d0tMOkXaNCi6NOVPGPLJl68bK18FTvTnBR6r9Fc9mlzqc41HTT+f500OkHn3NQpytTRKucLAypIdtArAIda8k2DI5MTJ/THcqTHOPvojudLVyzvewfWTpPXf3XRyKgxMolPm6ZIf6s/v6OL+jRdCib9Ag1a2OnHkAeNgqtXRL69kBeOjBaPnd8sX7TXyO7KHNlrnN3ury0wmxQaUz9CBclPBoyi3d1SJJ2xAjnWlCd71k6Xpy9vGRl9hjX0o8uOeJH5R4VfbjPoqMbvPbcYAeu6m2DSL9CghdURw26jqX1YN1kejvhjZzbUzpJnV5whb5+9SLZX5squuiLZ31AiR2pyzVsi0PgFDSpIQaKFvLNtkhyJF8u+pgLZ1D5bnms6VR5bGu3vDF9umiO7mkuMM+N8z28zQO87NxkB67qbYNIv0KCF0cH6Inl/SXSa2hOL58ur1ZPl7aoS+XhhuXxdN0l2VOWZjexQbT4co7BBBSks+tpLzO8MD6zJl32xEvm6dYZ8sqrUnCrriebofI/8SdM06Yp78/HlcBMbnIJJv0CDFiaHq3NkU22J8aOGLzbUzZaN9TPl7eXz5KvKfNlSXSDfGE1st3FGdqAmzzhj9fYLcK+hohR2/S0F5sTHHc155kNM9UKZ7c2l8l58tjy/IpyTEzy2co7sby6SoRgeE6dwmq7vwKRfHKvJhQMXBtuWhuf7tceWnS6vV5bIB3WTZXtdseyuzv/uQo6qieYTC/RjxbB8tGgXVJSiRr+r0o/xBuK55jRZerZztLlAjjTly9fts+SdNeXy+OpwPFz34/hM6XPx9gLPp+mqzdMfG9Z1N8GkX3StngUHL8j0QoiPa0uNHy+48WxztWxaNF12Go1sT2WOHDCamX6HqPRnZDMbGypKNNL09EpQ44xn0Gh8PbE86YgZfzAZZ3u7morkxStbR96FwYtHV82VbuPnQT+33byepqtrjfmVC6zrboJJv+g5rwYOXlDp1ZF/XGLOzxaoeHbdEtlZV2JeraiX1B/RszLw81H6UFGi1LTxDbbkSb+e7RlNb9t5wXwyhl5xiX4+O3k9TVfP+bX6o8K67iaY9Iv+q2Jw8IIkMbv/t7VFsmFxcL5gf2f16bK3Jj9Ql94HCSpKlJ3+9hI5Gi+SLRdWjLx7gxEHYkXmx7NO3FbQu9jjabquiuuPCOu6m2DSLwZ/cwkcvKDQs52vG6fIxpppxo/j73hp6anyda1xlrZoMvxZyF6oKNH4DRsNo7OlWDa3z5Jnm/z//d3bzTPlaMz+Jxf0LPS2wQ3+9lL98WBddxNM+sXwAzfCwQuCb2sL5UUfP7Zm48qzzGfFfVMdrBukwwIVJbJfT2uR7GsqlK/aZsrrzf69FWdr63TzbA79DNnwfJquB3+tPxas626CST9Bg+dneoGFXnzxQMNcY/f9E08snGte3LKlulB2VeXKwboCuP/kDlSUyDn6MeBAS74cjRvv/9gkebfJfzekv7W63LyVAu1/pjprvW1wRsB67jaY9BM0eH62t67Q2G3/hJ6l6bRfOsGv3nvGKxz9ARUlckfi1gS9J+9Qc4F82T5bnl89a+Q3xvvoaZ8E9zsTnKbrOzDpJ2jw/MwP8Un9ZNleP2mkqfGyfT9CRYncZ96WYDS7vnie+ZSG11oXjPwWeRtd8fGdyaH3nJuMgPXcbTDpJ2jw/GpDzQxjl72LrY2T5VB1rnnlJpuav6GiRN4yb0PQMzujuXx5+eKR3ypv4pGl06U3lt13csPNbHAJMOknaPD8RC/Q2FWdb+yqd7FtyXTz3jS0f+RPqDCR/xxs9W5ShldXTs1qLsuhNd7XAiNgPXcbTPoJGjy/OFSVI+8umWPspvvx9MK55seQaL/I/1BhIn/S7+z2xL1pdE+1nCFH4kUZ3Svn9TRdx6om6K7Deu42mPSTzuXleBA9drDiR/Ju9SRjF92N9+qnyq764u+nxaJgQoWJ/K2vtVB2tU2Tt9e6O4PKQ8tmmvNzon1CvJ6mq3OFeYUqrOdug0k/6Tm7Ag6il/Q7rk9q3H0KwEeLZsieas7CHxaoMFEw6MNgD7eUyOa4uxM4dMTSu/DE82m61lfq7sJ67jaY9JO+K1bBQfTSnlr3bgV4r26K7DK2x+/YwgUVJgoO/chwSGdNiRfIh83uTeiQzi0EXk/T1fez1bqrsJ67DSb9ZPCmC+Egeul9Fz6afKOhXHZXfTdLP6+IDB9UmCh4zBvIjUa3L+7O1xUvryyH+5HM82m6br5IdxXWc7fBpJ8M33cdHESv6NO3nY7NNUXmBM1o+xQOqDBRcCUa3WfnOz/h85aW1E2uu8Hb2jH8h+t1N2E9dxtM+smJp++Gg+iFQ7X58mCjs4+70VlH0LYpXFBhonDQJ5Y7HfqcPLRt1VXnbYM78cw9uouwnrsNJv0GDaLb9MnUzzZVGbvjTDy5cK7srS+G26bwQYWJwmOgrUjebHJu4of3m8rN5+KhbXOarj+DSb9Bg+gm/Q7svRrn7oN5f9EMfiQZMagwUbj0t+TLh3Hn5rjc31QA749D7zc3GQHruBdg0m/QILppb1WOsRv2x+PV02RbdYEcrWJzixprUaJw6ovny6bVzlyA8t7KMnNqseTtcZquH4JJv0GD6Kbn6+3/qGFD/RzzsTW8QjKakosShZs2oW2rnbk47XDzD8/iOE3XD8Gk36BBdIveg+ZE6JWSesM42iaFX3IBpPDT6b4+WTd/5LffvviyqewHTwMfXMUGlwwm/aZzyWQ4kG74ZOU8YxfsjbdrJ3NGkohLLn4UDXpj+Jtr7H/Qam9byffbGFjh8TRdS6foLsE67gWY9Jvu9jPgYDpNm9Czdfa/IXfVFcHtUXQkFz6KFrtDP6ZMrLtvmbcNrnvtmbpLsI57ASb9pu+yZXAwnbbbaER2xycL/Tl5NLkrueBRtBxrtfeik61tM75ft+fTdP10ue4SrONegEm/GbjhHDiYTttSW2xs3t44yDklyZBc8Ch6nm+aO1IR7An9+FPX6/U0XQO/Ok93B9ZxL8Ck3wzddQ0cTKd9VmXvGdwXdaVwOxQ91oJH0fJNs71ncQMjN317Pk3X3b/Q3YF13Asw6TcnnrgdDqaT9PL9TyoKjM3bF/tr8uG2KHqsBY+i5YjNH1P2x75br+fTdD15h+4OrONegEk/QoPpJL2E/8PaMmPT9oU+6RZti6LHWvAoWnQuSTvjyLmzzPV21uD3m1uMgPXbKzDpR2gwnXS4aqK80mTvzOBoOxRN1oJH0dIbyx2pCvbE3nPmmOs9VoXfb24xAtZvr8CkH6HBdJI2uOdXmpe82hZoOxRN1oJH0dIXt/cM7tu1MzhNFwCTfoQG00na4P5oc4PjzCWUgIoeRYfdH1FqgxtawwZnBZN+hAbTSU40uIPVuXBbFD2o6FF0HG2x9xYkbXCcputkMOlHHY3uPivNiQb3WU0J3BZFDyp6FB3fNpeMVAV7Qhuc19N0dSwyrwyF9dsrMOlH3fH5cFCd4kSD0zhS7f3HCOQ9VPQoOt6KzxmpCPaENrh+r6fpalmguwLrt1dg0o96L14EB9UpTjW4bbWch5LY4KKs3+YLTDS0wfUu8fY2pN6fLNZdgfXbKzDpR/3XroWD6hSnGtxTNeVyhM+AizxU+CgatsTMGfdtDW1wPYs8nqbrunW6K7B+ewUm/Wjo9p/BQXWKUw1OY1PtJLhNig5U+Cjc9Llte9fPHqkC9oY2OK+n6Rq64+e6K7B+ewUm/ej4I7fCQXWKkw1OY3t1gRwB26VoQAWQwmuwtUC2xu0/c0uENjivp+k6/tjvdFdg/fYKTPoVGlSnON3gNHY0lLLJRRQqghROva1F8snZ5gUYjoU2OE7TdTKY9Cs0qE5xo8FpbGsoMyd2RvtA4YUKIYVPX0uBfLh2/shvu3OhDa6D03SdBCb9Cg2qU9xqcBpfVfPKyqhBxZDCRZ/R9ll8+shvubOxs30GfJ+5yQhYt70Ek36FBtUpbjY4jS+rCuWosU20LxQ+qCBSuOxsnTby2+18fNPGBofApF+hQXWK2w1O483G6fy4MiJQQaTw2N8+deS32p3Y0cIGh8CkX3XUuffAUC8anMZrC2fJvuo8TswccqgoUrANxvOkK5YvL66z9zFb6cT2mLcNrqPefDg0rNtegkm/6mqaAwfXCV41uER8WF0iu6py5SgfkhpKqEBS8AzHJpozkxxoLpQ3YvZOv5VJbG/ytsF1NZ+iuwHrtpdg0q96L6iHg+sErxtcIl6vnSI7awrhPlJwoWJJwdPVUihvxeeO/LZ6F9vWeNvgei9s0N2AddtLMOlX/Ve3wMF1gl8aXCLeqymVg5W8CCUsULGk4OiO58uXa8pGfju9jy2rpsP3mVv6f9GquwHrtpdg0q8Gb70MDq4T/NbgNO6tniFfVxXK4Up+bBl0qGiS/3XGCuTd5hkjv5H+iS0rvG1wQ7+7XHcD1m0vwaRfHd9wExxcJ/ixwSXisYY5sr2mkBeiBBgqnuRP+j3bQEu+fBFz77L/TGPzcm8b3PGHbtHdgHXbSzDpZ2hwneDnBpcc+xvcfRAs2QMVUvKnjrbSkd82/8bXS8vh+8wtRsB67TWY9DM0uE4ISoPTeGjhqfJ1TbEcqMqRI5UTeC9dAKBCSt7TGf/7Y/odW4F8e/Yceabp1JHfMn/HV4vZ4BCY9DM0uE4IUoNLjo31M2VTVYH5tIJ9lRPNhod+PvIWKq7kDf0Isqel0LzU//OmKfLUau+visw0vlzEBofApJ+hwXVCUBucNd6unypba4vlYE0e/DnJG6jQknuG47nS2Voiu1omyxdGUwt6sMFhMOlnaHCdEJYGlxw6S8rm2hLzZ0M/M7kHFV1ynp6pfdM+Q16OmTcmhybY4DCY9LNjLhXnMDa45HhiZYVsXTJdDlfnwJ+fnIWKLzmjv71EDsSK5IULl4y8+8MXnja4mhzdBVivvQaTfta10p079sPe4JLjlaYK2dVYymnBXIQKMdlnIJ4nR1pK5Klm55/F5ofwssF1rZ6luwDrtddg0s96zqmCg2y3KDW45HgmXi97lkyFY0L2QUWZxq+rvVSeW18z8m6OTnjZ4HrONccb1muvwaSf9V3ZBAfZbk40uB21RSP/Kxjx5KoK+WLhNNldUyAHKibIwcoJcqQ6x7zBnLcijA8qzjQ2vYx/KKaX8uea02UdNs7SPl43X55bNXPkXRuMOHp2+cj/sie8bHD9P2/WXYD12msw6WeDt1wMB9luTjQ4Xe+3RrN4fGEw7q1B8fTy0+Xt2inyVW2J7KgukF2VObK/KkcO1xWcNIY0OlS86Yd09hC9H+1YS5F5Cf+O9hnyYXO5vLrC3Wet2Rmbf1Ijwy150hfPG8nYE142uMHf/ER3AdZrr8Gknw3/4QY4yHZzqsGpQ9W58kltqTxcbe9fcV7GH5tr5P2qYtlUXyY7agplfy2fUJ4KKuhR1tdaaDayQ80FsnPdLPmieaq81jJv5N0V/PioaZo5j6Xec2f+vCFqcMMP3Ki7AOu112DSz/608V44yHZzssEl7K+cKJ8tnCZPLgzejaXpxENGA39hyTx5q7lCtlbmybdG0ztsNHfrOESRtcBHSd+6MjnaXiZ7movls/a58uKa2SPvmPDFW6vLZV+8xLzo5QdjEKIGZwSs1X4Ak36HBtlubjQ4pWc5+hHf5poieaTBuwcmuh2vt9bJVuNM75vKXNlXXxS52xWSi12Yda8tlcPGWdmO9afIi2dXjRz98MerrQtk97qZ5neFaFzY4NwBk36HBtlubjW4BL1wY5/R6D6qmTTy6mjGq/Ea2d0wSQ7pBS3GMQjro4FQ0QsqnRVkcMTW88+QZ9ZVjxzN6MXrzbPlQNtk6W8pMMcFjZdig3MHTPodGmS7ud3gEo4Y9Izu06Xh/dgm09hQM0OeX3mGfNxaJQcaikNxBScqekGx/6LT5f0LauSF+Hx5crn/no3mRTzTeqYcatGPIkdvasnY4NwBk36HBtluXjW4ZIcrfiTbFgX3ijG34smacnlp4Wx5e/UZstUYL72yc7dhT1Wu7KvJl4PVueYZYTI9vuaTF4xx1obpdtNERc9uekGD0svqh1ryjDOsPBmI5X6vzzjL6G4pkq54oXkBREdzvhxpnSRbz5kn77SeKq+smi4vLOf7b6z45vzTzDFGx2A0bHDugEm/Q4NsNz80uIRD1Tny9rLg3lrgl7inYprpwbrZ8tji+fLcwjnySmWpvFZRLK9XTpI3q8vkvYZp8tHimfKJcQa9afkc2VZbZH5PmGxnVZ58W50vu2oKvre7tvAH9tQVmc1VLyTaXzHhJD3Nud/rjuVJp9FoOttKpKO1+Af0ykJ11GhCR4wmdNhoQj9kbHvtDNlmNKXN606RL9tny6fN5fLR6inywcoyeX9Fqby9plxeaD1dNsYXyOOr5srDS2fIhiXTR0aFkW3o8RhsK4QNbCxscO6ASb/rXOb8TBt+anBKzza0YH5UWyqPLgzXRLFhjvsqpsofKqed5JEl5d9jBCfeXbtADrSWZXzGZhWWBte53HzKOazTfgCTfte97iw42HbyW4NL0I/S9NE3O40ziE/qyuSROnMeOAaD4VD8cfVs2dI+UzpaimWwJe/7e9nGIywNrufsCt08rNN+AJN+1/fTFXCw7eTXBpdMJ0c2bzGoLpSXa/ldCYNhV7ywepZ83j5XDscKpTeeb36HiRpVtsLS4PquWKWbh3XaD2DS7wZuPB8Otp2C0OAS9EIJnSdyd12RfFlTYvxy/nhkiwwGI5P4tG2ueTVk30hTs+NsDQlLgxu46QLdPKzTfgCTfjd8zy/hYNspSA0uIXE14CFj3w8YZ3Zb6kpGtsxgMFKFTtrc21Jg+5naaMLS4IbvvU43D+u0H8Ck35146k442HYKYoND9FaDvVW58sdFvDCFwUiOvWunS7/RaPQJBagJOSksDe7E03fr5mGd9gOYDAI02HYKS4NLpo+62W00u9fWLhzZIwYjWvHRugXS1TbJk6aWLCwNzghYn/0CJoMADbadwtjgkunPt6VxsrxeX27eF8ZghDFeWj1LtsSnyqFYkfS3l8Bm4wU2OHfAZBCgwbZT2Btcgn5np1diflNdIJtqiuWj6hJ5chFvKmcEM15omiubWmbIvuYi6Wotdu07tUyxwbkDJoMADbadotLgrPSKTG14u6ryzGe7vV47RR5dFJ7ncjHCFa82zZZtzaVysLlQOuLOXNLvBDY4d8BkEKDBtlNUG1wynfhZZ/PfX51rzu24deEU+bhmkjzbMHPkJ2Iw3I232hfI1jUlciheLF3xAulvMRpa7Lt5N1Ej8Ss2OHfAZBB0LiqFA24XNjhMz/B0smJ9tI+e5X21hLPJM5yLN86pkv2tZWYz07OzxEwiQWtoVmFocJ1LynTTsD77BUwGQXfraXDQ7cIGl4GqCebZnk4htq2hTJ5cHZ0HWzLsja/PmS/HmvOlt7XIfJ6a11c7OiUMDa67/QzdNKzPfgGTQdB7yRI46HZhgxu/fXWFsr0qX95bv2hkBBiMH8bmtXPkWEuxDLTkB/6sLBNhaHB9ly7TTcP67BcwGQQD158NB90ubHD208f+fFtbKFuNpvfhktnyfN10ebrS/JiDEeLQ58p92DJbdsQny/74JOlaPw0W/SgJQ4MbuOEc3TSsz34Bk0EwdMdVcNDtwgbnngM1ebKjKk82VxXI59XF8nFloXxYVSwbV5wh91fzOz6/x6PLZ8kbrfNkU/MU2do0Sb41GtmB5kI5ZOhuK4nUmVm6wtDghu66WjcN67NfwGQQnHjsNjjodmGD80ZiPk1zAmmj8e2tnGjOvrKjOl+2VhpNsLpQ3lt2irzSMEOerSiVp2rM51ExHIwX1syWV1dMkfdb5sjW9lmyp7lIDsSKzEmJu1oKpSuWJ/0tBd99ZxaCC0DcEIYGd+KJ23XTsD77BUwGBRp0u7DB+Uty4ztiHBs9Pno150Hjv3tr8mWX0QS/1VsZ6kvl84bvbmd4r6JQ3qmdLE+v4tMVRotXLlosn6+ZLJtWFsvmpjLZ2TrVaF7FcrS5wLyvTM/AdGb9gViuDBpFechoYlqg2cTGJwwNzghYl/0EJoMCDbpd2OCCS5ug2Qi1IVZNkENVOXKgOlf2GWeDeysmfHdWWFMgO2sKZUdVvmyryJWtPzaao+GLhdPk8YtaR45Y8OKpq8+V937RLvvW5Mv+pgLzo8KDxtmWzpZ/rHWSdDXnSrdxxtVjNK2+1kIZMOiVikN65jVSfNm8nMcG5w6YDAo06HZhg4sm8yzRvO3hO/o0hmT6KKL9DcWyt3GS7GkokV11ReaFM/odotpemZuWg0bzGY1+d6UOG43pSLzYbEwdbaXStXay9K0tNc+iBmM5P6C5hOMt351lkX+xwbkDJoMCDbpd2ODISajoUXSwwbkDJoMCDbpd2ODISajoUXSwwbkDJoOio6EQDrwd2ODISajoUXQEvcF1NBbrZmFd9hOYDIqu2Klw8O3ABkdOQkWPoiPoDa47bj5hBNZlP4HJoOi9sBEOvh3Y4MhJqOhRdAS9wfVebE6/B+uyn8BkUPT/og0Ovh3Y4MhJqOhRdAS9wfVfu1Y3C+uyn8BkUAzddjkcfDuwwZGTUNGj6Ah6gxu6/We6WViX/QQmg+L4w7+Bg28HNjhyEip6FB1Bb3DHH7lVNwvrsp/AZJCgwbcDGxw5CRU9io6gNzgjYD32G5gMEjT4dmCDIyehokfRwQbnDpgMEjT4dmCDIyehokfRwQbnDpgMEjT4dmCDIyehokfRwQbnDpgMEjT4dmCDIyehokfRwQbnDpgMko6aXHgAxosNjpyEih5FR5AbXEddvm4S1mO/gckg6Vo9Cx6E8WKDIyehokfREeQG19U0RzcJ67HfwGSQ9JxXCw/CeLHBkZNQ0aPoCHKD672gXjcJ67HfwGSQ9F8VgwdhvNjgyEmo6FF0BLnB9V/dopuE9dhvYDJIBn9zCTwI48UGR05CRY+iI8gNbvDWy3STsB77DUwGyfADN8KDMF5scOQkVPQoOoLc4I5vuEk3Ceux38Bk0KCDMF5scOQkVPQoOoLc4IyAddiPYDJo0EEYLzY4chIqehQdbHDugMmgQQdhvNjgyEmo6FF0sMG5AyaDBh2E8WKDIyehokfRwQbnDpgMGnQQxosNjpyEih5FBxucO2AyaNBBGC82OHISKnoUHYFtcNUTdXOwDvsRTAZN5wr7Dy4bHDkJFT2KjqA2uK6VM3RzsA77EUwGTc/ZFfBgjAcbHDkJFT2KjqA2uJ5zqnRzsA77EUwGTd8Vq+HBGA82OHISKnoUHUFtcH1XNunmYB32I5gMmsGbLoQHYzzY4MhJqOhRdAS1wQ3ecrFuDtZhP4LJoBm+7zp4MMaDDY6chIoeRUdQG9zw/Tfo5mAd9iOYDJoTz9wND8Z4sMGRk1DRo+gIaoP708b7dHOwDvsRTAYROhjjwQZHTkJFj6IjqA3OCFh//QomgwgdjPFggyMnoaJH0cEG5w6YDCJ0MMaDDY6chIoeRQcbnDtgMojQwRgPNjhyEip6FB1scO6AySBCB2M82ODISajoUXSwwbkDJoOoc8lkeECyxQZHTkJFj6IjiA2uc9lU3RSsv34Fk0HU3X4GPCjZYoMjJ6GiR9HRG8sdqQr2hBsNrmfdWbopWH/9CiaDqO+yZfCgZMuJBne4Jg9ui6IHFT2Kjs7WkpGqYE+40eD6Ll+pm4L1169gMogGfnUuPCjZcqLB7a7Khdui6EFFj6Jjb3PxSFWwJ9xocAM3nq+bgvXXr2AyiIbuugYelGw50eBea66E26LoQUWPomNL3Pw+y7Zwo8EN3/NL3RSsv34Fk0F04onb4UHJlhMNTuMgP6YkAyp6FB0bz180UhHsCTca3Imn7tRNwfrrVzAZVOigZMupBvdh4zQ5CrZH0YKKHoXfsOFg2+SRamBfuNHgjIB1189gMqjQQcmWUw1OY3tlHptcxKHiR+G3d930kSpgb7DBYTAZVOigZMvJBvd4w2zZXVMAt0vRgIofhduBdeUjFcD+YIPDYDKo0EHJlpMNTuONmslysAJvm8IPFUAKr85Y/shvvjPBBofBZFChg5ItpxucxicVBXIEbJvCDxVBCqcuo7k9tnzmyG+9M8EGh8FkUHUsLIYHJhtuNDiNj9fVy9GqCXAfKLyGYxNhMaRw6Yvlyosrpo38tjsXTje4zsWluhlYd/0MJoOqOz4fHpxsuNXgNN5aPg/uA4UXG1z4DbbkyRtrzxj5LXc2nG5w3a2n6WZg3fUzmAyq3osXwYOTDTcbnMZTtdPNC0/4kWU0sMGFl94K0NlSLG83zRj57XY+nG5wvZcs0c3AuutnMBlUA9euhQcnG243uER8WFUsByonytGKf4D7ReHABhc+ekyPxovks9VlI7/N7oXTDW7g+vW6GVh3/Qwmg2ro9ivhwcmGVw1O49GaGfJV3STjbI7fzYUVG1x46BlbV0uhfNFk/w3c6YbTDW7ozqt0M7Du+hlMBtXxR2+FBycbXja4RDzfMFO+5f1yoTTUxAYXFvvi9j4ZIJtwusGdePw23Qysu34Gk0GGDk42/NDgEvHaqjPlkLE/aD8pmAZXs8EF3WA8V7a0OjMzSabhdIMzAtZbv4PJIEMHJxt+anCJ2FFbxO/mQmJwFRtckB08Z9bIb6U/gg0Og8kgQwcnG35scBpvN84wzuZy4D5TcPAMLpgOr3fvyshMgg0Og8kgQwcnG35tcIl4qXGWbK0pkv2VE+WIsa88swsWnsEFw1BLnvTE82VPbNLIb54/gw0Og8kgQwcnG35vcMnxSsMM2VxbLPuMMzs+pSAY2OD8a6AlX461TpI9zcXyTtu8kd8yfwcbHAaTQdZRZ7w5wQHKVJAaXCIerJstry+cKdtqCnmLgc/xI0p/0ds2eloKZEd8irwamzvyGxWccLLBdTQU6SZgvfU7mAyyrqY58CBlKogNLjnuriyX1xbPkT1VuWx2PsQzOP/oapskX8emjPzmBDOcbHBdsVN1E7De+h1MBlnvBfXwIGUq6A0uOTY2zpYdPKvzFTY4b/XHcmXH+aeP/IYEP5xscL0XNeomYL31O5gMsv5rWuBBylSYGlxyvL/qNDnGpxd4jh9ReqOrpUhebwnG92qZhJMNrv+X7boJWG/9DiaDbPDWy+BBylRYG1xyfNY4VQ7V2vOdJWWGZ3Du2npRxci7PpzhZIMbuu0K3QSst34Hk0F2fMPN8CBlKgoNLjneWjhTvqoukp0Nk8zJng9WTuBz6hyEijBlZzieK0OGAUNPLE8Ox4pkW3yqvLXGH7OMuBFONrjjD/9GNwHrrd/BZNChg5QpJxrcw4uC89HIE41z5K2GctlUWyLf1BbJnsocOViTB8eKMocKNaWvL54nHfEi2Rcrli3r5sibTTPl2TVzRt69/o9nVtt7paaTDc4IWGeDACaDDh2kTDnR4A5V58oHte4/SsOueHzxPHm1qlQ+aZgqO+uK5UCtPr+OZ3nZQEWbMD1D64oXytHmAtl27gJ5b800eW7VzJF3ZbDi2TVzZee6WebN43YGGxwGk0GHDlKmnGhwul5tCN9U55szkYQhHmmYI++uOVO+Nc7w9lXnydFqTiOWDlTI6c962oplf0upvNsyR55cOXvk3RbceKJpgeyMlZr32uk9d3oGamewwWEwGXToIGXKqQandFotPZvbWj9JXqkP3/cEz66ukC3LZppjyCs2MVTUo0iLvT5PrW9dmXx9ab080zxfHlw0beSdFI7YFC83nxc3FPvzz80G5w6YDDp0kDLlZINL0Gm1DhlndLuMs58XGvw5iasd8VjlFHnBOGPdsXQ6G96I5CIfRYcunCdvtc2Xx9eE75L9RDwfX2B+T6iP1bE+4JYNzh0wGXTHqsf/7DQ3GlyyI9U58sGy4E0RlG3ozeevVJbKZ6vmy94lU+GYhFlysQuzvrZi+ersU+W9VcGeKSSTeKq9UjpjBWZjQ2OigtLgOmrN/YR1NghgMui6Vs6ABysTbje4hD01BfLEwlNGlohmvFA9Rd5onCHvLTtFtlTmyfaaQtldXyL7a/LkgHHGqw9/NRn/+3CFcawMQbvYBRU9P0lcej8Yy/mO8b8HjKKsM4D0NedIZ3upHGmfLAfiJbKrqUi+ajWOV9N0ebl1wchRjGZ8u36OOW5oTJMFpcF1rTG//4R1NghgMuh6zqmGBysTXjW4hN1Go3utKdw3p443nm6YLS8YZ4Gv1k2Td5fOlc/rSuVroyFu1qZYWyQ760qMPxjyZV/lRNP+qhw5UJ0rh4xGqY8YQuPuFlT03NDfWii98XzzfrHu5lzTsfYyOWw0q/1Gs9rbXCS74mXyVfsc+ahltry1aqq8vrxMXllVPjLqDBQ7W6bIQFsRHHMkKA2u57xaXT2ss0EAk0HXd2UTPFiZ8LrBJextnCSfVxXKI7XBvCzaD/GHqnK5v3KabKiZIY81zpWnF8+Tl+rK5dWKYnmtskTeqp0sHy6eKR8vnS2bVs2TrYumya6qPPO70YTdVbmytzpP9hoN80BdoRysL5LDNblZP4cPFb3RDLXkS397iXllYU9rkXS3FJmXzXfE8qWjWeWN/Ddfdp83T7afd5psXneKfN4yQz5aPUXeX1km762YJO+unCwvtp0hG5tOkceXz5BHl5SbGNnFc/EFsjU22fyDAR23VILS4PqviunqYZ0NApgMusFbLoYHKxN+aXBKi6g+621T4xT5Y110Zmfwe2xoPEUeq5wqj1VMztizS6em7akQXCYfltDL/b9om22c7U6SXuNsGDWvdASlwQ3+9lJdPayzQQCTQTd8/w3wYGXCTw0uQafO0im09J6zD+unyuNNNSNrZjAYTsZrzbNld+sU8+x50GhOqGllIigN7viDv9bVwzobBDAZdH/aeB88WJnwY4NL0DO6I8Z/D9Tmy47qfNm47LSRLTAYDDtj6+piOdxSIv1GQ9L79VCzykZQGpwRsMYGBUyGATpYmfBzg0tmNjtjX/UjzA9WhPeeIgbDrXghvkAOtpaZTch6/5pd2ODcAZNhgA5WJoLS4KwOG2d1O2sKZeMl5jOcGAxGmvHaOVXmFaV2nqmNhg3OHTAZBuhgZSKoDS6ZXhL/Xv3Uka0zGAxrbFxbKbvipdKzrgw2IqewwbkDJsMAHaxMhKHBJei8l9urC+TDusnyUgjnvmQwMokPW2bLzpbJ5i0XqPm4gQ3OHTAZBuhgZSJMDS7B/L6uOse8+XlrXYm8vXCGPNQY7VlTGOGPF2Onyo41xeaz43TSYzuughwvNjh3wGQYdC4b3/yGYWxwVvoz7jPO7r6pypPPFk03n/XGYAQ9nonNly+ap5ozs3TFC4xmkm9+r+bUBSPZCEKD61xhftoD62tQwGQY9Kw7Cx60dEWhwSUkbjvQOR33GWd331bmyhcLp8nDq6tG9pzB8Hd8taZUdsdL5VhzvjmzSDrzQXopCA2uZ32lrhrW16CAyTDou3wlPGjpilKDQxKP8tlvnOHtrCmQzxeH93E+jGDG9vWnmB859rd8N1WWn87QxhKEBtf3s9W6alhfgwImw2DgxvPhQUtX1BvcaA5V5cjmhjJ5fsmpIz8Vg+FObI5Nkf3tU2HDCJogNLjBmy/SVcP6GhQwGQbD9/wSHrR0scGlZ9eiKfJZdbG80mx+nMFg2BKPNy2QT1pmyZ7WydLr4dWOTglCgxu+73pdNayvQQGTYXDiqTvhQUsXG1zm9GPNffVFsrm2RD6unyyvV5fJCzXRedAlI7t4s2mmfB6fLjtipXJg7TTpc/meNC8EocGdeOYeXTWsr0EBk2GBDlq62ODGRy9c0Yan04jtqS2UHZW5sqW2WD6vLpK3Fs+WpxadIg9UThsZGUbY45nVc+XttafL181T5Bujke1umypHYgXSbZyd+eGyfbcFocEZAetqkMBkWKCDli42OGdo09OxPagPH62cKLvrimRLdYF8YTS+d+unyctVZfJcLZ9RFtR4beU0+aB5umxae4rsbio07z3riBeZVzbqxSB6daN5yb6l4EcNG5w7YDIs0EFLFxucO8wzvcTZnkFvVdCrN/fWFcrOqjzZXpEjX1cXmg99fb+Rjc8P8dxlTbKpdabsaJ4ku1qmmPebHY0XSndLoQzEcs0mZjay2MTvoSKfkRZ/X/afKTY4d8BkWKCDli42OP9INMFjVRPkkHFc9Mxvf8UE8yb17fWlZgP8sjJfnj9v1chIM8YbX7TNkZ1rimVPbJIcbJ8qXa3F0tOcaxTmfBk0zsQSN07b1sDGwgaXMtjgMJgMC3TQ0sUGF0zfnxEaDtXkyTeLp8kXDVPkw8oi+aCy0BT1ePPCBvlqzSTZFp8iu9fNlEMXzpeB9mL3mlU22OBSBhscBpNh0bmoFB64dLDBRcv+JVNl25r5smnZbPmoYaq8U1Uib1cWf29j20J5Mt4wciS9jafW1ciz5zbI6+sr5MM1U+XTVZNMn68pk82t0+Wb9XPl4PmnSl97iX8bVsT5vcF1LjWvfoZ1NUhgMiy6W0+DBy8dbHBkl6NVE2T/ojLZs2qO7F4523TsglOl89yZsPili80ruPze4LrXmrUP1tUggcmw6L1kCTx46WCDIyehokfR4fcG13fZcl0trKtBApNhMXD9enjw0sEGR05CRY+iw+8NbuBX5+pqYV0NEpgMi6E7r4IHLx1scOQkVPQoOvze4Ibv/oWuFtbVIIHJsDjx2G3w4KWDDY6chIoeRYffG9yJJ+/Q1cK6GiQwGSbo4KWDDY6chIoeRYffG5wRsJ4GDUyGCTp46WCDIyehokfRwQbnDpgME3Tw0sEGR05CRY+igw3OHTAZJujgpYMNjpyEih5FBxucO2AyTNDBSwcbHDkJFT2KDjY4d8BkmHQ0FMIDOBY2OHISKnoUHX5ucB0LS3SVsJ4GDUyGSVfsVHgQx8IGR05CRY+iw88Nrrtlga4S1tOggckw6b2oER7EsbDBkZNQ0aPo8HOD6/3JYl0lrKdBA5Nh0v+LNngQx8IGR05CRY+iw88NbuC6dbpKWE+DBibDZOi2K+BBHAsbHDkJFT2KDj83uKE7fq6rhPU0aGAyTI4//Bt4EMfCBkdOQkWPosPPDe74o7/TVcJ6GjQwGTboII6FDY6chIoeRYefG5wRsI4GEUyGDTqIY2GDIyehokfRwQbnDpgMG3QQx8IGR05CRY+igw3OHTAZNuggjoUNjpyEih5FBxucO2AybNBBHAsbHDkJFT2KDjY4d8Bk2HTU5MIDmQobHDkJFT2KDr82uI76Al0drKNBBJNh07V6FjyYqbDBkZNQ0aPo8GuD62o+RVcH62gQwWTY9JxXCw9mKmxw5CRU9Cg6/Nrgei9s0NXBOhpEMBk2/VfF4MFMhQ2OnISKHkWHXxtc/zWtujpYR4MIJsNm8LeXwIOZChscOQkVPYoOvza4wd/9VFcH62gQwWTYHH/g1/BgpsIGR05CRY+iw68N7vhDt+jqYB0NIpgMI3QwU2GDIyehokfR4dcGZwSsn0EFk2GEDmYqbHDkJFT0KDrY4NwBk2GEDmYqbHDkJFT0KDrY4NwBk2GEDmYqbHDkJFT0KDrY4NwBk2GEDmYqbHDkJFT0KDrY4NwBk2GEDmYqbHDkJFT0KDp82eBqcnRVsH4GFUyGUeeKzN4AbHDkJFT0KDr82OC6Vs3UVcH6GVQwGUY96yvgQR0NGxw5CRU9ig4/Nriec2t0VbB+BhVMhlHfFavhQR0NGxw5CRU9ig4/Nrj+nzfrqmD9DCqYDKPBmy6EB3U02uCeX3WWsah9gbZD0YSKHkWH3Q3uq8XT4fssE4O/+YmuCtbPoILJMBq+7zp4UEejDe6VVTyDI2egokfR0RvLHakK9sTWZZk/Esxq+IFf6apg/QwqmAyjE8/cAw/qaI4aPqiZZCxqX6DtUDShokfRYXeD29tQAt9nmTAC1s4gg8mwQgd1NEcr/kE+qTCfbmtbHKgrhNui6EFFj6KjI140UhXsiUOVE+D7LBNGwLoZZDAZVuigpvJpZaGxmH2xoyofboeiBxU9io49zcUjVcGeYIPDYDKs0EFNZUtdibGYvXGoaiLcFkULKnoUHe83zxipCPbEETY4CCbDCh3UVHZV2Xulk8am2hLz+z20PYoOVPQoGo612vvd/ie1peZXKuh9lgkjYN0MMpgMK3RQUzlUlSNPNM4xFrUv7q2eIXuqcuH2KDqG1xbD4kfh1m/z7QEaO2rs+W7fCFg3gwwmw6pzyWR4YFP5qG6ysai98Vp9uRzkR5WRNgyKH4XbUGuBPLeucqQK2BMPL14gB6vH/wdz5/JpujpYN4MMJsOqu/0MeHBT0bMtJ+Kbqjy4PYoGVAAp3L5ca++nQRrvLZwhR6vG//1bz9kVujpYN4MMJsOq77Jl8OCmop9tP18z1Vjc3nisaqrsr+RZXFShAkjhtavZ/gvWNLbVjf/+N9V3xSpdHaybQQaTYTXwq3PhwR3LHgcuNtF4tmqKHKgY/19fFDyoCFL46EfRe2L2XlSSiI2Ns237qmPg1xfoKmHdDDKYDKuhu66BBzcdr9SZn1HbHg9WTpPNS2fy9oGIQcWQwmUgnitb4s7UDY3NNl6RPXzvtbpKWDeDDCbD6sQTt8ODmw69kdLJeKnhu6sreQtBNKCCSOHR01YsHzaXj/x22x8v1k83zt5y4HsrGyeevltXC+tmkMFkmKGDm65dNfZO3WWNDbWzZFt1AZtcBKCiSOGwp9X+K6+tsbOm0JZ73xKMgPUy6GAyzNDBzYR+qet0fFpXZj7NAG2fwgEVRgo2fQTOG82zRn6LnYtPakpsmbkkmRGwXgYdTIYZOriZ0LOrd2ud/wvt9UWzbJlfjvwJFUgKrn1xZy4kscaTTTVy2IG6YASsl0EHk2GGDm6m9lblGKtyJ75cPR/uAwUbKpIUPEPxXPly7dyR31bnw46buhEjYL0MOpgMM3RwM6WffX9RmW+szp14oXqK7KnOkyNgXyiYULGkYBiOTZShWI70xPLk9ebZI7+lzscBBz/RMQLWy6CDyTDrWGjPjZGHa/Pl5WXzjFW6F8/Xz5At1YXmDeJ2fsFM7kOFk/xt0Dhb64rly9Y1JfLiyukjv5XuxLe1zj1LsnNJmW4C1sugg8kw626x7yO/fTX58sLiU4zVuhsbambIu5VFsrmhzLGPLMhZqICSPw3E82RPvFTeWe3cPW2pYkvjZFum4xpNd9vpuhlYL4MOJsOs9+JF8CBn60BNnry/zL3P4K3xaONc+aKmxHzyAdo/8idUSMlfulsKZXdziTyzwt5nt2USW+tLHbmoJFnfpct0U7BeBh1MhtnAtWvhQR6Pw9U58vVi527qTDc21ZdxRpSAQAWVvKdTa/XE8+XNVd6crSXH1vpJtt8OgAzccI5uDtbLoIPJMBu6/Up4kMdLP0LYW50nj9S4+9k8ipdXnyWHavPhfpI/oOJKHmrJlUPryuXZtrNGfou8DX3YshvNTQ3ddbVuEtbLoIPJMDv+6K3wINtFr3b0S2xsmC3baovgfpK3YJElT3S1l8rza9y7GnKs2OfyRWQnnvi9bhbWy6CDybBDB9ku+sbUv778Fp/UlZlzXR6u+JF5uwGvwvQWKrTkLL28Xz+CHIjlysHWMvmiacrIb4c/4tPqEjlS7f536UbAOhkGMBl26CDbbU9dkTzeYP8DDscbD1WXy4uNM+WDmkmyvbrQ/GtRv7fj/JfuQgWY7GPeqxbPlf5YjnTH8+VI6yT5OjZFXmv23++kxueNUx29UjIVI2CdDAOYDDt0kJ2gZ0qf1Ds/rdd4Q58r9W5ViXzVOEV2V+fJgepc1z7/jypUlLPSkovzEdXXViSH4sWyNTZZ3l8zTV5a4f3FIqni2aZ58o3HE6wbAetkGMBk2KGD7BT9KHC3cTb3weKZxqaDEQ/Wz5GXGmfJVwunyr7aAjY7B6DinJUINzjz48aWfOmKF8jm9fPlzZVT5cmYeU9XIOLz1lnSuabI809PjIB1MgxgMuzQQXaafra+vaZQHllymrELwYqHamfKm2vOlAONk/jdnU1Qwc5KSx7Oh9iw8TMfOHuGvNW+YOQdGqx4pWmOHGgtk0Hj5xhY4f1tPUbAOhkGMBl2HXXeXEKvf6ntrcmXNxc5/0gNJ+OxVZXy6eIZcqDOuemDwg4V7qxEpMEdPO8U+ahltry23JxWKrDx7doZ0h/PM88+9efqX+Ztg+toLNbdgnUyDGAy7Lqa5sKD7RZ91pveTvBsQ7AbXSKeWzhH3qmbIttXzOYZXpqsBTxrIf2IsuPsafLJ2lNH3mHBj8/OOd2cGSXR2BJ6l3j78X933JxPF9bJMIDJsOu9oB4ebLcd0VsK6sy/oEIXHzZMlc2LpplnrAcrJ3x3pWbVBLMBsglG8wzOvEw/iU5e3BvPl8PtU+Sb+GT5LO79JAlOxIG2KUZjw3+I9CzytsHp1IVGwDoZBjAZdv3XtMCD7aVPFno/1ZfT8czy0+WNhunyUV2ZfF5VaE4Wvau2UPZWTpR9VTly0KAPeT1iNEOFxiksULHLio8anF6Wr01rQBtXS4F5eX5nc555VeOueKlsbSo1mtgMea+pXN4M+EeN6cSW2BTzezY0Vgndjd42uP5r1+quwjoZBjAZdoO3XgYPtpf0rGZXZY683ODdxK5eh16A82z1VHmlfrq8vXi2fFpZIF9UF8mOhlLzI119TJA+PeFwTR4cwyBBxS4rLn5EqWch/S355nPQlD46Ri/2+CZWKl83lclH8Zny5upyeXl1dN/DGp+um280+vT+8Oiq97bBDf3+Z7rLsE6GAUyG3fENN8OD7QdavLWgf1RdIn+ojnahsMa9leXyUMNceXLpAnm5cpLp7cbp8sXyObK7vkQOGA1QHwp5qDrHkxkhMoGKXVZsPIMbMpqXXnbfF8s17T9/nnn5/UfN0+XdVZPljdXT5Y/Np8qjy2fJBh9MLu6neD42T7bFp0p3W0lGf3R01uD3h1uOP/Jb3X1YJ8MAJqMAHWw/Ma+4NAr25upCeX6Rd4/jCXJsrCyT5wwv1ZXLO8vnyafxCtm5cg4cb7ehYpeVDBvcQGuh7Lv4TPnygh/L+61zjaZVLq8sn2xiZB6vrCyXPbES6WkpGPV7tlQ6qvD7wy1GwPoYFjAZBehg+5WemehzoZ5Z4u4TxKMUT6yulFeMM8JXKkpMrxr/+42ayfLeopny4dI58sXqBfJ17AzZvWKWLWeHqNil69ClP5ZvL/6xbDvvNPly7Vz5JDZdPlg9Rd5dUfq9N5rDcYWuX0Nv0j4QKzLPdK1XRqZrOOb9pwxGwPoYFjAZBehg+5me0elHb7tqCuT95h8bPwKDwXA7dsYnS5d5ub/R2GITYeNK11ATG5zTYDIK0MEOCm12B2oLZHPdJONHYTAYTse362ZKn34MOc6mlmxwNWcxcRpMRgE62EGkzW5To78e+8FghCGeXV8rO8+eY158gxrUeA2sZINzGkxGwbHqcN1npTdRb6splNcXz5GHGk8xfkQGg5FpPNc8Tza1zDAvGkFNyU6eT9NVl68/MqyPYQGTUdC1agY86GGgtxpsry2Sj+sny5N1vNWAwUgVeom/3sd3MF5i3iZh58eQqfQt8bbBdTWZz8aD9TEsYDIKes6phgc9TPR5dPurcmRHdYF83DBVnqvlvUsMhsYHTeXmDepHm/OlJ240NdCAnNbr9TRd59fpUMD6GBYwGQV9VzbBgx5GOkuKPtNNp8HSuS/13rp3FgXn+XQMhh3xadMU2R0vNa+C1OnEhmK48bjF82m6rm7RYYH1MSxgMgoGb7kYHvSwS0x2fNhodvv1o0zj7O7dNWcaQ8JghCuebTtLtsUny5GmfLOped3QrLyepkunLDQC1sewgMkoGL7/BnjQo0ivxNQzvH3VeeYUYQxGkGNbyzTzKd/a0Nz6Pi0bnbX499EtxzfcpMMF62NYwGRUoINO39lbVygfNU4zhonB8He81jxbtp9/uqsTT9uhoxr/7rnFCFgXwwQmowIddDqZfqS5bekMebeqRJ5v4Hd3DO/iyWXT5dXmOfJ18xTpaJuU1fyPvsBpulwBk1GBDjqlph9nHtTv7moK5dO6Mnm7ulReqeGN5gz74/GmBfLOmnLZ1DxVdjZPksPrppnPnPPiike7cZoud8BkVKCDTunTZne44kfm1Zn7avJlZ2WufFVTLO82lsuzC+fIgw18CgIjvXhm9Vx5s3W+fLWmVL5pmSKH2iab36Pp1Y6BPUtLgdN0uQMmowIddBofs+kZDe+gXqVZnSs7G8vk66pC+ayyQN6unSxPLT3NGHpGlOOd1dPko9WTZUvrdNkTmyRHWydJbzzfaGZ55oUhfrva0QmcpssdMBkV6KCT/RK3JuiN54eqcmSvcbanTy/f0jhZPq0rlbdryozDwQhjvHHxYtke+26WkI54ofS0FsngyD1o+lGjXuXo5ysdndK/3OMGVzVRDw+si2ECk1HRuWwqPvjkikTjU3rWpx91frukXD5dOlveqC6V1yp5y0JQ4oW1FfJZfLrsPmeu0cSKzY8WB/WMTD9ijGADG0vfUo+n6VppTuEH62KYwGRU9Kw7Cx588p+9i6fIp2tOlxfrp5tP6mZ4E6+tni4frVsgey6pkKFW5yckDiuvp+nqOadKDyesi2ECk1HRd/lKePApWHRy6Z3LZ8nny+aYH3e+XlFsnv091zBTHq2fLQ9Wlcv9FVONQ85IjoeXzpAnls+QZ5tOkRdbT5N3m4zmtarMnE3/m/MWSE+7XoaPCzSNT4/H03TpVIVGwLoYJjAZFQM3ng8PPoWDPkJIZ2jRKz3V3oYS2d44WTbXlsgXlfmmj+vK5L2FM+SdxunyVv00ebW6TF6pnCQvV5TIS9WT5Yk11cZbxd/xcnyevL2iTN5ZUSrvGv99b9UU+aipXD5rmSWb2ufK1qZS2bG6UL5ZXSS7Y5Pk4Npp0rW27LuLOvT7MP0YsSWPzcxhQ2smmh9NdjcYza0Kv2fdolMVGgHrYpjAZFQM3/NLePApOswmWDXxe/pdoPl9YOL2h9oC2VdXKHtqCmRXVZ58W5krOytzoG+Mf9vWUCpfLZlh+nLxdNMXC8vl88ap8lnDFPm0/jv6/29vmy472mfIznWz5NuzZ8uu9XPM77AONRea8yeO5mhzgRyLFUpnS7F0t5WYT5oeiOUacswLOBKGtGm1OvOwThrbsHE8BlZMlJ5FE6SzBr//vDL8hxuMEojrYpjAZFSceOpOePCJsqW3SSTOHMeSOHtKZp5J8aKMwNL72/Q5b15PpDyWP2281yiBuC6GCUxGCTr4RG5ABZKCZbj5u0v+exZO8HxuyUxY62BYwWSUoINP5AZUMMn/BldNlN7FE6Srzt9naalY62BYwWSUoINP5AZUPMl/htYYZ2nLJpoPKO3w+OIQu1jrYFjBZJSgg0/kBlRMyQf04pCVxlmaXhzi8TPbnGKtg2EFk1GCDj6RG2BxJU8M6cUhiUv4wbEKG2sdDCuYjJLOxaXwDUDkNFRoyR3mxSF6Cb9eHOKzS/idplMUWutgWMFklHS3ngbfBEROQ4WXnGNeHLIk2BeH2KF73VlG6cP1MGxgMkp6L1kC3wRETkNFmOyjDxXVS/jNi0MCdAm/0/p+usIofbgehg1MRsnA9evhm4DIaago0/iYF4cs1otDon2WlopOUWitg2EFk1EydOdV8E1A5DRUoCkz5vyOegm/D+Z3DAqdotBaB8MKJqPkxOO3wTcBkdNQwabU/Dy/Y1DoFIXWOhhWMBk16E1A5DRUwOlkQZnfMSis9S/MYDJq0JuAyGmomFNw53cMCmv9CzOYjBr0JiByGiruURWG+R2Dwlr/wgwmowa9CYichgp9VJiX8IdsfsegsNa/MIPJqEFvAiKnocIfWhGY3zEorPUvzGAyajoaiuAbgchJsBGESNTmdwyCzkWlRsnDdTCMYDJqumKnwjcDkZNQUwgyvTjEvIR/IS/h9yudmtBa/8IMJqOm96JG+GYgchJqEkHz/fyOvIQ/EHRqQmv9CzOYjJr+X7bBNwORk1DD8DvO7xhsA9efbZQ8XAfDCCajZui2K+CbgchJqIH4Eed3DA+dmtBa/8IMJqPm+MO/gW8GIiehZuIHQ2tyOL9jSJ147Daj5OE6GEYwGUW9lyyFbwgip6Dm4gXO7xh+PWdXyPB91xmlDte/sILJqBv6/c+kOz4PvlGI7IKajVvM+R2Xcn7HsOpcMlkGfnWuUc5wjYsKmKQf6r+mVTrqC+AbiShbqPE4hfM7hl/vT5bI8cd+Z5QsXMeiCCZpdMMP3Cg959XANxhRJlAjshPndww3vX9XL5Cz1ij6M5ik9A3efJF0rpgO34BEqaCmNB6c3zHcOmrzpP/quFF2cC2ik8EkZUcfJNj30xXwzUlkhZpURji/Y+j1nFMtw/f/yigvuOZQajBJ9hi662rpbjsdvnGJYNMaw9Aazu8YZp3Lp8nAry8wygeuKZQZmCRnDFy7TjoWlsA3NkUPamBWnN8x/PouWyYnnrjdKBG4blD2YJKcd/yhW6T3wgb4hqdoQA1N6cUhfZzfMbS6WxbI0B0/N8oArg1kH5gk9w3+9lLpWj0b/kJQOCUaGud3DLeOhkLp/0Wb8WuOf/fJOTBJ3vrTxnul78o1cqyKf8GHGed3DK+e8+vk+IM3Gb/O+Hec3AGT5C/D914rPet+DH+RiMh7XStnyOAtFxu/rvh3mLwBk+RvAzecI51LyuAvGhG5o+/ylXLi6buMX0n8e0reg0kKjuOP/k56f7IY/gISkX2628+QobuuMX7t8O8i+Q9MUnAN3Xa5dMVOgb+gRJQ+vaVn4Lp1xq8V/l0j/4NJCg+d2ken+EG/wET0Q70XNsrxh28xfnXw7xMFC0xSOA3ff4M59Q/6xSaKoq41s0Vv0bH+rlA4wCRFg04JpFMDoV98olCqmmDegqO34lh/Hyh8YJKi58QTd0jfZctxUSAKML3FRm+1sb7nKfxgkkinEupuXQALBpGf6S00eiuN9T1N0QOTRFb9v2yXjoYiWFCIvNb7k0Vy/NFbjbcqfv9SNMEkUSrHN9wkvefXwUJD5Iau5lNEb4mxvjeJksEkUSYGb/mJdK2aCQsRkR06anKl/6qY8XbD70EiBCaJsnXimbul74pVsEgRZaJnfZUM/+EG422F32tEY4FJIrsM3/0L6V57JixgRMk6l02VgRvPN942+L1ElCmYJHLKwPVnS+eiUljgKHr6Ll0qJx7/vfHWwO8XovGASSI3HH/kt9J70UJY+CicuuPzZej2K43Dj98TRHaCSSIvDP7up9LVNBcWRgqmjvoC6b+m1Ti8+JgTOQkmifyg/+fNcqwmBxZO8q+e82rl+AM3GocQH1cit8Akkd8M33e99KyvhAWVvNW5YroM3nyRcZjwsSPyCkwS+d3AjedJ59IpsOCS8/p+ukJOPHWncSjw8SHyA5gkChK9Cq/30qWwEJM9uttOl6E7rzaGGx8DIj+CSaIgG7r9Z9IdnwcLNaWno7FY+q9dawwnHmOiIIBJojDRq/j0aj5UyOnPei+ol+MP3WwMGR5HoqCBSaKwGn7gRvMqP1Tgo6Zr9SwZ/M0lxrDgsSIKOpgkigq9+q9r5XTYAMKo72er5cQz9xg/Oh4PojCBSaIo0qsC+y5fCRtDUHWvPUuG7/ml8ePhn5kozGCSiOQfDd11tXn1IGocftW5uFQGrl9v7D7+mYiiBCaJ6GQD166TjoUlsLF4qffihaLzelr3lyjqYJKIUjv+0C3Se2EDbDhO0/k6dd5O6z4R0Q/BJBFlZvC3l0rXmtmwIY1bTY7ovJzWbRJRajBJRNn708Z7pe/KNXKsagJuWGnoWV8hw/ddZ6wOb4OIxgaTRGSf4XuvlZ51P4aNLEHn1dT5Na3LElH2YJKInDNwwznSuWSy9F6yRE48fpuRwq8jovGBSSIiomCTf/T/AbfMXW/c0az2AAAAAElFTkSuQmCC;clipPath=inset(16.67% 4.88% 0% 5.28%);" vertex="1" parent="ESwYxoB_mNq8HLL_CdRm-2">
          <mxGeometry x="280" y="10.070000000000007" width="30" height="33.93" as="geometry" />
        </mxCell>
        <mxCell id="xtyaDTdJG_xUTCYl72RT-5" value="" style="group" vertex="1" connectable="0" parent="ESwYxoB_mNq8HLL_CdRm-2">
          <mxGeometry x="-20" y="44" width="250" height="69" as="geometry" />
        </mxCell>
        <mxCell id="xtyaDTdJG_xUTCYl72RT-1" value="catalog" style="rounded=1;whiteSpace=wrap;html=1;glass=0;sketch=1;curveFitting=1;jiggle=2;fillStyle=hachure;fillColor=#ffe6cc;fontStyle=1;fontSize=16;strokeColor=#d79b00;fontColor=#D79B00;" vertex="1" parent="xtyaDTdJG_xUTCYl72RT-5">
          <mxGeometry width="90" height="30" as="geometry" />
        </mxCell>
        <mxCell id="xtyaDTdJG_xUTCYl72RT-2" value="projects" style="rounded=1;whiteSpace=wrap;html=1;glass=0;sketch=1;curveFitting=1;jiggle=2;fillStyle=hachure;fillColor=#ffe6cc;fontStyle=1;fontSize=16;strokeColor=#d79b00;fontColor=#D79B00;" vertex="1" parent="xtyaDTdJG_xUTCYl72RT-5">
          <mxGeometry x="80" y="15" width="90" height="30" as="geometry" />
        </mxCell>
        <mxCell id="xtyaDTdJG_xUTCYl72RT-3" value="features" style="rounded=1;whiteSpace=wrap;html=1;glass=0;sketch=1;curveFitting=1;jiggle=2;fillStyle=hachure;fillColor=#ffe6cc;fontStyle=1;fontSize=16;strokeColor=#d79b00;fontColor=#D79B00;" vertex="1" parent="xtyaDTdJG_xUTCYl72RT-5">
          <mxGeometry x="160" width="90" height="30" as="geometry" />
        </mxCell>
        <mxCell id="xtyaDTdJG_xUTCYl72RT-4" value="auth." style="rounded=1;whiteSpace=wrap;html=1;glass=0;sketch=1;curveFitting=1;jiggle=2;fillStyle=hachure;fillColor=#ffe6cc;fontStyle=1;fontSize=16;strokeColor=#d79b00;fontColor=#D79B00;" vertex="1" parent="ESwYxoB_mNq8HLL_CdRm-2">
          <mxGeometry x="220" y="63.5" width="90" height="30" as="geometry" />
        </mxCell>
        <mxCell id="-K95_2y2O7pCYDNW_9_c-1" value="" style="group" vertex="1" connectable="0" parent="1">
          <mxGeometry x="85" y="408.6875" width="329" height="33.075" as="geometry" />
        </mxCell>
        <mxCell id="-K95_2y2O7pCYDNW_9_c-2" value="catalog" style="rounded=1;whiteSpace=wrap;html=1;glass=0;sketch=1;curveFitting=1;jiggle=2;fillStyle=hachure;fillColor=#dae8fc;fontStyle=1;fontSize=16;strokeColor=#6c8ebf;fontColor=#0069D1;" vertex="1" parent="-K95_2y2O7pCYDNW_9_c-1">
          <mxGeometry width="90" height="23.625" as="geometry" />
        </mxCell>
        <mxCell id="-K95_2y2O7pCYDNW_9_c-3" value="projects" style="rounded=1;whiteSpace=wrap;html=1;glass=0;sketch=1;curveFitting=1;jiggle=2;fillStyle=hachure;fillColor=#dae8fc;fontStyle=1;fontSize=16;strokeColor=#6c8ebf;fontColor=#0069D1;" vertex="1" parent="-K95_2y2O7pCYDNW_9_c-1">
          <mxGeometry x="75" y="9.45" width="90" height="23.625" as="geometry" />
        </mxCell>
        <mxCell id="-K95_2y2O7pCYDNW_9_c-4" value="features" style="rounded=1;whiteSpace=wrap;html=1;glass=0;sketch=1;curveFitting=1;jiggle=2;fillStyle=hachure;fillColor=#dae8fc;fontStyle=1;fontSize=16;strokeColor=#6c8ebf;fontColor=#0069D1;" vertex="1" parent="-K95_2y2O7pCYDNW_9_c-1">
          <mxGeometry x="155" width="90" height="23.625" as="geometry" />
        </mxCell>
        <mxCell id="-K95_2y2O7pCYDNW_9_c-5" value="auth." style="rounded=1;whiteSpace=wrap;html=1;glass=0;sketch=1;curveFitting=1;jiggle=2;fillStyle=hachure;fillColor=#dae8fc;fontStyle=1;fontSize=16;strokeColor=#6c8ebf;fontColor=#0069D1;" vertex="1" parent="-K95_2y2O7pCYDNW_9_c-1">
          <mxGeometry x="239" y="9.449999999999989" width="90" height="23.625" as="geometry" />
        </mxCell>
        <mxCell id="CtfvUxNER2Pr5SOLY1Ck-1" value="MongoDB&amp;nbsp;collections" style="rounded=1;whiteSpace=wrap;html=1;glass=0;sketch=1;curveFitting=1;jiggle=2;fillStyle=hachure;fillColor=#d5e8d4;fontStyle=1;fontSize=18;strokeColor=#82b366;fontColor=#67AB9F;spacingBottom=50;" vertex="1" parent="1">
          <mxGeometry x="70" y="700" width="350" height="80" as="geometry" />
        </mxCell>
        <mxCell id="xtyaDTdJG_xUTCYl72RT-6" value="" style="group" vertex="1" connectable="0" parent="1">
          <mxGeometry x="80" y="570" width="334" height="45" as="geometry" />
        </mxCell>
        <mxCell id="a8u8Q-53P-P6iwNLGC3e-1" value="catalog" style="rounded=1;whiteSpace=wrap;html=1;glass=0;sketch=1;curveFitting=1;jiggle=2;fillStyle=hachure;fillColor=#f8cecc;fontStyle=1;fontSize=16;strokeColor=#b85450;" vertex="1" parent="xtyaDTdJG_xUTCYl72RT-6">
          <mxGeometry width="90" height="30" as="geometry" />
        </mxCell>
        <mxCell id="a8u8Q-53P-P6iwNLGC3e-2" value="projects" style="rounded=1;whiteSpace=wrap;html=1;glass=0;sketch=1;curveFitting=1;jiggle=2;fillStyle=hachure;fillColor=#f8cecc;fontStyle=1;fontSize=16;strokeColor=#b85450;" vertex="1" parent="xtyaDTdJG_xUTCYl72RT-6">
          <mxGeometry x="80" y="15" width="90" height="30" as="geometry" />
        </mxCell>
        <mxCell id="a8u8Q-53P-P6iwNLGC3e-3" value="features" style="rounded=1;whiteSpace=wrap;html=1;glass=0;sketch=1;curveFitting=1;jiggle=2;fillStyle=hachure;fillColor=#f8cecc;fontStyle=1;fontSize=16;strokeColor=#b85450;" vertex="1" parent="xtyaDTdJG_xUTCYl72RT-6">
          <mxGeometry x="160" width="90" height="30" as="geometry" />
        </mxCell>
        <mxCell id="a8u8Q-53P-P6iwNLGC3e-4" value="auth." style="rounded=1;whiteSpace=wrap;html=1;glass=0;sketch=1;curveFitting=1;jiggle=2;fillStyle=hachure;fillColor=#f8cecc;fontStyle=1;fontSize=16;strokeColor=#b85450;" vertex="1" parent="xtyaDTdJG_xUTCYl72RT-6">
          <mxGeometry x="244" y="15" width="90" height="30" as="geometry" />
        </mxCell>
        <mxCell id="xtyaDTdJG_xUTCYl72RT-7" value="" style="group" vertex="1" connectable="0" parent="1">
          <mxGeometry x="110" y="730" width="250" height="45" as="geometry" />
        </mxCell>
        <mxCell id="CtfvUxNER2Pr5SOLY1Ck-2" value="catalog" style="rounded=1;whiteSpace=wrap;html=1;glass=0;sketch=1;curveFitting=1;jiggle=2;fillStyle=hachure;fillColor=#d5e8d4;fontStyle=1;fontSize=16;strokeColor=#82b366;fontColor=#67AB9F;" vertex="1" parent="xtyaDTdJG_xUTCYl72RT-7">
          <mxGeometry width="90" height="30" as="geometry" />
        </mxCell>
        <mxCell id="CtfvUxNER2Pr5SOLY1Ck-3" value="projects" style="rounded=1;whiteSpace=wrap;html=1;glass=0;sketch=1;curveFitting=1;jiggle=2;fillStyle=hachure;fillColor=#d5e8d4;fontStyle=1;fontSize=16;strokeColor=#82b366;fontColor=#67AB9F;" vertex="1" parent="xtyaDTdJG_xUTCYl72RT-7">
          <mxGeometry x="80" y="15" width="90" height="30" as="geometry" />
        </mxCell>
        <mxCell id="CtfvUxNER2Pr5SOLY1Ck-4" value="features" style="rounded=1;whiteSpace=wrap;html=1;glass=0;sketch=1;curveFitting=1;jiggle=2;fillStyle=hachure;fillColor=#d5e8d4;fontStyle=1;fontSize=16;strokeColor=#82b366;fontColor=#67AB9F;" vertex="1" parent="xtyaDTdJG_xUTCYl72RT-7">
          <mxGeometry x="160" width="90" height="30" as="geometry" />
        </mxCell>
        <mxCell id="U3v8zphB7oQ0XFiXEXgU-1" value="" style="endArrow=classic;html=1;rounded=0;entryX=0.5;entryY=0;entryDx=0;entryDy=0;fontColor=#0069D1;strokeWidth=2;strokeColor=#d79b00;startArrow=classic;startFill=1;fillColor=#ffe6cc;exitX=0.56;exitY=0.973;exitDx=0;exitDy=0;exitPerimeter=0;" edge="1" parent="1" source="8hlWyNbL9oCauRfSR6CJ-1" target="ESwYxoB_mNq8HLL_CdRm-1">
          <mxGeometry width="50" height="50" relative="1" as="geometry">
            <mxPoint x="450" y="610" as="sourcePoint" />
            <mxPoint x="492" y="52" as="targetPoint" />
          </mxGeometry>
        </mxCell>
        <mxCell id="U3v8zphB7oQ0XFiXEXgU-2" value="Service items&lt;div&gt;used by view&lt;/div&gt;" style="edgeLabel;html=1;align=center;verticalAlign=middle;resizable=0;points=[];fontColor=#D79B00;" vertex="1" connectable="0" parent="U3v8zphB7oQ0XFiXEXgU-1">
          <mxGeometry x="0.1714" relative="1" as="geometry">
            <mxPoint y="-5" as="offset" />
          </mxGeometry>
        </mxCell>
        <mxCell id="8hlWyNbL9oCauRfSR6CJ-1" value="Frontend offline services" style="rounded=1;whiteSpace=wrap;html=1;glass=0;sketch=1;curveFitting=1;jiggle=2;fillStyle=hachure;fillColor=#A9C4EB;fontStyle=1;fontSize=18;fontColor=#0069D1;strokeColor=#0069D1;spacingBottom=40;" vertex="1" parent="1">
          <mxGeometry x="450" y="379" width="350" height="73" as="geometry" />
        </mxCell>
        <mxCell id="8hlWyNbL9oCauRfSR6CJ-2" value="" style="group" vertex="1" connectable="0" parent="1">
          <mxGeometry x="460" y="409.9975" width="329" height="33.075" as="geometry" />
        </mxCell>
        <mxCell id="8hlWyNbL9oCauRfSR6CJ-3" value="catalog" style="rounded=1;whiteSpace=wrap;html=1;glass=0;sketch=1;curveFitting=1;jiggle=2;fillStyle=hachure;fillColor=#dae8fc;fontStyle=1;fontSize=16;strokeColor=#6c8ebf;fontColor=#0069D1;" vertex="1" parent="8hlWyNbL9oCauRfSR6CJ-2">
          <mxGeometry width="90" height="23.625" as="geometry" />
        </mxCell>
        <mxCell id="8hlWyNbL9oCauRfSR6CJ-4" value="projects" style="rounded=1;whiteSpace=wrap;html=1;glass=0;sketch=1;curveFitting=1;jiggle=2;fillStyle=hachure;fillColor=#dae8fc;fontStyle=1;fontSize=16;strokeColor=#6c8ebf;fontColor=#0069D1;" vertex="1" parent="8hlWyNbL9oCauRfSR6CJ-2">
          <mxGeometry x="75" y="9.45" width="90" height="23.625" as="geometry" />
        </mxCell>
        <mxCell id="8hlWyNbL9oCauRfSR6CJ-5" value="features" style="rounded=1;whiteSpace=wrap;html=1;glass=0;sketch=1;curveFitting=1;jiggle=2;fillStyle=hachure;fillColor=#dae8fc;fontStyle=1;fontSize=16;strokeColor=#6c8ebf;fontColor=#0069D1;" vertex="1" parent="8hlWyNbL9oCauRfSR6CJ-2">
          <mxGeometry x="155" width="90" height="23.625" as="geometry" />
        </mxCell>
        <mxCell id="8hlWyNbL9oCauRfSR6CJ-6" value="auth." style="rounded=1;whiteSpace=wrap;html=1;glass=0;sketch=1;curveFitting=1;jiggle=2;fillStyle=hachure;fillColor=#dae8fc;fontStyle=1;fontSize=16;strokeColor=#6c8ebf;fontColor=#0069D1;" vertex="1" parent="8hlWyNbL9oCauRfSR6CJ-2">
          <mxGeometry x="239" y="9.449999999999989" width="90" height="23.625" as="geometry" />
        </mxCell>
        <mxCell id="8hlWyNbL9oCauRfSR6CJ-7" value="" style="endArrow=classic;html=1;rounded=0;entryX=0.5;entryY=0;entryDx=0;entryDy=0;fontColor=#0069D1;strokeWidth=2;strokeColor=#0069D1;startArrow=classic;startFill=1;exitX=1;exitY=0.5;exitDx=0;exitDy=0;" edge="1" parent="1" source="Qz2SuXK2U2u-8fV5oh8R-32" target="8hlWyNbL9oCauRfSR6CJ-1">
          <mxGeometry width="50" height="50" relative="1" as="geometry">
            <mxPoint x="255" y="308" as="sourcePoint" />
            <mxPoint x="255" y="264" as="targetPoint" />
            <Array as="points">
              <mxPoint x="625" y="320" />
            </Array>
          </mxGeometry>
        </mxCell>
        <mxCell id="8hlWyNbL9oCauRfSR6CJ-8" value="Service items&lt;div&gt;snapshot&lt;/div&gt;" style="edgeLabel;html=1;align=center;verticalAlign=middle;resizable=0;points=[];fontColor=#0069D1;" vertex="1" connectable="0" parent="8hlWyNbL9oCauRfSR6CJ-7">
          <mxGeometry x="0.1714" relative="1" as="geometry">
            <mxPoint x="35" y="-9" as="offset" />
          </mxGeometry>
        </mxCell>
        <mxCell id="MCQHVa-5UP4eCMQiUClv-1" value="" style="shape=image;verticalLabelPosition=bottom;labelBackgroundColor=default;verticalAlign=top;aspect=fixed;imageAspect=0;image=https://feathersjs.com/logo.svg;" vertex="1" parent="1">
          <mxGeometry x="376" y="531" width="34" height="34" as="geometry" />
        </mxCell>
        <mxCell id="YO71qf7kfvAu5jcgEeEN-1" value="" style="shape=image;verticalLabelPosition=bottom;labelBackgroundColor=default;verticalAlign=top;aspect=fixed;imageAspect=0;image=https://miro.medium.com/v2/resize:fit:512/1*doAg1_fMQKWFoub-6gwUiQ.png;clipPath=inset(0.67% 31.33% 21.67% 31.33%);" vertex="1" parent="1">
          <mxGeometry x="390" y="712.02" width="23.06" height="47.98" as="geometry" />
        </mxCell>
        <mxCell id="sPhVsCLVk7G5q-rYnE-u-1" value="" style="shape=image;verticalLabelPosition=bottom;labelBackgroundColor=default;verticalAlign=top;aspect=fixed;imageAspect=0;image=https://samvloeberghs.be/assets/share/posts/workbox_share.jpg;clipPath=inset(26.58% 37.33% 26.58% 36.33%);" vertex="1" parent="1">
          <mxGeometry x="753" y="144" width="34" height="31.85" as="geometry" />
        </mxCell>
        <mxCell id="sPhVsCLVk7G5q-rYnE-u-2" value="" style="shape=image;verticalLabelPosition=bottom;labelBackgroundColor=default;verticalAlign=top;aspect=fixed;imageAspect=0;image=https://feathersjs.com/logo.svg;" vertex="1" parent="1">
          <mxGeometry x="755" y="109" width="34" height="34" as="geometry" />
        </mxCell>
      </root>
    </mxGraphModel>
  </diagram>
  <diagram id="2E1wN2HVdK7816UP3WyX" name="Offline">
    <mxGraphModel dx="2074" dy="1166" grid="1" gridSize="10" guides="1" tooltips="1" connect="1" arrows="1" fold="1" page="1" pageScale="1" pageWidth="827" pageHeight="1169" math="0" shadow="0">
      <root>
        <mxCell id="0" />
        <mxCell id="1" parent="0" />
        <mxCell id="cNBURYP05xd2yMikfwmv-1" value="" style="rounded=1;whiteSpace=wrap;html=1;fillColor=none;sketch=1;curveFitting=1;jiggle=2;strokeColor=#6c8ebf;" vertex="1" parent="1">
          <mxGeometry x="50" y="100" width="400" height="370" as="geometry" />
        </mxCell>
        <mxCell id="cNBURYP05xd2yMikfwmv-2" value="Precache" style="rounded=1;whiteSpace=wrap;html=1;glass=0;sketch=1;curveFitting=1;jiggle=2;fillStyle=hachure;fillColor=#ffe6cc;fontStyle=1;fontSize=18;strokeColor=#d79b00;fontColor=#D79B00;" vertex="1" parent="1">
          <mxGeometry x="70" y="114" width="100" height="40" as="geometry" />
        </mxCell>
        <mxCell id="cNBURYP05xd2yMikfwmv-6" value="" style="shape=image;html=1;verticalLabelPosition=bottom;verticalAlign=top;imageAspect=0;image=img/clipart/Gear_128x128.png" vertex="1" parent="1">
          <mxGeometry x="220" y="194" width="50" height="60" as="geometry" />
        </mxCell>
        <mxCell id="cNBURYP05xd2yMikfwmv-7" value="Service worker" style="text;strokeColor=none;align=center;fillColor=none;html=1;verticalAlign=middle;whiteSpace=wrap;rounded=0;fontColor=#0069D1;fontSize=14;fontStyle=1" vertex="1" parent="1">
          <mxGeometry x="280" y="220" width="110" height="30" as="geometry" />
        </mxCell>
        <mxCell id="cNBURYP05xd2yMikfwmv-8" value="" style="endArrow=classic;html=1;rounded=0;entryX=0.5;entryY=1;entryDx=0;entryDy=0;fontColor=#0069D1;strokeWidth=2;strokeColor=#0069D1;startArrow=classic;startFill=1;exitX=0.5;exitY=0;exitDx=0;exitDy=0;" edge="1" parent="1" source="cNBURYP05xd2yMikfwmv-33" target="cNBURYP05xd2yMikfwmv-6">
          <mxGeometry width="50" height="50" relative="1" as="geometry">
            <mxPoint x="245" y="310" as="sourcePoint" />
            <mxPoint x="275" y="340" as="targetPoint" />
          </mxGeometry>
        </mxCell>
        <mxCell id="cNBURYP05xd2yMikfwmv-9" value="Ressource request" style="edgeLabel;html=1;align=center;verticalAlign=middle;resizable=0;points=[];fontColor=#0069D1;" vertex="1" connectable="0" parent="cNBURYP05xd2yMikfwmv-8">
          <mxGeometry x="0.1714" relative="1" as="geometry">
            <mxPoint x="-55" y="2" as="offset" />
          </mxGeometry>
        </mxCell>
        <mxCell id="cNBURYP05xd2yMikfwmv-14" value="" style="endArrow=classic;html=1;rounded=0;fontColor=#0069D1;strokeWidth=2;strokeColor=#d79b00;exitX=0;exitY=0.25;exitDx=0;exitDy=0;startArrow=classic;startFill=1;fillColor=#ffe6cc;" edge="1" parent="1" source="cNBURYP05xd2yMikfwmv-6" target="cNBURYP05xd2yMikfwmv-2">
          <mxGeometry width="50" height="50" relative="1" as="geometry">
            <mxPoint x="255" y="230" as="sourcePoint" />
            <mxPoint x="255" y="170" as="targetPoint" />
          </mxGeometry>
        </mxCell>
        <mxCell id="cNBURYP05xd2yMikfwmv-15" value="Internal&lt;div&gt;ressource&lt;/div&gt;" style="edgeLabel;html=1;align=center;verticalAlign=middle;resizable=0;points=[];fontColor=#D79B00;" vertex="1" connectable="0" parent="cNBURYP05xd2yMikfwmv-14">
          <mxGeometry x="0.1714" relative="1" as="geometry">
            <mxPoint x="-34" y="9" as="offset" />
          </mxGeometry>
        </mxCell>
        <mxCell id="cNBURYP05xd2yMikfwmv-26" value="" style="group" vertex="1" connectable="0" parent="1">
          <mxGeometry x="70" y="389" width="350" height="63" as="geometry" />
        </mxCell>
        <mxCell id="cNBURYP05xd2yMikfwmv-27" value="Frontend offline services" style="rounded=1;whiteSpace=wrap;html=1;glass=0;sketch=1;curveFitting=1;jiggle=2;fillStyle=hachure;fillColor=#A9C4EB;fontStyle=1;fontSize=18;fontColor=#0069D1;strokeColor=#0069D1;spacingBottom=40;" vertex="1" parent="cNBURYP05xd2yMikfwmv-26">
          <mxGeometry y="-10" width="350" height="73" as="geometry" />
        </mxCell>
        <mxCell id="cNBURYP05xd2yMikfwmv-28" value="" style="group" vertex="1" connectable="0" parent="cNBURYP05xd2yMikfwmv-26">
          <mxGeometry x="15" y="19.6875" width="329" height="33.075" as="geometry" />
        </mxCell>
        <mxCell id="cNBURYP05xd2yMikfwmv-29" value="catalog" style="rounded=1;whiteSpace=wrap;html=1;glass=0;sketch=1;curveFitting=1;jiggle=2;fillStyle=hachure;fillColor=#dae8fc;fontStyle=1;fontSize=16;strokeColor=#6c8ebf;fontColor=#0069D1;" vertex="1" parent="cNBURYP05xd2yMikfwmv-28">
          <mxGeometry width="90" height="23.625" as="geometry" />
        </mxCell>
        <mxCell id="cNBURYP05xd2yMikfwmv-30" value="projects" style="rounded=1;whiteSpace=wrap;html=1;glass=0;sketch=1;curveFitting=1;jiggle=2;fillStyle=hachure;fillColor=#dae8fc;fontStyle=1;fontSize=16;strokeColor=#6c8ebf;fontColor=#0069D1;" vertex="1" parent="cNBURYP05xd2yMikfwmv-28">
          <mxGeometry x="75" y="9.45" width="90" height="23.625" as="geometry" />
        </mxCell>
        <mxCell id="cNBURYP05xd2yMikfwmv-31" value="features" style="rounded=1;whiteSpace=wrap;html=1;glass=0;sketch=1;curveFitting=1;jiggle=2;fillStyle=hachure;fillColor=#dae8fc;fontStyle=1;fontSize=16;strokeColor=#6c8ebf;fontColor=#0069D1;" vertex="1" parent="cNBURYP05xd2yMikfwmv-28">
          <mxGeometry x="155" width="90" height="23.625" as="geometry" />
        </mxCell>
        <mxCell id="cNBURYP05xd2yMikfwmv-32" value="auth." style="rounded=1;whiteSpace=wrap;html=1;glass=0;sketch=1;curveFitting=1;jiggle=2;fillStyle=hachure;fillColor=#dae8fc;fontStyle=1;fontSize=16;strokeColor=#6c8ebf;fontColor=#0069D1;" vertex="1" parent="cNBURYP05xd2yMikfwmv-28">
          <mxGeometry x="239" y="9.449999999999989" width="90" height="23.625" as="geometry" />
        </mxCell>
        <mxCell id="cNBURYP05xd2yMikfwmv-33" value="Application components" style="rounded=1;whiteSpace=wrap;html=1;glass=0;sketch=1;curveFitting=1;jiggle=2;fillStyle=hachure;fillColor=#A9C4EB;fontStyle=1;fontSize=18;fontColor=#0069D1;strokeColor=#0069D1;spacingBottom=0;" vertex="1" parent="1">
          <mxGeometry x="130" y="298" width="230" height="40" as="geometry" />
        </mxCell>
        <mxCell id="cNBURYP05xd2yMikfwmv-34" value="" style="endArrow=classic;html=1;rounded=0;fontColor=#0069D1;strokeWidth=2;strokeColor=#0069D1;exitX=0.5;exitY=1;exitDx=0;exitDy=0;startArrow=classic;startFill=1;entryX=0.5;entryY=0;entryDx=0;entryDy=0;" edge="1" parent="1" source="cNBURYP05xd2yMikfwmv-33" target="cNBURYP05xd2yMikfwmv-27">
          <mxGeometry width="50" height="50" relative="1" as="geometry">
            <mxPoint x="230" y="219" as="sourcePoint" />
            <mxPoint x="157" y="164" as="targetPoint" />
          </mxGeometry>
        </mxCell>
        <mxCell id="cNBURYP05xd2yMikfwmv-35" value="Service operation" style="edgeLabel;html=1;align=center;verticalAlign=middle;resizable=0;points=[];fontColor=#0069D1;" vertex="1" connectable="0" parent="1">
          <mxGeometry x="190" y="357" as="geometry" />
        </mxCell>
        <mxCell id="cNBURYP05xd2yMikfwmv-36" value="PWA" style="text;strokeColor=none;align=center;fillColor=none;html=1;verticalAlign=middle;whiteSpace=wrap;rounded=0;fontColor=#0069D1;fontSize=18;fontStyle=1" vertex="1" parent="1">
          <mxGeometry y="266" width="50" height="30" as="geometry" />
        </mxCell>
        <mxCell id="fK8cGJOcIvBBgOuqJ73u-1" value="Layers cache" style="rounded=1;whiteSpace=wrap;html=1;glass=0;sketch=1;curveFitting=1;jiggle=2;fillStyle=hachure;fillColor=#ffe6cc;fontStyle=1;fontSize=18;strokeColor=#d79b00;fontColor=#D79B00;" vertex="1" parent="1">
          <mxGeometry x="305" y="112" width="130" height="40" as="geometry" />
        </mxCell>
        <mxCell id="fK8cGJOcIvBBgOuqJ73u-2" value="" style="endArrow=classic;html=1;rounded=0;entryX=0.015;entryY=0.4;entryDx=0;entryDy=0;fontColor=#0069D1;strokeWidth=2;strokeColor=#d79b00;exitX=0.5;exitY=0;exitDx=0;exitDy=0;startArrow=classic;startFill=1;entryPerimeter=0;fillColor=#ffe6cc;" edge="1" parent="1" source="fK8cGJOcIvBBgOuqJ73u-1" target="fK8cGJOcIvBBgOuqJ73u-6">
          <mxGeometry width="50" height="50" relative="1" as="geometry">
            <mxPoint x="350" y="130" as="sourcePoint" />
            <mxPoint x="350" y="60" as="targetPoint" />
          </mxGeometry>
        </mxCell>
        <mxCell id="fK8cGJOcIvBBgOuqJ73u-3" value="HTTP request" style="edgeLabel;html=1;align=center;verticalAlign=middle;resizable=0;points=[];fontColor=#D79B00;" vertex="1" connectable="0" parent="fK8cGJOcIvBBgOuqJ73u-2">
          <mxGeometry x="0.1714" relative="1" as="geometry">
            <mxPoint as="offset" />
          </mxGeometry>
        </mxCell>
        <mxCell id="fK8cGJOcIvBBgOuqJ73u-4" value="" style="endArrow=classic;html=1;rounded=0;entryX=0.5;entryY=1;entryDx=0;entryDy=0;fontColor=#0069D1;strokeWidth=2;strokeColor=#d79b00;exitX=1;exitY=0.25;exitDx=0;exitDy=0;startArrow=classic;startFill=1;fillColor=#ffe6cc;" edge="1" parent="1" target="fK8cGJOcIvBBgOuqJ73u-1">
          <mxGeometry width="50" height="50" relative="1" as="geometry">
            <mxPoint x="270" y="209" as="sourcePoint" />
            <mxPoint x="239.5" y="160" as="targetPoint" />
          </mxGeometry>
        </mxCell>
        <mxCell id="fK8cGJOcIvBBgOuqJ73u-5" value="External ressource&lt;div&gt;used by view&lt;/div&gt;" style="edgeLabel;html=1;align=center;verticalAlign=middle;resizable=0;points=[];fontColor=#D79B00;" vertex="1" connectable="0" parent="fK8cGJOcIvBBgOuqJ73u-4">
          <mxGeometry x="0.1714" relative="1" as="geometry">
            <mxPoint x="45" y="16" as="offset" />
          </mxGeometry>
        </mxCell>
        <mxCell id="fK8cGJOcIvBBgOuqJ73u-6" value="Ressource&lt;div&gt;provider&lt;/div&gt;" style="whiteSpace=wrap;html=1;shape=mxgraph.basic.cloud_callout;fillColor=#ffe6cc;strokeColor=#d79b00;fontStyle=0;verticalAlign=middle;spacingBottom=15;" vertex="1" parent="1">
          <mxGeometry x="480" y="10" width="130" height="80" as="geometry" />
        </mxCell>
        <mxCell id="Hu3Rg4_D4B5XP_xSHJyQ-1" value="" style="shape=image;verticalLabelPosition=bottom;labelBackgroundColor=default;verticalAlign=top;aspect=fixed;imageAspect=0;image=https://icons.iconarchive.com/icons/icons-land/gis-gps-map/256/Layers-icon.png;" vertex="1" parent="1">
          <mxGeometry x="62" y="240" width="76" height="76" as="geometry" />
        </mxCell>
        <mxCell id="_lWbAJVXqIwsSRs-UyT6-1" value="" style="group" vertex="1" connectable="0" parent="1">
          <mxGeometry x="100" y="540" width="290" height="190" as="geometry" />
        </mxCell>
        <mxCell id="_lWbAJVXqIwsSRs-UyT6-2" value="IndexedDB collections" style="rounded=1;whiteSpace=wrap;html=1;glass=0;sketch=1;curveFitting=1;jiggle=2;fillStyle=hachure;fillColor=#ffe6cc;fontStyle=1;fontSize=18;strokeColor=#d79b00;fontColor=#D79B00;verticalAlign=top;" vertex="1" parent="_lWbAJVXqIwsSRs-UyT6-1">
          <mxGeometry width="290" height="140" as="geometry" />
        </mxCell>
        <mxCell id="_lWbAJVXqIwsSRs-UyT6-3" value="" style="shape=image;imageAspect=0;aspect=fixed;verticalLabelPosition=bottom;verticalAlign=top;image=data:image/png,iVBORw0KGgoAAAANSUhEUgAAAbgAAAIZCAYAAADUYiplAAAABGdBTUEAALGPC/xhBQAAAAlwSFlzAAAOwgAADsIBFShKgAAAABl0RVh0U29mdHdhcmUAcGFpbnQubmV0IDQuMC4yMfEgaZUAAGYiSURBVHhe7d2HnxzlmSfwy3nvbi/s7t3e3e6FtTR5RjMKowySSJ4clONM9wQJkTFgMAZsgjFgY0zGgMhJYHLOGQGKCOU8OUr+A56rp5jGTek3Pd09lev3fD7fxfuoK8xbPc8z1V311j8SESIiotCBSSIioqCDSSIioqCDSSIioqCDSSIioqCDSSIioqCDSSIioqCDSSIioqCDSSIioqCDSSIioqCDSSIioqCDSSIioqCDSSIioqCDSSIioqCDSSIioqCDSSIioqCDSSIioqCDSSIioqCDSSIioqCDSSIioqCDSSIioqCDSSIioqCDSSIioqCDSSIioqCDSSIioqCDSSIioqCDSSIioqCDSSIioqCDSSIioqCDSSIioqCDSYqG3/zmN5Ip6zqIRvPiiy/C99BYrOshyhZMUjQYof8nI9Z1EI3mnHPOge+hVP7P//k/xqJ4fUSZgkmKBmtxSYd1HUSjYYMjr8Gkn1VVVclf/MVfZMy6HtJ6gotMKtZ1EI3GiQanv///4T/8B/nLv/xL+c//+T/LX/3VX8nf/M3fyH//7/9d/uf//J/yd3/3d+Y6/t//+3/yox/9SHJyciQvL08KCgqkuLj4B6ZNmyannXaaNDY2SiwWkwsuuECuvvpqYzN423bRevQf/+N/lP/0n/6T/Jf/8l/kr//6r+W//bf/Jn/7t38r/+t//S/5+7//++9/hgkTJnz/MxQWFp70M0ydOlXmzZsnNTU1smLFCtExv+mmm+Spp54yNoW3HyUw6Wf6Bke/GGOxrod0WPBYpWJdB9FonGpwaDknaFOMx+Py8MMPG5vG+5MN63ac9K/+1b8SHbPf//73xqbx/oQZTPoZG5x9rGOUDus6iEYT9AaXTM+urrzySmMX8H5lwrput2iz07NU6/6EGUz6GRucfaxjlA7rOohGE6YGl0w/zrTuVyas63Obfrxr3aewgkk/Y4Ozj3WM0mFdB9FowtrglO6n3gZh3b90WNfllfvvv9/YHbyPYQGTfsYGZx/rGKXDug6i0YS5wSWcf/75xm7hfR2NdR1e+Sf/5J8Yu4P3MSxg0s/Y4OxjHaN0WNdBNJooNDj185//3Ng1vL+IdXkvlZeXG7uE9zMMYNLP2ODsYx2jdFjXQTSaqDQ4tWHDBmP38D5bWZf1mnX/wgQm/YwNzj7WMUqHdR1Eo4lSg1PWfR2NdTmvXXjhhcZu4X0NOpj0MzY4+1jHKB3WdRCNJmoNrrKy0thFvN/JrMul4/TTT//+opaXXnrJPGO85ZZbzG2i12eitrbWXG8YwaSfscHZxzpG6bCug2g0fmpwOiuIzgSiM3/MmjXL3I7eF4ZeOx7W/UWsy6RDbzi3rifZpEmT4HLp0GWt6wsLmPQzNjj7WMcoHdZ1EI3GTw3Oup5kP/vZz8ypstBymWpoaDBWibeTYF0mHWM1OPUv/sW/gMuOpaioyFgcrzPoYNLPgtLgbr31Vjn33HOloqJCTjnlFFm0aJGsX7/e+Cf8ejs8+eSTcv3115s3op566qmyfPlyc269xx57zPjnk19vHaN0WNeRrUcffVRuuOEGWbt2rfkxy9y5c2XlypVy+eWXy9133228BC8XVTomV1xxhTlG+n7S95WOnR5vHUvr652i+3HJJZeYhfyMM84w39O/+93vjH86+bVBaXAJ+n5Ey2bKul4r6+vTkU6D0995tOxY6uvrjcXxOoMOJv3MiTe4Fgq0TCr615J1PXfeeafMmDEDvj7Zv/t3/06uueaak5bP1sKFC+F2rJqbm42X/3k567+nI3n5TOn46AS3aL2IjvGyZcvkj3/8o7E4XqeVdR2Z+PWvf22sAq83IZv3SoJ1XWPRe6x0Ql60LmTixImiZyPW9YyXPqNNP+JD20ymkxvfddddxiLfLRe0Bqf0vaYTIaN1pEv/uLWuN5n19elIp8FddNFFcNmxXHvttcbieJ1BB5N+5tcGp3/NotelMt6PBvSsB613LIkiaM2nI7HtTLS1tY37+w4t9OnMkK4T46Ll06Ez0lvXZ2VdJl3W9aSiZ2hoHZnQ3xPrejN18803mzP3o/Wnoo1Olw9ig1MvvPACXEe6xrpow/r6dKTT4ObPnw+XHYt1PWECk37mxwaXyV/ZVtk2OX2sBlpfuvSvTJQfi3U/xqI/H1pPti677DJjtXhbCXohAVo2HY8//rixCrzeX/ziF3CZsWiDt64L0TNItHy29PEx1m2k69JLL4XrTJc+8iWoDU7p1wtoPenQM0Dr+pJZX5+OdBqcdZl0nHfeecaieH1hAJN+5rcG9z/+x/+A/56JTGYp10uE//W//tdwPZnQj0lRfizW/RmNflSFlreDni1bt2dlXSZdU6ZMMRbH68zmQgR93pd1PciSJUvg8nZI56PXZPodLlpPpv7rf/2vMJ+KXxqc0ufNoXWlw7quZNbXpmOsBqfPi0PLpaKfAFnXEzYw6Wd+anDV1dXw3zKVyZxw//gf/2O4DrdY9wfRBy6iZe001l+e2Z5tKeu61B/+8Af42rFY14Nk8r1ktqzbHI3e9IuWd4ufGtx4zuJSPUPO+tp0aDN6+umnZePGjSb9pEGnCNOPQ9Hrx7JgwQJjV/D+hQlM+plfGpzd9It8635Z2dVQx8O6T4h1GafoVaPWbSdL58IIBH2Homd26LWpaKO3rsdKLyRBy9pN7wGzbhuxLuc2PzU4ZV1Pum677TZjcXvXaRdt3NZ9CiuY9LOwNriysjJjV/D+KX20BVrObdb9stJCipZzgn6EZN2+lXWZdI13PXpWZl2HlTZotKxTxvouUCfeRcu5yW8NLtuPKfUTBOu6EqyvdYtebW3dl7CDST8La4NT1v1Kls33GU6w7leylpYWuEwq+r3Wr371K/Pet3Xr1sHXpHL77bcbm8b7o1pbW+FyY0n+ziPd2zCSJZZNJZuLk9rb2+XBBx8073/L9Hs765W/yXR9aBm3+a3BZfsHW6r5Ha2vdZL+4az391n3ISpg0s/82uDGe++Msu5Xgt7Ii16fib/4i7+A+UxZ9y2Z9bVjWbVqlbHYyev5l//yX8LXI7NnzzYWOXkdyfRCD7TsWBLL//N//s/hv48m1fcvCb/97W/hsqmgG/Yvvvhi+NrRaHO0rkOVlpbC17vNbw0um9t/lPWe02TW1zpNb3/R+0mj8IBTK5j0M781OP1eLHld2d5sqUb73F5njUCvT4f1L8nxXgCSvK5kmX6E+u///b83FsPryvTLfevyVnrzLlpuLD/5yU/MhoD+bTQ6e4x1+0g6EwIk07Nb6zoSMrlX7cwzzzQWOXkd1telSz9ZsBbO8dzH57cGp7N8oPWNpampyVgcr9P6WjfpPYpjfeoRJjDpZ35qcDU1NcbiJ69Pv+tArx/LjTfeaCx+8vr+6T/9p/D1Y7nqqquMxU9en7K+Nl3W9SRo4USvH41OK2RdR4LeCoGWGc11111nLIbXlbB48WK4bCp/93d/Z54hon9D9PYN63ZHY112LNblk+kVpWiZ0ViX/+UvfwlfN5b/+3//70nrSsj2oz2/NbhMjn+yCy64wFgcr9P6Wi+M9odO2MCkn/mpwVnXk8z62nTovJHW9WT78eScOXNOWleybL4vU9b1JFhfN5axPsazvj4VvaHYujyS6UeNmbJubzSZNpR/+2//rbEYXpfSuSDRcqOxLp/tx5PPPffcSetKZn19OvzW4HJzc+H6xpJqKj7ra72i339b9y1sYNLP/NLg9Hsi63qS/Zt/82/gcqno7BHW9WR7P1c6Txi2LpMO6zoSrK8by1jfB1hfn0pjY6OxCF5PsnvvvRcub4dMLr3O9HYPvYnXuo5kOvUaWm401uW1gaLXpTJWI1LZfJLhtwZnXU+67rjjDmNxe9fpBJ2owrp/YQKTfuaXBqf3WFnXkyybv/z0Ox/res4++2z42rFY14Nkc9O4dR3qnnvuga91y8yZM43dOHm/kGwvGkhFJzm2bicVry/oeOSRR4zd+PP+WP89Hei9apXN7PxhaXDW9SSzvjYdOvWZ1hytKyUlJeZtKNl+fGql3wdb9zEsYNLP/NLgxipqP/7xj+FyqegVcdb1ZHOJ+t/+7d+etB5EiwlaPhXrOpRONYZe65ax/tiwsi4/Xtb1j+Wv//qv4XrcYp26y/rv6Uh1I3PCE088AZdNxU8NTps4Wlc6rOtKZn1tOsaaqkuPaSZXH1ulM5F5EMGkn/mlwSVmTB9NNo+SR/fO6Hdp6LWppHOTscrmKcDWdSi9Ygy91i1/9Vd/ZezGyfs1GrsnNbaufyzW5d1mnfvU+u/pGOv7twTrcmPxU4PL9taa//2//7exOF6nsr4+HelMtqysy6UrrPNSwqSf+aXB/cM//IOxKF6f0gdSouVS0WmbrOvRM0X02lROO+20k9aD2HUGp9tDr3VLqlsOkGyOdyoFBQXGavG2EOvybkv+eDHbWygSy6eSzUwtfmlw2V5ZqvT9ZV1fMuvr05Fug8t2bkplXVcYwKSf+aXBpbpEWmXT4NCFCtmcwel3PNb1INl8pGFdh6qrq4OvdUuqGToQ6/J20NlYrNsZjXVZt1nfZ9Z/T4dO/Ju8DuSWW26By6bilwZnXT4T+jw56/qSWV+fjnQbnLIumy7resIAJv3MLw1urI8hsmlw+vh/63qy+Q5urH1LsC6XDus6lE4fhV7rJus+jUa/n0TL28G6rdHo0yPQ8m6xo8Hp1GrJ60CymfTADw1uPBcBOTU/KhtcdmDSz/zS4PSBo9b1JMumwaHZKrTpodeOxboeq4ceegguNxbrepTeUI5emy29ulObgN7g/s/+2T8TvX9Nz9L0jFOfDK63YOil7fpMO/2eJN2PKLMdy3TpjDPWbSLZPFcuFTReibHSm8+t42VHgxvrYziVTaPwusFNmDABLp+uxNPyU7Euk450G9x4pvWzrisMYNLP/NLgxrp/5KyzzoLLpaJnQtb1ZPtdwFi/aHppPVpuLNb1qGyapU7ua12P06z74ISxPp5S2VzebV2HnbK9mMK6Hivr69PhVYPTuRrRcpmyrhexLpOOdBtcNnUnwbquMIBJP/NLg9MJTK3rSZbN/VY68711Pdk+UiXVRyXjmY/Suq4E6+vGkum9Y+OV6WNP9MpMPTNE/5aKTu9l3bZVNme8o03jZodsnnWn9B5N67oSZs2aBZcZi1MNTucI1dl79CxeLV261Jwuzs6ndOgfo9b9RazLpSOdBpftkzOU3mdnXV8YwKSf+aXB/c3f/I2xKF6f0ifmouVSGe1NbH1duvSjKeuUWDpHHnptupLXlayoqAi+PpWpU6cai+L1paIXOGiBsuZHox/Joe2nouOU7dOtL7/8cmOzeF8SrMuk44orrjAWxetLRWfD0SdAW/MJ+mRotL10WCeX1vup9AIs9Np0ONXgnDbavLSIddl0pJrEWx+WPN57K1NN5h1kMOlnfmlwY917NW/ePLhcKqM9YiObZukU674lZHtTrH5XNNpjc5LpBMzJzz8b6zaNZIllMjGeZVVi+dHoJwBoubHotF2pHqaZoEVPnwWWWE5vura+JlnidV4LYoNLd2KFBOvyfmDdx7CAST/zS4PTZ4xZ15NMb5xEy6Uy2iM2srnc2inWfUuWzUd6VnpRhDYvvYhHLyxBr1E5OTnGJvF+JMtmnsXkM8tsH5cy1r2Iv//97+FymdL3YX5+vvlf9O8JzzzzjLFZvC/KyatLMxHEBqd/fFn3MxXr8l7L9pOUIIBJP/NLg9OnMVvXkyyb7yBSPUNKCz9axm3W/Urm5lOh9XEs1u1bZfvYojvvvNNY/M/rsf57usa64EQbE1rOCc8++6yxSbwfyuvp1hKC1uD0413rPo7Fug6vWfcvTGDSz/zS4PQJ3tb1JMv0gZYqVYMb74NK7WLdL6tsbkzPhk4zZt22lXWZdKDjms3Hzeov//IvT1pXshdffBEu54SxGpzSM2e0rJuC0uD0IbN6Sb51/9JhXZeX0BNMwgQm/cwvDW6se690Pki0XCqpGpxK/k7FK9Z9QtwolHrln3W7ybJ9SKx1nkaV7XRW6pJLLjlpfcnuuusuuJzd0mlw2V6xa6cgNDi9Qtq6X5mwrs8r6T5HMchg0s/80uD0plnrepJlc+n1WA1OZfOcOSTbKwSt+zMaLVRoebtMnz7d2Aze9urVq+EyY0k15Ve2T6hW1nVZufHxYDoNTmX7IFwrPRM+5ZRT4L+l4vcGl+op+emyrtML+hR4636FEUz6mV8anH4nZl1PsmxmcUinwanxzoSR+MvNmk9HYh/SoVdHonXYIdUzrKyvTZe+D6zrSsh25hel38da14eM5/L6saTb4NR4HhOj9I8wXY++z9C/p+LXBrdy5Upj83ifMmVdt5t0hiXr/oQZTPqZXxqcXt5uXU8yfSghWi6VdBucyuYpA1p49Lu8xDqs/56OxLLpeuCBB8zJn9G6xmO0Bmd9XSas67Iazx8W6cxwovTMOptJsMeSSYNT1157LVzPWE4//XRj8e/WEfQGp58S2HHGZmXdjtN0koMofByJwKSf+aXBjTWDfTYfaWXS4JR+Z5LOBRDa2NAsKdbXpcO6jnTp88Pmz59vzomI1jsWLfrV1dUnXeGYbPHixXDZdOgDaq3rs7r55pvhsunQ7wSt60tF73XL5qnwCfoQWJ1pRC9ksa47E5dddplZINE2kulH8hs2bDAW+fOyfm5wOn+nztmpM5nosx11//Vm6uuuu070O1frdu1k3Zfx0J9D5x/VC5p0Fh29Mlcbs15BfMcddxibw/sQFTBJwXPfffeZlyzrzeL6V7QWe52S6J577jH+GS/jpXvvvdd8LtmaNWvMj030Xpzy8nKzicViMdHCqvf/WWdiiSo9o9LjqTe76x8KOnOMTjW1aNEis5Fdc801ZvMf6363bOnsMXo8dIYXfcKFHjM9dsnPliPyG5gkIiIKOpgkIiIKOpgkIiIKOpgkIiIKOpgkIiIKOpgkIiIKOpgkIiIKOpgkIiIKOpgkIiIKOpgkIiIKOpgkIiIKOpgkIiIKOpgkIiIKOpgkIiIKOpgkIiIKOpgkIiIKOpgkIiIKOpgkIiIKOpgkIiIKOpgkIiIKOpgkIiIKOph0y7HKHwkREUWPtR84ASbdgn5oIiIKP2s/cAJMugX90EREFH7WfuAEmHQL+qGJiCj8rP3ACTDpFvRDExFR+Fn7gRNg0i2dy8vhD05EROGltd/aD5wAk27pObsC/vBERBReWvut/cAJMOmWvitWwR+eiIjCS2u/tR84ASbdMnjTBfCHJyKi8NLab+0HToBJtwzfex384YmIKLyG77vOaAG4L9gJJt1y4um74Q9PREThpbXf2g+cAJNuQj88ERGFl7UPOAUm3YR+eCIiCi9rH3AKTLoJ/fBERBRe1j7gFJh0E/rhiYgovKx9wCkw6Sb0wxMRUXhZ+4BTYNJNnUvK4AAQEVH4dC6ZbJR+3A/sBpNu6m4/Aw4CERGFj9Z8ax9wCky6qe/SZXAQiIgofPouW2aUftwP7AaTbhq44Rw4CEREFD5a8619wCkw6aahu66Gg0BEROEzdNc1RunH/cBuMOmmE0/cDgeBiIjCR2u+tQ84BSbdhgaBiIjCx1r/nQSTbkODQERE4WOt/06CSbehQSAiovCx1n8nwaTb0CAQEVH4WOu/k2DSbWgQiIgofKz130kw6baOxmI4EEREFB4dC4uNko/7gBNg0m3d8XlwMIiIKDy64/ONko/7gBNg0m29Fy+Cg0FEROGhtd5a/50Ek27rv3YtHAwiIgoPrfXW+u8kmHTb0O9/BgeDKMw6qoncdazq5Pehm4Zu/5lR8nEfcAJMuu34I7+Fg0EUZsfjOUSu6q6fAN+Lbjn+6K1Gycd9wAkw6QU0GERhhgoQkZM6a71tcNa67zSY9AIaDKIwQwWIyEnmx5TgvegWa913Gkx6AQ0GUZihAkTkJPQ+dJO17jsNJr2ABoMozFABInLKcDMbnGfQYBCFGSpCRE4ZWjMRvg/dZK37ToNJL3TU5cMBIQorVISInDKwytsGpzXeWvedBpNe6GqaAweFKKxQESJySv9ybxtcV9Nco9Tj+u8UmPRC7/l1cFCIwgoVISKn9C31tsH1XlBvlHpc/50Ck17ov7oFDgpRWKEiROSU3sXe3gPXf02LUepx/XcKTHph8NbL4KAQhRUqQkRO6VnobYPTGm+t+06DSS8c33ATHBSisEJFiMgp3Q0eT9O14Waj1OP67xSY9AoaFKKwQkWIyCldddGapkvBpFfQoBCFFSpCRE7pqMHvQ7dY670bYNIraFCIwgoVISKnoPegm6z13g0w6RU0KERhhYoQkROiOE2XgkmvoEEhCitUiIicMLSGDc5zx6q8nyuNyC2oEBE5YdDjabqOVU80Sjyu+06CSa90rZyBB4cohFAhInLCwAqPp+laNcMo8bjuOwkmvdJzThUcHKIwQoWIyAl9y7xtcD3nVBslHtd9J8GkV/quXAMHhyiMUCEicoLX03T1XdlklHhc950Ek14ZvPliODhEYYQKEZETPJ+m65aLjRKP676TYNIrw3+4AQ4OURihQkTkBK+n6Rq+/wajxOO67ySY9MqfNt4LB4cojFAhInJCFKfpUjDpJTQ4RGGEChGREzojOE2XgkkvocEhCiNUiIiccKwKvwfdYq3zboFJL6HBIQojVIiI7DYci+YsJgomvYQGhyiMUDEisltUp+lSMOklNDhEYYSKEZHdPJ+my2Ct826BSS91LpsKB4goTPTZXKgYEdnN62m6tKZb67xbYNJL3WvPgoNEFCaDqyfCYkRkt36vp+lad5ZR2nG9dxpMeqnvpyvgIBGFCSpERE7oXeLxNF2XrzRKO673ToNJLw3ceB4cJKIwQYWIyAk9i7xtcAO/Pt8o7bjeOw0mvTR8zy/hIBGFCSpERE7obvR4mi6jplvrvFtg0ksnnroTDhJRmKBCROQEr6fpOvHUXUZpx/XeaTDpNTRIRGGCChGRE6I6TZeCSa+hQSIKE1SIiJzQEdFpuhRMeg0NEtFYjlb8ww8ZucNVE+VQ5QQ5WPEj06HqXNlbnSe7K3N+YGddiWxdOEW+biiTTbUl8nlVoXxakf+911rr5PnmKnlq2enycONcebB2ltxfPUP+UDVd7q2cllKqeGjJ9DE9vHSGPLZitjy+co480zxfXmg/S149p0o+XH+GbG6eLFtXFZm2rymRnbEy2d06Vfa3TZGj8SLpaM7/ga54ofS1FEh/LEcG4rmmwXieDMcm/gAqlBQ8UZ6mS8Gk19AgEVkdrs2X3bWF8k1lruyoypOtZnOaJJ9XF8unlYXyYW2ZvLxsnjy16FTZUFUu91eYN5wyjHh0yTR5auUsebHlNHln3emyZXWxoUi2NZXI7nipHIwVyWGjIaqO1mLpay+BBZT8baiJDc530CBRNOkZmJ5dbanMk88Xlcvbi2fLizVT5I8Vk+QJo3Ex3IknW38sr6+YLO82z5BN7bNlV3OJ7G0qlEOtpdLXVgSLK3lPJxRAv1duMgLWeTfApNc6F02CA0XhdaCuUHbWl8jmynx5P1YhT64403grMIIUr689Q7a1TJO9sWI53D5F+tn4POf5NF2LS/WtAeu8G2DSa92tp8HBouA7YpyRaTP7tipPthtnZi//JG4cckaY4+0LG2RP2zTpaCmWwZZ8WIjJGV5P09Xddpq+BWCddwNMeq33kiVwsCi4Dtbmy6srzDc7gyFv/jwOCzLZq2+Jtw2u95KlerhhnXcDTHpt4Pqz4WBRMBxcWCqbYmfKcwvnyIaGucYhZTBSx/vnVsixs8tlOJ4LCzVlx/Npuq5fr4cX1nk3wKTXhu74ORws8p5eeq+X3e+vypE9NfmyvX6SfFFZIO+sWCCP1c82Dh+DMf7YuGKGfNoyS76Nl8nheLF0xwukL54nA7FcNsEMeD1N19CdV+nhhHXeDTDptROP3QYHi9ynVzHurcqVnVV58nVNsXxcM0meXHiKcZgYDHfjkZVz5Y+rZsnnbbNlT3OxHNV7+kbu4UPFnXKkq97jaboev00PHazzboBJP0CDRe44Up1jnpl90DBVnqubbhwOBsOf8YxxpvdO03TZ0TJVDhlnev28X+8HOmvx77hbjID13S0w6QdosMg5++sKZcvCKfJirNoYfgYjuPFG2wLZv7ZcBlryI392F+VpuhRM+gEaLLKPTmV1qGqibG6cIo/yQhBGSOOzWLl0tRTKUFshbAChFvFpuhRM+gEaLLLPey08U2NEK15vmScDrQW4GYRQ1KfpUjDpB2iwaHw+WTxTHl56ujG8DEZ047nYPDncOkmGQVMIk6hP06Vg0g86GgrhgFFq5gz6lRPkQFWO7KrMkY9qJhnDyWAwULywZrZ8s7pIjrSUSF8sV4biuaH53m5gpbcNrqOhSIcY1ne3wKQfdDWfAgeNTqbfpx3USYlrCuSLxqnyfF25MYQMBiOTeGTlHPmgebrsiZdKR7ww8Gd4/cs9nqYrZk6GDuu7W2DSD3ovbISDRj+kje2zhinydP1MY9gYDIZd8cbKKbKtfab0tATzApW+pR5P03VRow4jrO9ugUk/6P9FGxw0+s6eqjx5O1ZpDBWDwXA6PjLO7Lpbi2Ej8atej6fp6v9luw4drO9ugUk/GLrtcjhoUabfr+1YNVeeXjLfGCKGX+KuimlpubuyXO6pmm56YHH6GP4JnUWltyUYV2J6Pk3X76/QIYP13S0w6QfHH74FDlpU7anOk6eXcTZ+p+KxWINsPHu5vHr+KvlkxanyVUXeD2yuKpCtNUXmI3521E+SbxtLjbPoXNlXOVH2VkxIi75W5/BU3c250tWUkx7jtcdaS8xnrB1sLZP9LaWyL14iu5sKZdeagh/Y2TJFXruiSZ6/eNnIT8ZwIr46+1Q53uLvOTG9nqbr+MO/0aGC9d0tMOkXaNCi6NOVPGPLJl68bK18FTvTnBR6r9Fc9mlzqc41HTT+f500OkHn3NQpytTRKucLAypIdtArAIda8k2DI5MTJ/THcqTHOPvojudLVyzvewfWTpPXf3XRyKgxMolPm6ZIf6s/v6OL+jRdCib9Ag1a2OnHkAeNgqtXRL69kBeOjBaPnd8sX7TXyO7KHNlrnN3ury0wmxQaUz9CBclPBoyi3d1SJJ2xAjnWlCd71k6Xpy9vGRl9hjX0o8uOeJH5R4VfbjPoqMbvPbcYAeu6m2DSL9CghdURw26jqX1YN1kejvhjZzbUzpJnV5whb5+9SLZX5squuiLZ31AiR2pyzVsi0PgFDSpIQaKFvLNtkhyJF8u+pgLZ1D5bnms6VR5bGu3vDF9umiO7mkuMM+N8z28zQO87NxkB67qbYNIv0KCF0cH6Inl/SXSa2hOL58ur1ZPl7aoS+XhhuXxdN0l2VOWZjexQbT4co7BBBSks+tpLzO8MD6zJl32xEvm6dYZ8sqrUnCrriebofI/8SdM06Yp78/HlcBMbnIJJv0CDFiaHq3NkU22J8aOGLzbUzZaN9TPl7eXz5KvKfNlSXSDfGE1st3FGdqAmzzhj9fYLcK+hohR2/S0F5sTHHc155kNM9UKZ7c2l8l58tjy/IpyTEzy2co7sby6SoRgeE6dwmq7vwKRfHKvJhQMXBtuWhuf7tceWnS6vV5bIB3WTZXtdseyuzv/uQo6qieYTC/RjxbB8tGgXVJSiRr+r0o/xBuK55jRZerZztLlAjjTly9fts+SdNeXy+OpwPFz34/hM6XPx9gLPp+mqzdMfG9Z1N8GkX3StngUHL8j0QoiPa0uNHy+48WxztWxaNF12Go1sT2WOHDCamX6HqPRnZDMbGypKNNL09EpQ44xn0Gh8PbE86YgZfzAZZ3u7morkxStbR96FwYtHV82VbuPnQT+33byepqtrjfmVC6zrboJJv+g5rwYOXlDp1ZF/XGLOzxaoeHbdEtlZV2JeraiX1B/RszLw81H6UFGi1LTxDbbkSb+e7RlNb9t5wXwyhl5xiX4+O3k9TVfP+bX6o8K67iaY9Iv+q2Jw8IIkMbv/t7VFsmFxcL5gf2f16bK3Jj9Ql94HCSpKlJ3+9hI5Gi+SLRdWjLx7gxEHYkXmx7NO3FbQu9jjabquiuuPCOu6m2DSLwZ/cwkcvKDQs52vG6fIxpppxo/j73hp6anyda1xlrZoMvxZyF6oKNH4DRsNo7OlWDa3z5Jnm/z//d3bzTPlaMz+Jxf0LPS2wQ3+9lL98WBddxNM+sXwAzfCwQuCb2sL5UUfP7Zm48qzzGfFfVMdrBukwwIVJbJfT2uR7GsqlK/aZsrrzf69FWdr63TzbA79DNnwfJquB3+tPxas626CST9Bg+dneoGFXnzxQMNcY/f9E08snGte3LKlulB2VeXKwboCuP/kDlSUyDn6MeBAS74cjRvv/9gkebfJfzekv7W63LyVAu1/pjprvW1wRsB67jaY9BM0eH62t67Q2G3/hJ6l6bRfOsGv3nvGKxz9ARUlckfi1gS9J+9Qc4F82T5bnl89a+Q3xvvoaZ8E9zsTnKbrOzDpJ2jw/MwP8Un9ZNleP2mkqfGyfT9CRYncZ96WYDS7vnie+ZSG11oXjPwWeRtd8fGdyaH3nJuMgPXcbTDpJ2jw/GpDzQxjl72LrY2T5VB1rnnlJpuav6GiRN4yb0PQMzujuXx5+eKR3ypv4pGl06U3lt13csPNbHAJMOknaPD8RC/Q2FWdb+yqd7FtyXTz3jS0f+RPqDCR/xxs9W5ShldXTs1qLsuhNd7XAiNgPXcbTPoJGjy/OFSVI+8umWPspvvx9MK55seQaL/I/1BhIn/S7+z2xL1pdE+1nCFH4kUZ3Svn9TRdx6om6K7Deu42mPSTzuXleBA9drDiR/Ju9SRjF92N9+qnyq764u+nxaJgQoWJ/K2vtVB2tU2Tt9e6O4PKQ8tmmvNzon1CvJ6mq3OFeYUqrOdug0k/6Tm7Ag6il/Q7rk9q3H0KwEeLZsieas7CHxaoMFEw6MNgD7eUyOa4uxM4dMTSu/DE82m61lfq7sJ67jaY9JO+K1bBQfTSnlr3bgV4r26K7DK2x+/YwgUVJgoO/chwSGdNiRfIh83uTeiQzi0EXk/T1fez1bqrsJ67DSb9ZPCmC+Egeul9Fz6afKOhXHZXfTdLP6+IDB9UmCh4zBvIjUa3L+7O1xUvryyH+5HM82m6br5IdxXWc7fBpJ8M33cdHESv6NO3nY7NNUXmBM1o+xQOqDBRcCUa3WfnOz/h85aW1E2uu8Hb2jH8h+t1N2E9dxtM+smJp++Gg+iFQ7X58mCjs4+70VlH0LYpXFBhonDQJ5Y7HfqcPLRt1VXnbYM78cw9uouwnrsNJv0GDaLb9MnUzzZVGbvjTDy5cK7srS+G26bwQYWJwmOgrUjebHJu4of3m8rN5+KhbXOarj+DSb9Bg+gm/Q7svRrn7oN5f9EMfiQZMagwUbj0t+TLh3Hn5rjc31QA749D7zc3GQHruBdg0m/QILppb1WOsRv2x+PV02RbdYEcrWJzixprUaJw6ovny6bVzlyA8t7KMnNqseTtcZquH4JJv0GD6Kbn6+3/qGFD/RzzsTW8QjKakosShZs2oW2rnbk47XDzD8/iOE3XD8Gk36BBdIveg+ZE6JWSesM42iaFX3IBpPDT6b4+WTd/5LffvviyqewHTwMfXMUGlwwm/aZzyWQ4kG74ZOU8YxfsjbdrJ3NGkohLLn4UDXpj+Jtr7H/Qam9byffbGFjh8TRdS6foLsE67gWY9Jvu9jPgYDpNm9Czdfa/IXfVFcHtUXQkFz6KFrtDP6ZMrLtvmbcNrnvtmbpLsI57ASb9pu+yZXAwnbbbaER2xycL/Tl5NLkrueBRtBxrtfeik61tM75ft+fTdP10ue4SrONegEm/GbjhHDiYTttSW2xs3t44yDklyZBc8Ch6nm+aO1IR7An9+FPX6/U0XQO/Ok93B9ZxL8Ck3wzddQ0cTKd9VmXvGdwXdaVwOxQ91oJH0fJNs71ncQMjN317Pk3X3b/Q3YF13Asw6TcnnrgdDqaT9PL9TyoKjM3bF/tr8uG2KHqsBY+i5YjNH1P2x75br+fTdD15h+4OrONegEk/QoPpJL2E/8PaMmPT9oU+6RZti6LHWvAoWnQuSTvjyLmzzPV21uD3m1uMgPXbKzDpR2gwnXS4aqK80mTvzOBoOxRN1oJH0dIbyx2pCvbE3nPmmOs9VoXfb24xAtZvr8CkH6HBdJI2uOdXmpe82hZoOxRN1oJH0dIXt/cM7tu1MzhNFwCTfoQG00na4P5oc4PjzCWUgIoeRYfdH1FqgxtawwZnBZN+hAbTSU40uIPVuXBbFD2o6FF0HG2x9xYkbXCcputkMOlHHY3uPivNiQb3WU0J3BZFDyp6FB3fNpeMVAV7Qhuc19N0dSwyrwyF9dsrMOlH3fH5cFCd4kSD0zhS7f3HCOQ9VPQoOt6KzxmpCPaENrh+r6fpalmguwLrt1dg0o96L14EB9UpTjW4bbWch5LY4KKs3+YLTDS0wfUu8fY2pN6fLNZdgfXbKzDpR/3XroWD6hSnGtxTNeVyhM+AizxU+CgatsTMGfdtDW1wPYs8nqbrunW6K7B+ewUm/Wjo9p/BQXWKUw1OY1PtJLhNig5U+Cjc9Llte9fPHqkC9oY2OK+n6Rq64+e6K7B+ewUm/ej4I7fCQXWKkw1OY3t1gRwB26VoQAWQwmuwtUC2xu0/c0uENjivp+k6/tjvdFdg/fYKTPoVGlSnON3gNHY0lLLJRRQqghROva1F8snZ5gUYjoU2OE7TdTKY9Cs0qE5xo8FpbGsoMyd2RvtA4YUKIYVPX0uBfLh2/shvu3OhDa6D03SdBCb9Cg2qU9xqcBpfVfPKyqhBxZDCRZ/R9ll8+shvubOxs30GfJ+5yQhYt70Ek36FBtUpbjY4jS+rCuWosU20LxQ+qCBSuOxsnTby2+18fNPGBofApF+hQXWK2w1O483G6fy4MiJQQaTw2N8+deS32p3Y0cIGh8CkX3XUuffAUC8anMZrC2fJvuo8TswccqgoUrANxvOkK5YvL66z9zFb6cT2mLcNrqPefDg0rNtegkm/6mqaAwfXCV41uER8WF0iu6py5SgfkhpKqEBS8AzHJpozkxxoLpQ3YvZOv5VJbG/ytsF1NZ+iuwHrtpdg0q96L6iHg+sErxtcIl6vnSI7awrhPlJwoWJJwdPVUihvxeeO/LZ6F9vWeNvgei9s0N2AddtLMOlX/Ve3wMF1gl8aXCLeqymVg5W8CCUsULGk4OiO58uXa8pGfju9jy2rpsP3mVv6f9GquwHrtpdg0q8Gb70MDq4T/NbgNO6tniFfVxXK4Up+bBl0qGiS/3XGCuTd5hkjv5H+iS0rvG1wQ7+7XHcD1m0vwaRfHd9wExxcJ/ixwSXisYY5sr2mkBeiBBgqnuRP+j3bQEu+fBFz77L/TGPzcm8b3PGHbtHdgHXbSzDpZ2hwneDnBpcc+xvcfRAs2QMVUvKnjrbSkd82/8bXS8vh+8wtRsB67TWY9DM0uE4ISoPTeGjhqfJ1TbEcqMqRI5UTeC9dAKBCSt7TGf/7Y/odW4F8e/Yceabp1JHfMn/HV4vZ4BCY9DM0uE4IUoNLjo31M2VTVYH5tIJ9lRPNhod+PvIWKq7kDf0Isqel0LzU//OmKfLUau+visw0vlzEBofApJ+hwXVCUBucNd6unypba4vlYE0e/DnJG6jQknuG47nS2Voiu1omyxdGUwt6sMFhMOlnaHCdEJYGlxw6S8rm2hLzZ0M/M7kHFV1ynp6pfdM+Q16OmTcmhybY4DCY9LNjLhXnMDa45HhiZYVsXTJdDlfnwJ+fnIWKLzmjv71EDsSK5IULl4y8+8MXnja4mhzdBVivvQaTfta10p079sPe4JLjlaYK2dVYymnBXIQKMdlnIJ4nR1pK5Klm55/F5ofwssF1rZ6luwDrtddg0s96zqmCg2y3KDW45HgmXi97lkyFY0L2QUWZxq+rvVSeW18z8m6OTnjZ4HrONccb1muvwaSf9V3ZBAfZbk40uB21RSP/Kxjx5KoK+WLhNNldUyAHKibIwcoJcqQ6x7zBnLcijA8qzjQ2vYx/KKaX8uea02UdNs7SPl43X55bNXPkXRuMOHp2+cj/sie8bHD9P2/WXYD12msw6WeDt1wMB9luTjQ4Xe+3RrN4fGEw7q1B8fTy0+Xt2inyVW2J7KgukF2VObK/KkcO1xWcNIY0OlS86Yd09hC9H+1YS5F5Cf+O9hnyYXO5vLrC3Wet2Rmbf1Ijwy150hfPG8nYE142uMHf/ER3AdZrr8Gknw3/4QY4yHZzqsGpQ9W58kltqTxcbe9fcV7GH5tr5P2qYtlUXyY7agplfy2fUJ4KKuhR1tdaaDayQ80FsnPdLPmieaq81jJv5N0V/PioaZo5j6Xec2f+vCFqcMMP3Ki7AOu112DSz/608V44yHZzssEl7K+cKJ8tnCZPLgzejaXpxENGA39hyTx5q7lCtlbmybdG0ztsNHfrOESRtcBHSd+6MjnaXiZ7movls/a58uKa2SPvmPDFW6vLZV+8xLzo5QdjEKIGZwSs1X4Ak36HBtlubjQ4pWc5+hHf5poieaTBuwcmuh2vt9bJVuNM75vKXNlXXxS52xWSi12Yda8tlcPGWdmO9afIi2dXjRz98MerrQtk97qZ5neFaFzY4NwBk36HBtlubjW4BL1wY5/R6D6qmTTy6mjGq/Ea2d0wSQ7pBS3GMQjro4FQ0QsqnRVkcMTW88+QZ9ZVjxzN6MXrzbPlQNtk6W8pMMcFjZdig3MHTPodGmS7ud3gEo4Y9Izu06Xh/dgm09hQM0OeX3mGfNxaJQcaikNxBScqekGx/6LT5f0LauSF+Hx5crn/no3mRTzTeqYcatGPIkdvasnY4NwBk36HBtluXjW4ZIcrfiTbFgX3ijG34smacnlp4Wx5e/UZstUYL72yc7dhT1Wu7KvJl4PVueYZYTI9vuaTF4xx1obpdtNERc9uekGD0svqh1ryjDOsPBmI5X6vzzjL6G4pkq54oXkBREdzvhxpnSRbz5kn77SeKq+smi4vLOf7b6z45vzTzDFGx2A0bHDugEm/Q4NsNz80uIRD1Tny9rLg3lrgl7inYprpwbrZ8tji+fLcwjnySmWpvFZRLK9XTpI3q8vkvYZp8tHimfKJcQa9afkc2VZbZH5PmGxnVZ58W50vu2oKvre7tvAH9tQVmc1VLyTaXzHhJD3Nud/rjuVJp9FoOttKpKO1+Af0ykJ11GhCR4wmdNhoQj9kbHvtDNlmNKXN606RL9tny6fN5fLR6inywcoyeX9Fqby9plxeaD1dNsYXyOOr5srDS2fIhiXTR0aFkW3o8RhsK4QNbCxscO6ASb/rXOb8TBt+anBKzza0YH5UWyqPLgzXRLFhjvsqpsofKqed5JEl5d9jBCfeXbtADrSWZXzGZhWWBte53HzKOazTfgCTfte97iw42HbyW4NL0I/S9NE3O40ziE/qyuSROnMeOAaD4VD8cfVs2dI+UzpaimWwJe/7e9nGIywNrufsCt08rNN+AJN+1/fTFXCw7eTXBpdMJ0c2bzGoLpSXa/ldCYNhV7ywepZ83j5XDscKpTeeb36HiRpVtsLS4PquWKWbh3XaD2DS7wZuPB8Otp2C0OAS9EIJnSdyd12RfFlTYvxy/nhkiwwGI5P4tG2ueTVk30hTs+NsDQlLgxu46QLdPKzTfgCTfjd8zy/hYNspSA0uIXE14CFj3w8YZ3Zb6kpGtsxgMFKFTtrc21Jg+5naaMLS4IbvvU43D+u0H8Ck35146k442HYKYoND9FaDvVW58sdFvDCFwUiOvWunS7/RaPQJBagJOSksDe7E03fr5mGd9gOYDAI02HYKS4NLpo+62W00u9fWLhzZIwYjWvHRugXS1TbJk6aWLCwNzghYn/0CJoMADbadwtjgkunPt6VxsrxeX27eF8ZghDFeWj1LtsSnyqFYkfS3l8Bm4wU2OHfAZBCgwbZT2Btcgn5np1diflNdIJtqiuWj6hJ5chFvKmcEM15omiubWmbIvuYi6Wotdu07tUyxwbkDJoMADbadotLgrPSKTG14u6ryzGe7vV47RR5dFJ7ncjHCFa82zZZtzaVysLlQOuLOXNLvBDY4d8BkEKDBtlNUG1wynfhZZ/PfX51rzu24deEU+bhmkjzbMHPkJ2Iw3I232hfI1jUlciheLF3xAulvMRpa7Lt5N1Ej8Ss2OHfAZBB0LiqFA24XNjhMz/B0smJ9tI+e5X21hLPJM5yLN86pkv2tZWYz07OzxEwiQWtoVmFocJ1LynTTsD77BUwGQXfraXDQ7cIGl4GqCebZnk4htq2hTJ5cHZ0HWzLsja/PmS/HmvOlt7XIfJ6a11c7OiUMDa67/QzdNKzPfgGTQdB7yRI46HZhgxu/fXWFsr0qX95bv2hkBBiMH8bmtXPkWEuxDLTkB/6sLBNhaHB9ly7TTcP67BcwGQQD158NB90ubHD208f+fFtbKFuNpvfhktnyfN10ebrS/JiDEeLQ58p92DJbdsQny/74JOlaPw0W/SgJQ4MbuOEc3TSsz34Bk0EwdMdVcNDtwgbnngM1ebKjKk82VxXI59XF8nFloXxYVSwbV5wh91fzOz6/x6PLZ8kbrfNkU/MU2do0Sb41GtmB5kI5ZOhuK4nUmVm6wtDghu66WjcN67NfwGQQnHjsNjjodmGD80ZiPk1zAmmj8e2tnGjOvrKjOl+2VhpNsLpQ3lt2irzSMEOerSiVp2rM51ExHIwX1syWV1dMkfdb5sjW9lmyp7lIDsSKzEmJu1oKpSuWJ/0tBd99ZxaCC0DcEIYGd+KJ23XTsD77BUwGBRp0u7DB+Uty4ztiHBs9Pno150Hjv3tr8mWX0QS/1VsZ6kvl84bvbmd4r6JQ3qmdLE+v4tMVRotXLlosn6+ZLJtWFsvmpjLZ2TrVaF7FcrS5wLyvTM/AdGb9gViuDBpFechoYlqg2cTGJwwNzghYl/0EJoMCDbpd2OCCS5ug2Qi1IVZNkENVOXKgOlf2GWeDeysmfHdWWFMgO2sKZUdVvmyryJWtPzaao+GLhdPk8YtaR45Y8OKpq8+V937RLvvW5Mv+pgLzo8KDxtmWzpZ/rHWSdDXnSrdxxtVjNK2+1kIZMOiVikN65jVSfNm8nMcG5w6YDAo06HZhg4sm8yzRvO3hO/o0hmT6KKL9DcWyt3GS7GkokV11ReaFM/odotpemZuWg0bzGY1+d6UOG43pSLzYbEwdbaXStXay9K0tNc+iBmM5P6C5hOMt351lkX+xwbkDJoMCDbpd2ODISajoUXSwwbkDJoMCDbpd2ODISajoUXSwwbkDJoOio6EQDrwd2ODISajoUXQEvcF1NBbrZmFd9hOYDIqu2Klw8O3ABkdOQkWPoiPoDa47bj5hBNZlP4HJoOi9sBEOvh3Y4MhJqOhRdAS9wfVebE6/B+uyn8BkUPT/og0Ovh3Y4MhJqOhRdAS9wfVfu1Y3C+uyn8BkUAzddjkcfDuwwZGTUNGj6Ah6gxu6/We6WViX/QQmg+L4w7+Bg28HNjhyEip6FB1Bb3DHH7lVNwvrsp/AZJCgwbcDGxw5CRU9io6gNzgjYD32G5gMEjT4dmCDIyehokfRwQbnDpgMEjT4dmCDIyehokfRwQbnDpgMEjT4dmCDIyehokfRwQbnDpgMEjT4dmCDIyehokfRwQbnDpgMko6aXHgAxosNjpyEih5FR5AbXEddvm4S1mO/gckg6Vo9Cx6E8WKDIyehokfREeQG19U0RzcJ67HfwGSQ9JxXCw/CeLHBkZNQ0aPoCHKD672gXjcJ67HfwGSQ9F8VgwdhvNjgyEmo6FF0BLnB9V/dopuE9dhvYDJIBn9zCTwI48UGR05CRY+iI8gNbvDWy3STsB77DUwGyfADN8KDMF5scOQkVPQoOoLc4I5vuEk3Ceux38Bk0KCDMF5scOQkVPQoOoLc4IyAddiPYDJo0EEYLzY4chIqehQdbHDugMmgQQdhvNjgyEmo6FF0sMG5AyaDBh2E8WKDIyehokfRwQbnDpgMGnQQxosNjpyEih5FBxucO2AyaNBBGC82OHISKnoUHYFtcNUTdXOwDvsRTAZN5wr7Dy4bHDkJFT2KjqA2uK6VM3RzsA77EUwGTc/ZFfBgjAcbHDkJFT2KjqA2uJ5zqnRzsA77EUwGTd8Vq+HBGA82OHISKnoUHUFtcH1XNunmYB32I5gMmsGbLoQHYzzY4MhJqOhRdAS1wQ3ecrFuDtZhP4LJoBm+7zp4MMaDDY6chIoeRUdQG9zw/Tfo5mAd9iOYDJoTz9wND8Z4sMGRk1DRo+gIaoP708b7dHOwDvsRTAYROhjjwQZHTkJFj6IjqA3OCFh//QomgwgdjPFggyMnoaJH0cEG5w6YDCJ0MMaDDY6chIoeRQcbnDtgMojQwRgPNjhyEip6FB1scO6AySBCB2M82ODISajoUXSwwbkDJoOoc8lkeECyxQZHTkJFj6IjiA2uc9lU3RSsv34Fk0HU3X4GPCjZYoMjJ6GiR9HRG8sdqQr2hBsNrmfdWbopWH/9CiaDqO+yZfCgZMuJBne4Jg9ui6IHFT2Kjs7WkpGqYE+40eD6Ll+pm4L1169gMogGfnUuPCjZcqLB7a7Khdui6EFFj6Jjb3PxSFWwJ9xocAM3nq+bgvXXr2AyiIbuugYelGw50eBea66E26LoQUWPomNL3Pw+y7Zwo8EN3/NL3RSsv34Fk0F04onb4UHJlhMNTuMgP6YkAyp6FB0bz180UhHsCTca3Imn7tRNwfrrVzAZVOigZMupBvdh4zQ5CrZH0YKKHoXfsOFg2+SRamBfuNHgjIB1189gMqjQQcmWUw1OY3tlHptcxKHiR+G3d930kSpgb7DBYTAZVOigZMvJBvd4w2zZXVMAt0vRgIofhduBdeUjFcD+YIPDYDKo0EHJlpMNTuONmslysAJvm8IPFUAKr85Y/shvvjPBBofBZFChg5ItpxucxicVBXIEbJvCDxVBCqcuo7k9tnzmyG+9M8EGh8FkUHUsLIYHJhtuNDiNj9fVy9GqCXAfKLyGYxNhMaRw6Yvlyosrpo38tjsXTje4zsWluhlYd/0MJoOqOz4fHpxsuNXgNN5aPg/uA4UXG1z4DbbkyRtrzxj5LXc2nG5w3a2n6WZg3fUzmAyq3osXwYOTDTcbnMZTtdPNC0/4kWU0sMGFl94K0NlSLG83zRj57XY+nG5wvZcs0c3AuutnMBlUA9euhQcnG243uER8WFUsByonytGKf4D7ReHABhc+ekyPxovks9VlI7/N7oXTDW7g+vW6GVh3/Qwmg2ro9ivhwcmGVw1O49GaGfJV3STjbI7fzYUVG1x46BlbV0uhfNFk/w3c6YbTDW7ozqt0M7Du+hlMBtXxR2+FBycbXja4RDzfMFO+5f1yoTTUxAYXFvvi9j4ZIJtwusGdePw23Qysu34Gk0GGDk42/NDgEvHaqjPlkLE/aD8pmAZXs8EF3WA8V7a0OjMzSabhdIMzAtZbv4PJIEMHJxt+anCJ2FFbxO/mQmJwFRtckB08Z9bIb6U/gg0Og8kgQwcnG35scBpvN84wzuZy4D5TcPAMLpgOr3fvyshMgg0Og8kgQwcnG35tcIl4qXGWbK0pkv2VE+WIsa88swsWnsEFw1BLnvTE82VPbNLIb54/gw0Og8kgQwcnG35vcMnxSsMM2VxbLPuMMzs+pSAY2OD8a6AlX461TpI9zcXyTtu8kd8yfwcbHAaTQdZRZ7w5wQHKVJAaXCIerJstry+cKdtqCnmLgc/xI0p/0ds2eloKZEd8irwamzvyGxWccLLBdTQU6SZgvfU7mAyyrqY58CBlKogNLjnuriyX1xbPkT1VuWx2PsQzOP/oapskX8emjPzmBDOcbHBdsVN1E7De+h1MBlnvBfXwIGUq6A0uOTY2zpYdPKvzFTY4b/XHcmXH+aeP/IYEP5xscL0XNeomYL31O5gMsv5rWuBBylSYGlxyvL/qNDnGpxd4jh9ReqOrpUhebwnG92qZhJMNrv+X7boJWG/9DiaDbPDWy+BBylRYG1xyfNY4VQ7V2vOdJWWGZ3Du2npRxci7PpzhZIMbuu0K3QSst34Hk0F2fMPN8CBlKgoNLjneWjhTvqoukp0Nk8zJng9WTuBz6hyEijBlZzieK0OGAUNPLE8Ox4pkW3yqvLXGH7OMuBFONrjjD/9GNwHrrd/BZNChg5QpJxrcw4uC89HIE41z5K2GctlUWyLf1BbJnsocOViTB8eKMocKNaWvL54nHfEi2Rcrli3r5sibTTPl2TVzRt69/o9nVtt7paaTDc4IWGeDACaDDh2kTDnR4A5V58oHte4/SsOueHzxPHm1qlQ+aZgqO+uK5UCtPr+OZ3nZQEWbMD1D64oXytHmAtl27gJ5b800eW7VzJF3ZbDi2TVzZee6WebN43YGGxwGk0GHDlKmnGhwul5tCN9U55szkYQhHmmYI++uOVO+Nc7w9lXnydFqTiOWDlTI6c962oplf0upvNsyR55cOXvk3RbceKJpgeyMlZr32uk9d3oGamewwWEwGXToIGXKqQandFotPZvbWj9JXqkP3/cEz66ukC3LZppjyCs2MVTUo0iLvT5PrW9dmXx9ab080zxfHlw0beSdFI7YFC83nxc3FPvzz80G5w6YDDp0kDLlZINL0Gm1DhlndLuMs58XGvw5iasd8VjlFHnBOGPdsXQ6G96I5CIfRYcunCdvtc2Xx9eE75L9RDwfX2B+T6iP1bE+4JYNzh0wGXTHqsf/7DQ3GlyyI9U58sGy4E0RlG3ozeevVJbKZ6vmy94lU+GYhFlysQuzvrZi+ersU+W9VcGeKSSTeKq9UjpjBWZjQ2OigtLgOmrN/YR1NghgMui6Vs6ABysTbje4hD01BfLEwlNGlohmvFA9Rd5onCHvLTtFtlTmyfaaQtldXyL7a/LkgHHGqw9/NRn/+3CFcawMQbvYBRU9P0lcej8Yy/mO8b8HjKKsM4D0NedIZ3upHGmfLAfiJbKrqUi+ajWOV9N0ebl1wchRjGZ8u36OOW5oTJMFpcF1rTG//4R1NghgMuh6zqmGBysTXjW4hN1Go3utKdw3p443nm6YLS8YZ4Gv1k2Td5fOlc/rSuVroyFu1qZYWyQ760qMPxjyZV/lRNP+qhw5UJ0rh4xGqY8YQuPuFlT03NDfWii98XzzfrHu5lzTsfYyOWw0q/1Gs9rbXCS74mXyVfsc+ahltry1aqq8vrxMXllVPjLqDBQ7W6bIQFsRHHMkKA2u57xaXT2ss0EAk0HXd2UTPFiZ8LrBJextnCSfVxXKI7XBvCzaD/GHqnK5v3KabKiZIY81zpWnF8+Tl+rK5dWKYnmtskTeqp0sHy6eKR8vnS2bVs2TrYumya6qPPO70YTdVbmytzpP9hoN80BdoRysL5LDNblZP4cPFb3RDLXkS397iXllYU9rkXS3FJmXzXfE8qWjWeWN/Ddfdp83T7afd5psXneKfN4yQz5aPUXeX1km762YJO+unCwvtp0hG5tOkceXz5BHl5SbGNnFc/EFsjU22fyDAR23VILS4PqviunqYZ0NApgMusFbLoYHKxN+aXBKi6g+621T4xT5Y110Zmfwe2xoPEUeq5wqj1VMztizS6em7akQXCYfltDL/b9om22c7U6SXuNsGDWvdASlwQ3+9lJdPayzQQCTQTd8/w3wYGXCTw0uQafO0im09J6zD+unyuNNNSNrZjAYTsZrzbNld+sU8+x50GhOqGllIigN7viDv9bVwzobBDAZdH/aeB88WJnwY4NL0DO6I8Z/D9Tmy47qfNm47LSRLTAYDDtj6+piOdxSIv1GQ9L79VCzykZQGpwRsMYGBUyGATpYmfBzg0tmNjtjX/UjzA9WhPeeIgbDrXghvkAOtpaZTch6/5pd2ODcAZNhgA5WJoLS4KwOG2d1O2sKZeMl5jOcGAxGmvHaOVXmFaV2nqmNhg3OHTAZBuhgZSKoDS6ZXhL/Xv3Uka0zGAxrbFxbKbvipdKzrgw2IqewwbkDJsMAHaxMhKHBJei8l9urC+TDusnyUgjnvmQwMokPW2bLzpbJ5i0XqPm4gQ3OHTAZBuhgZSJMDS7B/L6uOse8+XlrXYm8vXCGPNQY7VlTGOGPF2Onyo41xeaz43TSYzuughwvNjh3wGQYdC4b3/yGYWxwVvoz7jPO7r6pypPPFk03n/XGYAQ9nonNly+ap5ozs3TFC4xmkm9+r+bUBSPZCEKD61xhftoD62tQwGQY9Kw7Cx60dEWhwSUkbjvQOR33GWd331bmyhcLp8nDq6tG9pzB8Hd8taZUdsdL5VhzvjmzSDrzQXopCA2uZ32lrhrW16CAyTDou3wlPGjpilKDQxKP8tlvnOHtrCmQzxeH93E+jGDG9vWnmB859rd8N1WWn87QxhKEBtf3s9W6alhfgwImw2DgxvPhQUtX1BvcaA5V5cjmhjJ5fsmpIz8Vg+FObI5Nkf3tU2HDCJogNLjBmy/SVcP6GhQwGQbD9/wSHrR0scGlZ9eiKfJZdbG80mx+nMFg2BKPNy2QT1pmyZ7WydLr4dWOTglCgxu+73pdNayvQQGTYXDiqTvhQUsXG1zm9GPNffVFsrm2RD6unyyvV5fJCzXRedAlI7t4s2mmfB6fLjtipXJg7TTpc/meNC8EocGdeOYeXTWsr0EBk2GBDlq62ODGRy9c0Yan04jtqS2UHZW5sqW2WD6vLpK3Fs+WpxadIg9UThsZGUbY45nVc+XttafL181T5Bujke1umypHYgXSbZyd+eGyfbcFocEZAetqkMBkWKCDli42OGdo09OxPagPH62cKLvrimRLdYF8YTS+d+unyctVZfJcLZ9RFtR4beU0+aB5umxae4rsbio07z3riBeZVzbqxSB6daN5yb6l4EcNG5w7YDIs0EFLFxucO8wzvcTZnkFvVdCrN/fWFcrOqjzZXpEjX1cXmg99fb+Rjc8P8dxlTbKpdabsaJ4ku1qmmPebHY0XSndLoQzEcs0mZjay2MTvoSKfkRZ/X/afKTY4d8BkWKCDli42OP9INMFjVRPkkHFc9Mxvf8UE8yb17fWlZgP8sjJfnj9v1chIM8YbX7TNkZ1rimVPbJIcbJ8qXa3F0tOcaxTmfBk0zsQSN07b1sDGwgaXMtjgMJgMC3TQ0sUGF0zfnxEaDtXkyTeLp8kXDVPkw8oi+aCy0BT1ePPCBvlqzSTZFp8iu9fNlEMXzpeB9mL3mlU22OBSBhscBpNh0bmoFB64dLDBRcv+JVNl25r5smnZbPmoYaq8U1Uib1cWf29j20J5Mt4wciS9jafW1ciz5zbI6+sr5MM1U+XTVZNMn68pk82t0+Wb9XPl4PmnSl97iX8bVsT5vcF1LjWvfoZ1NUhgMiy6W0+DBy8dbHBkl6NVE2T/ojLZs2qO7F4523TsglOl89yZsPili80ruPze4LrXmrUP1tUggcmw6L1kCTx46WCDIyehokfR4fcG13fZcl0trKtBApNhMXD9enjw0sEGR05CRY+iw+8NbuBX5+pqYV0NEpgMi6E7r4IHLx1scOQkVPQoOvze4Ibv/oWuFtbVIIHJsDjx2G3w4KWDDY6chIoeRYffG9yJJ+/Q1cK6GiQwGSbo4KWDDY6chIoeRYffG5wRsJ4GDUyGCTp46WCDIyehokfRwQbnDpgME3Tw0sEGR05CRY+igw3OHTAZJujgpYMNjpyEih5FBxucO2AyTNDBSwcbHDkJFT2KDjY4d8BkmHQ0FMIDOBY2OHISKnoUHX5ucB0LS3SVsJ4GDUyGSVfsVHgQx8IGR05CRY+iw88Nrrtlga4S1tOggckw6b2oER7EsbDBkZNQ0aPo8HOD6/3JYl0lrKdBA5Nh0v+LNngQx8IGR05CRY+iw88NbuC6dbpKWE+DBibDZOi2K+BBHAsbHDkJFT2KDj83uKE7fq6rhPU0aGAyTI4//Bt4EMfCBkdOQkWPosPPDe74o7/TVcJ6GjQwGTboII6FDY6chIoeRYefG5wRsI4GEUyGDTqIY2GDIyehokfRwQbnDpgMG3QQx8IGR05CRY+igw3OHTAZNuggjoUNjpyEih5FBxucO2AybNBBHAsbHDkJFT2KDjY4d8Bk2HTU5MIDmQobHDkJFT2KDr82uI76Al0drKNBBJNh07V6FjyYqbDBkZNQ0aPo8GuD62o+RVcH62gQwWTY9JxXCw9mKmxw5CRU9Cg6/Nrgei9s0NXBOhpEMBk2/VfF4MFMhQ2OnISKHkWHXxtc/zWtujpYR4MIJsNm8LeXwIOZChscOQkVPYoOvza4wd/9VFcH62gQwWTYHH/g1/BgpsIGR05CRY+iw68N7vhDt+jqYB0NIpgMI3QwU2GDIyehokfR4dcGZwSsn0EFk2GEDmYqbHDkJFT0KDrY4NwBk2GEDmYqbHDkJFT0KDrY4NwBk2GEDmYqbHDkJFT0KDrY4NwBk2GEDmYqbHDkJFT0KDrY4NwBk2GEDmYqbHDkJFT0KDp82eBqcnRVsH4GFUyGUeeKzN4AbHDkJFT0KDr82OC6Vs3UVcH6GVQwGUY96yvgQR0NGxw5CRU9ig4/Nriec2t0VbB+BhVMhlHfFavhQR0NGxw5CRU9ig4/Nrj+nzfrqmD9DCqYDKPBmy6EB3U02uCeX3WWsah9gbZD0YSKHkWH3Q3uq8XT4fssE4O/+YmuCtbPoILJMBq+7zp4UEejDe6VVTyDI2egokfR0RvLHakK9sTWZZk/Esxq+IFf6apg/QwqmAyjE8/cAw/qaI4aPqiZZCxqX6DtUDShokfRYXeD29tQAt9nmTAC1s4gg8mwQgd1NEcr/kE+qTCfbmtbHKgrhNui6EFFj6KjI140UhXsiUOVE+D7LBNGwLoZZDAZVuigpvJpZaGxmH2xoyofboeiBxU9io49zcUjVcGeYIPDYDKs0EFNZUtdibGYvXGoaiLcFkULKnoUHe83zxipCPbEETY4CCbDCh3UVHZV2Xulk8am2hLz+z20PYoOVPQoGo612vvd/ie1peZXKuh9lgkjYN0MMpgMK3RQUzlUlSNPNM4xFrUv7q2eIXuqcuH2KDqG1xbD4kfh1m/z7QEaO2rs+W7fCFg3gwwmw6pzyWR4YFP5qG6ysai98Vp9uRzkR5WRNgyKH4XbUGuBPLeucqQK2BMPL14gB6vH/wdz5/JpujpYN4MMJsOqu/0MeHBT0bMtJ+Kbqjy4PYoGVAAp3L5ca++nQRrvLZwhR6vG//1bz9kVujpYN4MMJsOq77Jl8OCmop9tP18z1Vjc3nisaqrsr+RZXFShAkjhtavZ/gvWNLbVjf/+N9V3xSpdHaybQQaTYTXwq3PhwR3LHgcuNtF4tmqKHKgY/19fFDyoCFL46EfRe2L2XlSSiI2Ns237qmPg1xfoKmHdDDKYDKuhu66BBzcdr9SZn1HbHg9WTpPNS2fy9oGIQcWQwmUgnitb4s7UDY3NNl6RPXzvtbpKWDeDDCbD6sQTt8ODmw69kdLJeKnhu6sreQtBNKCCSOHR01YsHzaXj/x22x8v1k83zt5y4HsrGyeevltXC+tmkMFkmKGDm65dNfZO3WWNDbWzZFt1AZtcBKCiSOGwp9X+K6+tsbOm0JZ73xKMgPUy6GAyzNDBzYR+qet0fFpXZj7NAG2fwgEVRgo2fQTOG82zRn6LnYtPakpsmbkkmRGwXgYdTIYZOriZ0LOrd2ud/wvt9UWzbJlfjvwJFUgKrn1xZy4kscaTTTVy2IG6YASsl0EHk2GGDm6m9lblGKtyJ75cPR/uAwUbKpIUPEPxXPly7dyR31bnw46buhEjYL0MOpgMM3RwM6WffX9RmW+szp14oXqK7KnOkyNgXyiYULGkYBiOTZShWI70xPLk9ebZI7+lzscBBz/RMQLWy6CDyTDrWGjPjZGHa/Pl5WXzjFW6F8/Xz5At1YXmDeJ2fsFM7kOFk/xt0Dhb64rly9Y1JfLiyukjv5XuxLe1zj1LsnNJmW4C1sugg8kw626x7yO/fTX58sLiU4zVuhsbambIu5VFsrmhzLGPLMhZqICSPw3E82RPvFTeWe3cPW2pYkvjZFum4xpNd9vpuhlYL4MOJsOs9+JF8CBn60BNnry/zL3P4K3xaONc+aKmxHzyAdo/8idUSMlfulsKZXdziTyzwt5nt2USW+tLHbmoJFnfpct0U7BeBh1MhtnAtWvhQR6Pw9U58vVi527qTDc21ZdxRpSAQAWVvKdTa/XE8+XNVd6crSXH1vpJtt8OgAzccI5uDtbLoIPJMBu6/Up4kMdLP0LYW50nj9S4+9k8ipdXnyWHavPhfpI/oOJKHmrJlUPryuXZtrNGfou8DX3YshvNTQ3ddbVuEtbLoIPJMDv+6K3wINtFr3b0S2xsmC3baovgfpK3YJElT3S1l8rza9y7GnKs2OfyRWQnnvi9bhbWy6CDybBDB9ku+sbUv778Fp/UlZlzXR6u+JF5uwGvwvQWKrTkLL28Xz+CHIjlysHWMvmiacrIb4c/4tPqEjlS7f536UbAOhkGMBl26CDbbU9dkTzeYP8DDscbD1WXy4uNM+WDmkmyvbrQ/GtRv7fj/JfuQgWY7GPeqxbPlf5YjnTH8+VI6yT5OjZFXmv23++kxueNUx29UjIVI2CdDAOYDDt0kJ2gZ0qf1Ds/rdd4Q58r9W5ViXzVOEV2V+fJgepc1z7/jypUlLPSkovzEdXXViSH4sWyNTZZ3l8zTV5a4f3FIqni2aZ58o3HE6wbAetkGMBk2KGD7BT9KHC3cTb3weKZxqaDEQ/Wz5GXGmfJVwunyr7aAjY7B6DinJUINzjz48aWfOmKF8jm9fPlzZVT5cmYeU9XIOLz1lnSuabI809PjIB1MgxgMuzQQXaafra+vaZQHllymrELwYqHamfKm2vOlAONk/jdnU1Qwc5KSx7Oh9iw8TMfOHuGvNW+YOQdGqx4pWmOHGgtk0Hj5xhY4f1tPUbAOhkGMBl2HXXeXEKvf6ntrcmXNxc5/0gNJ+OxVZXy6eIZcqDOuemDwg4V7qxEpMEdPO8U+ahltry23JxWKrDx7doZ0h/PM88+9efqX+Ztg+toLNbdgnUyDGAy7Lqa5sKD7RZ91pveTvBsQ7AbXSKeWzhH3qmbIttXzOYZXpqsBTxrIf2IsuPsafLJ2lNH3mHBj8/OOd2cGSXR2BJ6l3j78X933JxPF9bJMIDJsOu9oB4ebLcd0VsK6sy/oEIXHzZMlc2LpplnrAcrJ3x3pWbVBLMBsglG8wzOvEw/iU5e3BvPl8PtU+Sb+GT5LO79JAlOxIG2KUZjw3+I9CzytsHp1IVGwDoZBjAZdv3XtMCD7aVPFno/1ZfT8czy0+WNhunyUV2ZfF5VaE4Wvau2UPZWTpR9VTly0KAPeT1iNEOFxiksULHLio8anF6Wr01rQBtXS4F5eX5nc555VeOueKlsbSo1mtgMea+pXN4M+EeN6cSW2BTzezY0Vgndjd42uP5r1+quwjoZBjAZdoO3XgYPtpf0rGZXZY683ODdxK5eh16A82z1VHmlfrq8vXi2fFpZIF9UF8mOhlLzI119TJA+PeFwTR4cwyBBxS4rLn5EqWch/S355nPQlD46Ri/2+CZWKl83lclH8Zny5upyeXl1dN/DGp+um280+vT+8Oiq97bBDf3+Z7rLsE6GAUyG3fENN8OD7QdavLWgf1RdIn+ojnahsMa9leXyUMNceXLpAnm5cpLp7cbp8sXyObK7vkQOGA1QHwp5qDrHkxkhMoGKXVZsPIMbMpqXXnbfF8s17T9/nnn5/UfN0+XdVZPljdXT5Y/Np8qjy2fJBh9MLu6neD42T7bFp0p3W0lGf3R01uD3h1uOP/Jb3X1YJ8MAJqMAHWw/Ma+4NAr25upCeX6Rd4/jCXJsrCyT5wwv1ZXLO8vnyafxCtm5cg4cb7ehYpeVDBvcQGuh7Lv4TPnygh/L+61zjaZVLq8sn2xiZB6vrCyXPbES6WkpGPV7tlQ6qvD7wy1GwPoYFjAZBehg+5WemehzoZ5Z4u4TxKMUT6yulFeMM8JXKkpMrxr/+42ayfLeopny4dI58sXqBfJ17AzZvWKWLWeHqNil69ClP5ZvL/6xbDvvNPly7Vz5JDZdPlg9Rd5dUfq9N5rDcYWuX0Nv0j4QKzLPdK1XRqZrOOb9pwxGwPoYFjAZBehg+5me0elHb7tqCuT95h8bPwKDwXA7dsYnS5d5ub/R2GITYeNK11ATG5zTYDIK0MEOCm12B2oLZHPdJONHYTAYTse362ZKn34MOc6mlmxwNWcxcRpMRgE62EGkzW5To78e+8FghCGeXV8rO8+eY158gxrUeA2sZINzGkxGwbHqcN1npTdRb6splNcXz5GHGk8xfkQGg5FpPNc8Tza1zDAvGkFNyU6eT9NVl68/MqyPYQGTUdC1agY86GGgtxpsry2Sj+sny5N1vNWAwUgVeom/3sd3MF5i3iZh58eQqfQt8bbBdTWZz8aD9TEsYDIKes6phgc9TPR5dPurcmRHdYF83DBVnqvlvUsMhsYHTeXmDepHm/OlJ240NdCAnNbr9TRd59fpUMD6GBYwGQV9VzbBgx5GOkuKPtNNp8HSuS/13rp3FgXn+XQMhh3xadMU2R0vNa+C1OnEhmK48bjF82m6rm7RYYH1MSxgMgoGb7kYHvSwS0x2fNhodvv1o0zj7O7dNWcaQ8JghCuebTtLtsUny5GmfLOped3QrLyepkunLDQC1sewgMkoGL7/BnjQo0ivxNQzvH3VeeYUYQxGkGNbyzTzKd/a0Nz6Pi0bnbX499EtxzfcpMMF62NYwGRUoINO39lbVygfNU4zhonB8He81jxbtp9/uqsTT9uhoxr/7rnFCFgXwwQmowIddDqZfqS5bekMebeqRJ5v4Hd3DO/iyWXT5dXmOfJ18xTpaJuU1fyPvsBpulwBk1GBDjqlph9nHtTv7moK5dO6Mnm7ulReqeGN5gz74/GmBfLOmnLZ1DxVdjZPksPrppnPnPPiike7cZoud8BkVKCDTunTZne44kfm1Zn7avJlZ2WufFVTLO82lsuzC+fIgw18CgIjvXhm9Vx5s3W+fLWmVL5pmSKH2iab36Pp1Y6BPUtLgdN0uQMmowIddBofs+kZDe+gXqVZnSs7G8vk66pC+ayyQN6unSxPLT3NGHpGlOOd1dPko9WTZUvrdNkTmyRHWydJbzzfaGZ55oUhfrva0QmcpssdMBkV6KCT/RK3JuiN54eqcmSvcbanTy/f0jhZPq0rlbdryozDwQhjvHHxYtke+26WkI54ofS0FsngyD1o+lGjXuXo5ysdndK/3OMGVzVRDw+si2ECk1HRuWwqPvjkikTjU3rWpx91frukXD5dOlveqC6V1yp5y0JQ4oW1FfJZfLrsPmeu0cSKzY8WB/WMTD9ijGADG0vfUo+n6VppTuEH62KYwGRU9Kw7Cx588p+9i6fIp2tOlxfrp5tP6mZ4E6+tni4frVsgey6pkKFW5yckDiuvp+nqOadKDyesi2ECk1HRd/lKePApWHRy6Z3LZ8nny+aYH3e+XlFsnv091zBTHq2fLQ9Wlcv9FVONQ85IjoeXzpAnls+QZ5tOkRdbT5N3m4zmtarMnE3/m/MWSE+7XoaPCzSNT4/H03TpVIVGwLoYJjAZFQM3ng8PPoWDPkJIZ2jRKz3V3oYS2d44WTbXlsgXlfmmj+vK5L2FM+SdxunyVv00ebW6TF6pnCQvV5TIS9WT5Yk11cZbxd/xcnyevL2iTN5ZUSrvGv99b9UU+aipXD5rmSWb2ufK1qZS2bG6UL5ZXSS7Y5Pk4Npp0rW27LuLOvT7MP0YsSWPzcxhQ2smmh9NdjcYza0Kv2fdolMVGgHrYpjAZFQM3/NLePApOswmWDXxe/pdoPl9YOL2h9oC2VdXKHtqCmRXVZ58W5krOytzoG+Mf9vWUCpfLZlh+nLxdNMXC8vl88ap8lnDFPm0/jv6/29vmy472mfIznWz5NuzZ8uu9XPM77AONRea8yeO5mhzgRyLFUpnS7F0t5WYT5oeiOUacswLOBKGtGm1OvOwThrbsHE8BlZMlJ5FE6SzBr//vDL8hxuMEojrYpjAZFSceOpOePCJsqW3SSTOHMeSOHtKZp5J8aKMwNL72/Q5b15PpDyWP2281yiBuC6GCUxGCTr4RG5ABZKCZbj5u0v+exZO8HxuyUxY62BYwWSUoINP5AZUMMn/BldNlN7FE6Srzt9naalY62BYwWSUoINP5AZUPMl/htYYZ2nLJpoPKO3w+OIQu1jrYFjBZJSgg0/kBlRMyQf04pCVxlmaXhzi8TPbnGKtg2EFk1GCDj6RG2BxJU8M6cUhiUv4wbEKG2sdDCuYjJLOxaXwDUDkNFRoyR3mxSF6Cb9eHOKzS/idplMUWutgWMFklHS3ngbfBEROQ4WXnGNeHLIk2BeH2KF73VlG6cP1MGxgMkp6L1kC3wRETkNFmOyjDxXVS/jNi0MCdAm/0/p+usIofbgehg1MRsnA9evhm4DIaago0/iYF4cs1otDon2WlopOUWitg2EFk1EydOdV8E1A5DRUoCkz5vyOegm/D+Z3DAqdotBaB8MKJqPkxOO3wTcBkdNQwabU/Dy/Y1DoFIXWOhhWMBk16E1A5DRUwOlkQZnfMSis9S/MYDJq0JuAyGmomFNw53cMCmv9CzOYjBr0JiByGiruURWG+R2Dwlr/wgwmowa9CYichgp9VJiX8IdsfsegsNa/MIPJqEFvAiKnocIfWhGY3zEorPUvzGAyajoaiuAbgchJsBGESNTmdwyCzkWlRsnDdTCMYDJqumKnwjcDkZNQUwgyvTjEvIR/IS/h9yudmtBa/8IMJqOm96JG+GYgchJqEkHz/fyOvIQ/EHRqQmv9CzOYjJr+X7bBNwORk1DD8DvO7xhsA9efbZQ8XAfDCCajZui2K+CbgchJqIH4Eed3DA+dmtBa/8IMJqPm+MO/gW8GIiehZuIHQ2tyOL9jSJ147Daj5OE6GEYwGUW9lyyFbwgip6Dm4gXO7xh+PWdXyPB91xmlDte/sILJqBv6/c+kOz4PvlGI7IKajVvM+R2Xcn7HsOpcMlkGfnWuUc5wjYsKmKQf6r+mVTrqC+AbiShbqPE4hfM7hl/vT5bI8cd+Z5QsXMeiCCZpdMMP3Cg959XANxhRJlAjshPndww3vX9XL5Cz1ij6M5ik9A3efJF0rpgO34BEqaCmNB6c3zHcOmrzpP/quFF2cC2ik8EkZUcfJNj30xXwzUlkhZpURji/Y+j1nFMtw/f/yigvuOZQajBJ9hi662rpbjsdvnGJYNMaw9Aazu8YZp3Lp8nAry8wygeuKZQZmCRnDFy7TjoWlsA3NkUPamBWnN8x/PouWyYnnrjdKBG4blD2YJKcd/yhW6T3wgb4hqdoQA1N6cUhfZzfMbS6WxbI0B0/N8oArg1kH5gk9w3+9lLpWj0b/kJQOCUaGud3DLeOhkLp/0Wb8WuOf/fJOTBJ3vrTxnul78o1cqyKf8GHGed3DK+e8+vk+IM3Gb/O+Hec3AGT5C/D914rPet+DH+RiMh7XStnyOAtFxu/rvh3mLwBk+RvAzecI51LyuAvGhG5o+/ylXLi6buMX0n8e0reg0kKjuOP/k56f7IY/gISkX2628+QobuuMX7t8O8i+Q9MUnAN3Xa5dMVOgb+gRJQ+vaVn4Lp1xq8V/l0j/4NJCg+d2ken+EG/wET0Q70XNsrxh28xfnXw7xMFC0xSOA3ff4M59Q/6xSaKoq41s0Vv0bH+rlA4wCRFg04JpFMDoV98olCqmmDegqO34lh/Hyh8YJKi58QTd0jfZctxUSAKML3FRm+1sb7nKfxgkkinEupuXQALBpGf6S00eiuN9T1N0QOTRFb9v2yXjoYiWFCIvNb7k0Vy/NFbjbcqfv9SNMEkUSrHN9wkvefXwUJD5Iau5lNEb4mxvjeJksEkUSYGb/mJdK2aCQsRkR06anKl/6qY8XbD70EiBCaJsnXimbul74pVsEgRZaJnfZUM/+EG422F32tEY4FJIrsM3/0L6V57JixgRMk6l02VgRvPN942+L1ElCmYJHLKwPVnS+eiUljgKHr6Ll0qJx7/vfHWwO8XovGASSI3HH/kt9J70UJY+CicuuPzZej2K43Dj98TRHaCSSIvDP7up9LVNBcWRgqmjvoC6b+m1Ti8+JgTOQkmifyg/+fNcqwmBxZO8q+e82rl+AM3GocQH1cit8Akkd8M33e99KyvhAWVvNW5YroM3nyRcZjwsSPyCkwS+d3AjedJ59IpsOCS8/p+ukJOPHWncSjw8SHyA5gkChK9Cq/30qWwEJM9uttOl6E7rzaGGx8DIj+CSaIgG7r9Z9IdnwcLNaWno7FY+q9dawwnHmOiIIBJojDRq/j0aj5UyOnPei+ol+MP3WwMGR5HoqCBSaKwGn7gRvMqP1Tgo6Zr9SwZ/M0lxrDgsSIKOpgkigq9+q9r5XTYAMKo72er5cQz9xg/Oh4PojCBSaIo0qsC+y5fCRtDUHWvPUuG7/ml8ePhn5kozGCSiOQfDd11tXn1IGocftW5uFQGrl9v7D7+mYiiBCaJ6GQD166TjoUlsLF4qffihaLzelr3lyjqYJKIUjv+0C3Se2EDbDhO0/k6dd5O6z4R0Q/BJBFlZvC3l0rXmtmwIY1bTY7ovJzWbRJRajBJRNn708Z7pe/KNXKsagJuWGnoWV8hw/ddZ6wOb4OIxgaTRGSf4XuvlZ51P4aNLEHn1dT5Na3LElH2YJKInDNwwznSuWSy9F6yRE48fpuRwq8jovGBSSIiomCTf/T/AbfMXW/c0az2AAAAAElFTkSuQmCC;clipPath=inset(16.67% 4.88% 0% 5.28%);" vertex="1" parent="_lWbAJVXqIwsSRs-UyT6-1">
          <mxGeometry x="30" y="90" width="40" height="45.24" as="geometry" />
        </mxCell>
        <mxCell id="_lWbAJVXqIwsSRs-UyT6-4" value="" style="group" vertex="1" connectable="0" parent="_lWbAJVXqIwsSRs-UyT6-1">
          <mxGeometry x="20" y="44" width="250" height="69" as="geometry" />
        </mxCell>
        <mxCell id="_lWbAJVXqIwsSRs-UyT6-5" value="catalog" style="rounded=1;whiteSpace=wrap;html=1;glass=0;sketch=1;curveFitting=1;jiggle=2;fillStyle=hachure;fillColor=#ffe6cc;fontStyle=1;fontSize=16;strokeColor=#d79b00;fontColor=#D79B00;" vertex="1" parent="_lWbAJVXqIwsSRs-UyT6-4">
          <mxGeometry width="90" height="30" as="geometry" />
        </mxCell>
        <mxCell id="_lWbAJVXqIwsSRs-UyT6-6" value="projects" style="rounded=1;whiteSpace=wrap;html=1;glass=0;sketch=1;curveFitting=1;jiggle=2;fillStyle=hachure;fillColor=#ffe6cc;fontStyle=1;fontSize=16;strokeColor=#d79b00;fontColor=#D79B00;" vertex="1" parent="_lWbAJVXqIwsSRs-UyT6-4">
          <mxGeometry x="80" y="15" width="90" height="30" as="geometry" />
        </mxCell>
        <mxCell id="_lWbAJVXqIwsSRs-UyT6-7" value="features" style="rounded=1;whiteSpace=wrap;html=1;glass=0;sketch=1;curveFitting=1;jiggle=2;fillStyle=hachure;fillColor=#ffe6cc;fontStyle=1;fontSize=16;strokeColor=#d79b00;fontColor=#D79B00;" vertex="1" parent="_lWbAJVXqIwsSRs-UyT6-4">
          <mxGeometry x="160" width="90" height="30" as="geometry" />
        </mxCell>
        <mxCell id="_lWbAJVXqIwsSRs-UyT6-8" value="auth." style="rounded=1;whiteSpace=wrap;html=1;glass=0;sketch=1;curveFitting=1;jiggle=2;fillStyle=hachure;fillColor=#ffe6cc;fontStyle=1;fontSize=16;strokeColor=#d79b00;fontColor=#D79B00;" vertex="1" parent="_lWbAJVXqIwsSRs-UyT6-4">
          <mxGeometry x="160" y="39" width="90" height="30" as="geometry" />
        </mxCell>
        <mxCell id="_lWbAJVXqIwsSRs-UyT6-9" value="" style="endArrow=classic;html=1;rounded=0;entryX=0.5;entryY=0;entryDx=0;entryDy=0;fontColor=#0069D1;strokeWidth=2;strokeColor=#d79b00;exitX=0.5;exitY=1;exitDx=0;exitDy=0;startArrow=classic;startFill=1;fillColor=#ffe6cc;" edge="1" parent="1" target="_lWbAJVXqIwsSRs-UyT6-2" source="cNBURYP05xd2yMikfwmv-27">
          <mxGeometry width="50" height="50" relative="1" as="geometry">
            <mxPoint x="420" y="416" as="sourcePoint" />
            <mxPoint x="492" y="52" as="targetPoint" />
          </mxGeometry>
        </mxCell>
        <mxCell id="_lWbAJVXqIwsSRs-UyT6-10" value="Database request" style="edgeLabel;html=1;align=center;verticalAlign=middle;resizable=0;points=[];fontColor=#D79B00;" vertex="1" connectable="0" parent="_lWbAJVXqIwsSRs-UyT6-9">
          <mxGeometry x="0.1714" relative="1" as="geometry">
            <mxPoint x="-5" y="-4" as="offset" />
          </mxGeometry>
        </mxCell>
        <mxCell id="C2Ow9Qgtcv3FiFInrxEH-1" value="" style="shape=image;verticalLabelPosition=bottom;labelBackgroundColor=default;verticalAlign=top;aspect=fixed;imageAspect=0;image=https://samvloeberghs.be/assets/share/posts/workbox_share.jpg;clipPath=inset(26.58% 37.33% 26.58% 36.33%);" vertex="1" parent="1">
          <mxGeometry x="414" y="289" width="34" height="31.85" as="geometry" />
        </mxCell>
        <mxCell id="C2Ow9Qgtcv3FiFInrxEH-2" value="" style="shape=image;verticalLabelPosition=bottom;labelBackgroundColor=default;verticalAlign=top;aspect=fixed;imageAspect=0;image=https://feathersjs.com/logo.svg;" vertex="1" parent="1">
          <mxGeometry x="416" y="254" width="34" height="34" as="geometry" />
        </mxCell>
      </root>
    </mxGraphModel>
  </diagram>
  <diagram id="7nrMusC9DV-MPEXcrGgY" name="Online-Sync">
    <mxGraphModel dx="2074" dy="1166" grid="1" gridSize="10" guides="1" tooltips="1" connect="1" arrows="1" fold="1" page="1" pageScale="1" pageWidth="827" pageHeight="1169" math="0" shadow="0">
      <root>
        <mxCell id="0" />
        <mxCell id="1" parent="0" />
        <mxCell id="RRRLEGIaQqu-76i88Ook-1" value="" style="rounded=1;whiteSpace=wrap;html=1;fillColor=none;sketch=1;curveFitting=1;jiggle=2;strokeColor=#6c8ebf;" vertex="1" parent="1">
          <mxGeometry x="49" y="54" width="761" height="190" as="geometry" />
        </mxCell>
        <mxCell id="RRRLEGIaQqu-76i88Ook-12" value="Backend services" style="rounded=1;whiteSpace=wrap;html=1;glass=0;sketch=1;curveFitting=1;jiggle=2;fillStyle=hachure;fillColor=#f8cecc;fontStyle=1;fontSize=18;strokeColor=#b85450;fontColor=#660000;labelPosition=center;verticalLabelPosition=middle;align=center;verticalAlign=middle;spacingBottom=60;" vertex="1" parent="1">
          <mxGeometry x="70" y="301" width="350" height="101" as="geometry" />
        </mxCell>
        <mxCell id="RRRLEGIaQqu-76i88Ook-13" value="" style="endArrow=classic;html=1;rounded=0;entryX=0.5;entryY=1;entryDx=0;entryDy=0;fontColor=#660000;strokeWidth=2;strokeColor=#b85450;exitX=0.5;exitY=0;exitDx=0;exitDy=0;startArrow=classic;startFill=1;fillColor=#f8cecc;" edge="1" parent="1" source="RRRLEGIaQqu-76i88Ook-12" target="RRRLEGIaQqu-76i88Ook-19">
          <mxGeometry width="50" height="50" relative="1" as="geometry">
            <mxPoint x="244.5" y="284" as="sourcePoint" />
            <mxPoint x="244.5" y="214" as="targetPoint" />
          </mxGeometry>
        </mxCell>
        <mxCell id="RRRLEGIaQqu-76i88Ook-14" value="Service items&lt;div&gt;to be updated&lt;/div&gt;" style="edgeLabel;html=1;align=center;verticalAlign=middle;resizable=0;points=[];fontColor=#660000;" vertex="1" connectable="0" parent="RRRLEGIaQqu-76i88Ook-13">
          <mxGeometry x="0.1714" relative="1" as="geometry">
            <mxPoint y="6" as="offset" />
          </mxGeometry>
        </mxCell>
        <mxCell id="RRRLEGIaQqu-76i88Ook-15" value="" style="endArrow=classic;html=1;rounded=0;entryX=0.5;entryY=1;entryDx=0;entryDy=0;fontColor=#67AB9F;strokeWidth=2;strokeColor=#82b366;exitX=0.5;exitY=0;exitDx=0;exitDy=0;startArrow=classic;startFill=1;fillColor=#d5e8d4;" edge="1" parent="1" target="RRRLEGIaQqu-76i88Ook-12">
          <mxGeometry width="50" height="50" relative="1" as="geometry">
            <mxPoint x="245" y="474" as="sourcePoint" />
            <mxPoint x="244.5" y="412" as="targetPoint" />
          </mxGeometry>
        </mxCell>
        <mxCell id="RRRLEGIaQqu-76i88Ook-16" value="Database items&lt;div&gt;to be updated&lt;/div&gt;" style="edgeLabel;html=1;align=center;verticalAlign=middle;resizable=0;points=[];fontColor=#67AB9F;fontStyle=0" vertex="1" connectable="0" parent="RRRLEGIaQqu-76i88Ook-15">
          <mxGeometry x="0.1714" relative="1" as="geometry">
            <mxPoint x="-1" y="5" as="offset" />
          </mxGeometry>
        </mxCell>
        <mxCell id="RRRLEGIaQqu-76i88Ook-17" value="PWA" style="text;strokeColor=none;align=center;fillColor=none;html=1;verticalAlign=middle;whiteSpace=wrap;rounded=0;fontColor=#0069D1;fontSize=18;fontStyle=1" vertex="1" parent="1">
          <mxGeometry y="40" width="50" height="30" as="geometry" />
        </mxCell>
        <mxCell id="RRRLEGIaQqu-76i88Ook-18" value="" style="group;spacingBottom=9;" vertex="1" connectable="0" parent="1">
          <mxGeometry x="70" y="163" width="350" height="63" as="geometry" />
        </mxCell>
        <mxCell id="RRRLEGIaQqu-76i88Ook-19" value="Frontend services" style="rounded=1;whiteSpace=wrap;html=1;glass=0;sketch=1;curveFitting=1;jiggle=2;fillStyle=hachure;fillColor=#A9C4EB;fontStyle=1;fontSize=18;fontColor=#0069D1;strokeColor=#0069D1;spacingBottom=40;" vertex="1" parent="RRRLEGIaQqu-76i88Ook-18">
          <mxGeometry y="-10" width="350" height="73" as="geometry" />
        </mxCell>
        <mxCell id="RRRLEGIaQqu-76i88Ook-20" value="Sync cache and backend" style="rounded=1;whiteSpace=wrap;html=1;glass=0;sketch=1;curveFitting=1;jiggle=2;fillStyle=hachure;fillColor=#A9C4EB;fontStyle=1;fontSize=18;fontColor=#0069D1;strokeColor=#0069D1;spacingBottom=0;" vertex="1" parent="1">
          <mxGeometry x="294.5" y="70" width="270" height="40" as="geometry" />
        </mxCell>
        <mxCell id="RRRLEGIaQqu-76i88Ook-21" value="" style="endArrow=classic;html=1;rounded=0;fontColor=#0069D1;strokeWidth=2;strokeColor=#0069D1;exitX=0.25;exitY=1;exitDx=0;exitDy=0;startArrow=classic;startFill=1;entryX=0.5;entryY=0;entryDx=0;entryDy=0;" edge="1" parent="1" source="RRRLEGIaQqu-76i88Ook-20" target="RRRLEGIaQqu-76i88Ook-19">
          <mxGeometry width="50" height="50" relative="1" as="geometry">
            <mxPoint x="230" y="-7" as="sourcePoint" />
            <mxPoint x="157" y="-62" as="targetPoint" />
          </mxGeometry>
        </mxCell>
        <mxCell id="RRRLEGIaQqu-76i88Ook-22" value="Service items&lt;div&gt;to be updated&lt;/div&gt;" style="edgeLabel;html=1;align=center;verticalAlign=middle;resizable=0;points=[];fontColor=#0069D1;" vertex="1" connectable="0" parent="1">
          <mxGeometry x="249.5" y="115" as="geometry" />
        </mxCell>
        <mxCell id="RRRLEGIaQqu-76i88Ook-32" value="" style="group" vertex="1" connectable="0" parent="1">
          <mxGeometry x="85" y="182.6875" width="329" height="33.075" as="geometry" />
        </mxCell>
        <mxCell id="RRRLEGIaQqu-76i88Ook-33" value="catalog" style="rounded=1;whiteSpace=wrap;html=1;glass=0;sketch=1;curveFitting=1;jiggle=2;fillStyle=hachure;fillColor=#dae8fc;fontStyle=1;fontSize=16;strokeColor=#6c8ebf;fontColor=#0069D1;" vertex="1" parent="RRRLEGIaQqu-76i88Ook-32">
          <mxGeometry width="90" height="23.625" as="geometry" />
        </mxCell>
        <mxCell id="RRRLEGIaQqu-76i88Ook-34" value="projects" style="rounded=1;whiteSpace=wrap;html=1;glass=0;sketch=1;curveFitting=1;jiggle=2;fillStyle=hachure;fillColor=#dae8fc;fontStyle=1;fontSize=16;strokeColor=#6c8ebf;fontColor=#0069D1;" vertex="1" parent="RRRLEGIaQqu-76i88Ook-32">
          <mxGeometry x="75" y="9.45" width="90" height="23.625" as="geometry" />
        </mxCell>
        <mxCell id="RRRLEGIaQqu-76i88Ook-35" value="features" style="rounded=1;whiteSpace=wrap;html=1;glass=0;sketch=1;curveFitting=1;jiggle=2;fillStyle=hachure;fillColor=#dae8fc;fontStyle=1;fontSize=16;strokeColor=#6c8ebf;fontColor=#0069D1;" vertex="1" parent="RRRLEGIaQqu-76i88Ook-32">
          <mxGeometry x="155" width="90" height="23.625" as="geometry" />
        </mxCell>
        <mxCell id="RRRLEGIaQqu-76i88Ook-36" value="auth." style="rounded=1;whiteSpace=wrap;html=1;glass=0;sketch=1;curveFitting=1;jiggle=2;fillStyle=hachure;fillColor=#dae8fc;fontStyle=1;fontSize=16;strokeColor=#6c8ebf;fontColor=#0069D1;" vertex="1" parent="RRRLEGIaQqu-76i88Ook-32">
          <mxGeometry x="239" y="9.449999999999989" width="90" height="23.625" as="geometry" />
        </mxCell>
        <mxCell id="RRRLEGIaQqu-76i88Ook-37" value="MongoDB&amp;nbsp;collections" style="rounded=1;whiteSpace=wrap;html=1;glass=0;sketch=1;curveFitting=1;jiggle=2;fillStyle=hachure;fillColor=#d5e8d4;fontStyle=1;fontSize=18;strokeColor=#82b366;fontColor=#67AB9F;spacingBottom=50;" vertex="1" parent="1">
          <mxGeometry x="70" y="474" width="350" height="80" as="geometry" />
        </mxCell>
        <mxCell id="RRRLEGIaQqu-76i88Ook-38" value="" style="group" vertex="1" connectable="0" parent="1">
          <mxGeometry x="80" y="344" width="334" height="45" as="geometry" />
        </mxCell>
        <mxCell id="RRRLEGIaQqu-76i88Ook-39" value="catalog" style="rounded=1;whiteSpace=wrap;html=1;glass=0;sketch=1;curveFitting=1;jiggle=2;fillStyle=hachure;fillColor=#f8cecc;fontStyle=1;fontSize=16;strokeColor=#b85450;" vertex="1" parent="RRRLEGIaQqu-76i88Ook-38">
          <mxGeometry width="90" height="30" as="geometry" />
        </mxCell>
        <mxCell id="RRRLEGIaQqu-76i88Ook-40" value="projects" style="rounded=1;whiteSpace=wrap;html=1;glass=0;sketch=1;curveFitting=1;jiggle=2;fillStyle=hachure;fillColor=#f8cecc;fontStyle=1;fontSize=16;strokeColor=#b85450;" vertex="1" parent="RRRLEGIaQqu-76i88Ook-38">
          <mxGeometry x="80" y="15" width="90" height="30" as="geometry" />
        </mxCell>
        <mxCell id="RRRLEGIaQqu-76i88Ook-41" value="features" style="rounded=1;whiteSpace=wrap;html=1;glass=0;sketch=1;curveFitting=1;jiggle=2;fillStyle=hachure;fillColor=#f8cecc;fontStyle=1;fontSize=16;strokeColor=#b85450;" vertex="1" parent="RRRLEGIaQqu-76i88Ook-38">
          <mxGeometry x="160" width="90" height="30" as="geometry" />
        </mxCell>
        <mxCell id="RRRLEGIaQqu-76i88Ook-42" value="auth." style="rounded=1;whiteSpace=wrap;html=1;glass=0;sketch=1;curveFitting=1;jiggle=2;fillStyle=hachure;fillColor=#f8cecc;fontStyle=1;fontSize=16;strokeColor=#b85450;" vertex="1" parent="RRRLEGIaQqu-76i88Ook-38">
          <mxGeometry x="244" y="15" width="90" height="30" as="geometry" />
        </mxCell>
        <mxCell id="RRRLEGIaQqu-76i88Ook-43" value="" style="group" vertex="1" connectable="0" parent="1">
          <mxGeometry x="110" y="504" width="250" height="45" as="geometry" />
        </mxCell>
        <mxCell id="RRRLEGIaQqu-76i88Ook-44" value="catalog" style="rounded=1;whiteSpace=wrap;html=1;glass=0;sketch=1;curveFitting=1;jiggle=2;fillStyle=hachure;fillColor=#d5e8d4;fontStyle=1;fontSize=16;strokeColor=#82b366;fontColor=#67AB9F;" vertex="1" parent="RRRLEGIaQqu-76i88Ook-43">
          <mxGeometry width="90" height="30" as="geometry" />
        </mxCell>
        <mxCell id="RRRLEGIaQqu-76i88Ook-45" value="projects" style="rounded=1;whiteSpace=wrap;html=1;glass=0;sketch=1;curveFitting=1;jiggle=2;fillStyle=hachure;fillColor=#d5e8d4;fontStyle=1;fontSize=16;strokeColor=#82b366;fontColor=#67AB9F;" vertex="1" parent="RRRLEGIaQqu-76i88Ook-43">
          <mxGeometry x="80" y="15" width="90" height="30" as="geometry" />
        </mxCell>
        <mxCell id="RRRLEGIaQqu-76i88Ook-46" value="features" style="rounded=1;whiteSpace=wrap;html=1;glass=0;sketch=1;curveFitting=1;jiggle=2;fillStyle=hachure;fillColor=#d5e8d4;fontStyle=1;fontSize=16;strokeColor=#82b366;fontColor=#67AB9F;" vertex="1" parent="RRRLEGIaQqu-76i88Ook-43">
          <mxGeometry x="160" width="90" height="30" as="geometry" />
        </mxCell>
        <mxCell id="RRRLEGIaQqu-76i88Ook-47" value="" style="endArrow=classic;html=1;rounded=0;entryX=0.5;entryY=0;entryDx=0;entryDy=0;fontColor=#0069D1;strokeWidth=2;strokeColor=#d79b00;exitX=0.5;exitY=1;exitDx=0;exitDy=0;startArrow=classic;startFill=1;fillColor=#ffe6cc;" edge="1" parent="1" source="FeX1M-6nnQ1l-h0BOBjK-1" target="JXNgu1NTZfalHeEMGzlT-1">
          <mxGeometry width="50" height="50" relative="1" as="geometry">
            <mxPoint x="380" y="-104" as="sourcePoint" />
            <mxPoint x="510" y="92" as="targetPoint" />
          </mxGeometry>
        </mxCell>
        <mxCell id="RRRLEGIaQqu-76i88Ook-48" value="Updated service&lt;div&gt;items&lt;/div&gt;" style="edgeLabel;html=1;align=center;verticalAlign=middle;resizable=0;points=[];fontColor=#D79B00;" vertex="1" connectable="0" parent="RRRLEGIaQqu-76i88Ook-47">
          <mxGeometry x="0.1714" relative="1" as="geometry">
            <mxPoint x="-56" y="-1" as="offset" />
          </mxGeometry>
        </mxCell>
        <mxCell id="ZbPmtQ07Ow_DpsoD9w5--1" value="" style="shape=image;verticalLabelPosition=bottom;labelBackgroundColor=default;verticalAlign=top;aspect=fixed;imageAspect=0;image=https://miro.medium.com/v2/resize:fit:512/1*doAg1_fMQKWFoub-6gwUiQ.png;clipPath=inset(0.67% 31.33% 21.67% 31.33%);" vertex="1" parent="1">
          <mxGeometry x="390" y="486.02" width="23.06" height="47.98" as="geometry" />
        </mxCell>
        <mxCell id="xsIrS4CrvWNZYqRCvjt3-1" value="" style="shape=image;verticalLabelPosition=bottom;labelBackgroundColor=default;verticalAlign=top;aspect=fixed;imageAspect=0;image=https://feathersjs.com/logo.svg;" vertex="1" parent="1">
          <mxGeometry x="379" y="305" width="34" height="34" as="geometry" />
        </mxCell>
        <mxCell id="lu4fFPAjVdmFJXkHMREp-2" value="" style="shape=image;verticalLabelPosition=bottom;labelBackgroundColor=default;verticalAlign=top;aspect=fixed;imageAspect=0;image=https://feathersjs.com/logo.svg;" vertex="1" parent="1">
          <mxGeometry x="762" y="64" width="34" height="34" as="geometry" />
        </mxCell>
        <mxCell id="JXNgu1NTZfalHeEMGzlT-1" value="IndexedDB collections" style="rounded=1;whiteSpace=wrap;html=1;glass=0;sketch=1;curveFitting=1;jiggle=2;fillStyle=hachure;fillColor=#ffe6cc;fontStyle=1;fontSize=18;strokeColor=#d79b00;fontColor=#D79B00;verticalAlign=top;" vertex="1" parent="1">
          <mxGeometry x="451" y="301" width="350" height="100" as="geometry" />
        </mxCell>
        <mxCell id="JXNgu1NTZfalHeEMGzlT-2" value="" style="shape=image;imageAspect=0;aspect=fixed;verticalLabelPosition=bottom;verticalAlign=top;image=data:image/png,iVBORw0KGgoAAAANSUhEUgAAAbgAAAIZCAYAAADUYiplAAAABGdBTUEAALGPC/xhBQAAAAlwSFlzAAAOwgAADsIBFShKgAAAABl0RVh0U29mdHdhcmUAcGFpbnQubmV0IDQuMC4yMfEgaZUAAGYiSURBVHhe7d2HnxzlmSfwy3nvbi/s7t3e3e6FtTR5RjMKowySSJ4clONM9wQJkTFgMAZsgjFgY0zGgMhJYHLOGQGKCOU8OUr+A56rp5jGTek3Pd09lev3fD7fxfuoK8xbPc8z1V311j8SESIiotCBSSIioqCDSSIioqCDSSIioqCDSSIioqCDSSIioqCDSSIioqCDSSIioqCDSSIioqCDSSIioqCDSSIioqCDSSIioqCDSSIioqCDSSIioqCDSSIioqCDSSIioqCDSSIioqCDSSIioqCDSSIioqCDSSIioqCDSSIioqCDSSIioqCDSSIioqCDSSIioqCDSSIioqCDSSIioqCDSSIioqCDSSIioqCDSSIioqCDSSIioqCDSYqG3/zmN5Ip6zqIRvPiiy/C99BYrOshyhZMUjQYof8nI9Z1EI3mnHPOge+hVP7P//k/xqJ4fUSZgkmKBmtxSYd1HUSjYYMjr8Gkn1VVVclf/MVfZMy6HtJ6gotMKtZ1EI3GiQanv///4T/8B/nLv/xL+c//+T/LX/3VX8nf/M3fyH//7/9d/uf//J/yd3/3d+Y6/t//+3/yox/9SHJyciQvL08KCgqkuLj4B6ZNmyannXaaNDY2SiwWkwsuuECuvvpqYzN423bRevQf/+N/lP/0n/6T/Jf/8l/kr//6r+W//bf/Jn/7t38r/+t//S/5+7//++9/hgkTJnz/MxQWFp70M0ydOlXmzZsnNTU1smLFCtExv+mmm+Spp54yNoW3HyUw6Wf6Bke/GGOxrod0WPBYpWJdB9FonGpwaDknaFOMx+Py8MMPG5vG+5MN63ac9K/+1b8SHbPf//73xqbx/oQZTPoZG5x9rGOUDus6iEYT9AaXTM+urrzySmMX8H5lwrput2iz07NU6/6EGUz6GRucfaxjlA7rOohGE6YGl0w/zrTuVyas63Obfrxr3aewgkk/Y4Ozj3WM0mFdB9FowtrglO6n3gZh3b90WNfllfvvv9/YHbyPYQGTfsYGZx/rGKXDug6i0YS5wSWcf/75xm7hfR2NdR1e+Sf/5J8Yu4P3MSxg0s/Y4OxjHaN0WNdBNJooNDj185//3Ng1vL+IdXkvlZeXG7uE9zMMYNLP2ODsYx2jdFjXQTSaqDQ4tWHDBmP38D5bWZf1mnX/wgQm/YwNzj7WMUqHdR1Eo4lSg1PWfR2NdTmvXXjhhcZu4X0NOpj0MzY4+1jHKB3WdRCNJmoNrrKy0thFvN/JrMul4/TTT//+opaXXnrJPGO85ZZbzG2i12eitrbWXG8YwaSfscHZxzpG6bCug2g0fmpwOiuIzgSiM3/MmjXL3I7eF4ZeOx7W/UWsy6RDbzi3rifZpEmT4HLp0GWt6wsLmPQzNjj7WMcoHdZ1EI3GTw3Oup5kP/vZz8ypstBymWpoaDBWibeTYF0mHWM1OPUv/sW/gMuOpaioyFgcrzPoYNLPgtLgbr31Vjn33HOloqJCTjnlFFm0aJGsX7/e+Cf8ejs8+eSTcv3115s3op566qmyfPlyc269xx57zPjnk19vHaN0WNeRrUcffVRuuOEGWbt2rfkxy9y5c2XlypVy+eWXy9133228BC8XVTomV1xxhTlG+n7S95WOnR5vHUvr652i+3HJJZeYhfyMM84w39O/+93vjH86+bVBaXAJ+n5Ey2bKul4r6+vTkU6D0995tOxY6uvrjcXxOoMOJv3MiTe4Fgq0TCr615J1PXfeeafMmDEDvj7Zv/t3/06uueaak5bP1sKFC+F2rJqbm42X/3k567+nI3n5TOn46AS3aL2IjvGyZcvkj3/8o7E4XqeVdR2Z+PWvf22sAq83IZv3SoJ1XWPRe6x0Ql60LmTixImiZyPW9YyXPqNNP+JD20ymkxvfddddxiLfLRe0Bqf0vaYTIaN1pEv/uLWuN5n19elIp8FddNFFcNmxXHvttcbieJ1BB5N+5tcGp3/NotelMt6PBvSsB613LIkiaM2nI7HtTLS1tY37+w4t9OnMkK4T46Ll06Ez0lvXZ2VdJl3W9aSiZ2hoHZnQ3xPrejN18803mzP3o/Wnoo1Olw9ig1MvvPACXEe6xrpow/r6dKTT4ObPnw+XHYt1PWECk37mxwaXyV/ZVtk2OX2sBlpfuvSvTJQfi3U/xqI/H1pPti677DJjtXhbCXohAVo2HY8//rixCrzeX/ziF3CZsWiDt64L0TNItHy29PEx1m2k69JLL4XrTJc+8iWoDU7p1wtoPenQM0Dr+pJZX5+OdBqcdZl0nHfeecaieH1hAJN+5rcG9z/+x/+A/56JTGYp10uE//W//tdwPZnQj0lRfizW/RmNflSFlreDni1bt2dlXSZdU6ZMMRbH68zmQgR93pd1PciSJUvg8nZI56PXZPodLlpPpv7rf/2vMJ+KXxqc0ufNoXWlw7quZNbXpmOsBqfPi0PLpaKfAFnXEzYw6Wd+anDV1dXw3zKVyZxw//gf/2O4DrdY9wfRBy6iZe001l+e2Z5tKeu61B/+8Af42rFY14Nk8r1ktqzbHI3e9IuWd4ufGtx4zuJSPUPO+tp0aDN6+umnZePGjSb9pEGnCNOPQ9Hrx7JgwQJjV/D+hQlM+plfGpzd9It8635Z2dVQx8O6T4h1GafoVaPWbSdL58IIBH2Homd26LWpaKO3rsdKLyRBy9pN7wGzbhuxLuc2PzU4ZV1Pum677TZjcXvXaRdt3NZ9CiuY9LOwNriysjJjV/D+KX20BVrObdb9stJCipZzgn6EZN2+lXWZdI13PXpWZl2HlTZotKxTxvouUCfeRcu5yW8NLtuPKfUTBOu6EqyvdYtebW3dl7CDST8La4NT1v1Kls33GU6w7leylpYWuEwq+r3Wr371K/Pet3Xr1sHXpHL77bcbm8b7o1pbW+FyY0n+ziPd2zCSJZZNJZuLk9rb2+XBBx8073/L9Hs765W/yXR9aBm3+a3BZfsHW6r5Ha2vdZL+4az391n3ISpg0s/82uDGe++Msu5Xgt7Ii16fib/4i7+A+UxZ9y2Z9bVjWbVqlbHYyev5l//yX8LXI7NnzzYWOXkdyfRCD7TsWBLL//N//s/hv48m1fcvCb/97W/hsqmgG/Yvvvhi+NrRaHO0rkOVlpbC17vNbw0um9t/lPWe02TW1zpNb3/R+0mj8IBTK5j0M781OP1eLHld2d5sqUb73F5njUCvT4f1L8nxXgCSvK5kmX6E+u///b83FsPryvTLfevyVnrzLlpuLD/5yU/MhoD+bTQ6e4x1+0g6EwIk07Nb6zoSMrlX7cwzzzQWOXkd1telSz9ZsBbO8dzH57cGp7N8oPWNpampyVgcr9P6WjfpPYpjfeoRJjDpZ35qcDU1NcbiJ69Pv+tArx/LjTfeaCx+8vr+6T/9p/D1Y7nqqquMxU9en7K+Nl3W9SRo4USvH41OK2RdR4LeCoGWGc11111nLIbXlbB48WK4bCp/93d/Z54hon9D9PYN63ZHY112LNblk+kVpWiZ0ViX/+UvfwlfN5b/+3//70nrSsj2oz2/NbhMjn+yCy64wFgcr9P6Wi+M9odO2MCkn/mpwVnXk8z62nTovJHW9WT78eScOXNOWleybL4vU9b1JFhfN5axPsazvj4VvaHYujyS6UeNmbJubzSZNpR/+2//rbEYXpfSuSDRcqOxLp/tx5PPPffcSetKZn19OvzW4HJzc+H6xpJqKj7ra72i339b9y1sYNLP/NLg9Hsi63qS/Zt/82/gcqno7BHW9WR7P1c6Txi2LpMO6zoSrK8by1jfB1hfn0pjY6OxCF5PsnvvvRcub4dMLr3O9HYPvYnXuo5kOvUaWm401uW1gaLXpTJWI1LZfJLhtwZnXU+67rjjDmNxe9fpBJ2owrp/YQKTfuaXBqf3WFnXkyybv/z0Ox/res4++2z42rFY14Nkc9O4dR3qnnvuga91y8yZM43dOHm/kGwvGkhFJzm2bicVry/oeOSRR4zd+PP+WP89Hei9apXN7PxhaXDW9SSzvjYdOvWZ1hytKyUlJeZtKNl+fGql3wdb9zEsYNLP/NLgxipqP/7xj+FyqegVcdb1ZHOJ+t/+7d+etB5EiwlaPhXrOpRONYZe65ax/tiwsi4/Xtb1j+Wv//qv4XrcYp26y/rv6Uh1I3PCE088AZdNxU8NTps4Wlc6rOtKZn1tOsaaqkuPaSZXH1ulM5F5EMGkn/mlwSVmTB9NNo+SR/fO6Hdp6LWppHOTscrmKcDWdSi9Ygy91i1/9Vd/ZezGyfs1GrsnNbaufyzW5d1mnfvU+u/pGOv7twTrcmPxU4PL9taa//2//7exOF6nsr4+HelMtqysy6UrrPNSwqSf+aXB/cM//IOxKF6f0gdSouVS0WmbrOvRM0X02lROO+20k9aD2HUGp9tDr3VLqlsOkGyOdyoFBQXGavG2EOvybkv+eDHbWygSy6eSzUwtfmlw2V5ZqvT9ZV1fMuvr05Fug8t2bkplXVcYwKSf+aXBpbpEWmXT4NCFCtmcwel3PNb1INl8pGFdh6qrq4OvdUuqGToQ6/J20NlYrNsZjXVZt1nfZ9Z/T4dO/Ju8DuSWW26By6bilwZnXT4T+jw56/qSWV+fjnQbnLIumy7resIAJv3MLw1urI8hsmlw+vh/63qy+Q5urH1LsC6XDus6lE4fhV7rJus+jUa/n0TL28G6rdHo0yPQ8m6xo8Hp1GrJ60CymfTADw1uPBcBOTU/KhtcdmDSz/zS4PSBo9b1JMumwaHZKrTpodeOxboeq4ceegguNxbrepTeUI5emy29ulObgN7g/s/+2T8TvX9Nz9L0jFOfDK63YOil7fpMO/2eJN2PKLMdy3TpjDPWbSLZPFcuFTReibHSm8+t42VHgxvrYziVTaPwusFNmDABLp+uxNPyU7Euk450G9x4pvWzrisMYNLP/NLgxrp/5KyzzoLLpaJnQtb1ZPtdwFi/aHppPVpuLNb1qGyapU7ua12P06z74ISxPp5S2VzebV2HnbK9mMK6Hivr69PhVYPTuRrRcpmyrhexLpOOdBtcNnUnwbquMIBJP/NLg9MJTK3rSZbN/VY68711Pdk+UiXVRyXjmY/Suq4E6+vGkum9Y+OV6WNP9MpMPTNE/5aKTu9l3bZVNme8o03jZodsnnWn9B5N67oSZs2aBZcZi1MNTucI1dl79CxeLV261Jwuzs6ndOgfo9b9RazLpSOdBpftkzOU3mdnXV8YwKSf+aXB/c3f/I2xKF6f0ifmouVSGe1NbH1duvSjKeuUWDpHHnptupLXlayoqAi+PpWpU6cai+L1paIXOGiBsuZHox/Joe2nouOU7dOtL7/8cmOzeF8SrMuk44orrjAWxetLRWfD0SdAW/MJ+mRotL10WCeX1vup9AIs9Np0ONXgnDbavLSIddl0pJrEWx+WPN57K1NN5h1kMOlnfmlwY917NW/ePLhcKqM9YiObZukU674lZHtTrH5XNNpjc5LpBMzJzz8b6zaNZIllMjGeZVVi+dHoJwBoubHotF2pHqaZoEVPnwWWWE5vura+JlnidV4LYoNLd2KFBOvyfmDdx7CAST/zS4PTZ4xZ15NMb5xEy6Uy2iM2srnc2inWfUuWzUd6VnpRhDYvvYhHLyxBr1E5OTnGJvF+JMtmnsXkM8tsH5cy1r2Iv//97+FymdL3YX5+vvlf9O8JzzzzjLFZvC/KyatLMxHEBqd/fFn3MxXr8l7L9pOUIIBJP/NLg9OnMVvXkyyb7yBSPUNKCz9axm3W/Urm5lOh9XEs1u1bZfvYojvvvNNY/M/rsf57usa64EQbE1rOCc8++6yxSbwfyuvp1hKC1uD0413rPo7Fug6vWfcvTGDSz/zS4PQJ3tb1JMv0gZYqVYMb74NK7WLdL6tsbkzPhk4zZt22lXWZdKDjms3Hzeov//IvT1pXshdffBEu54SxGpzSM2e0rJuC0uD0IbN6Sb51/9JhXZeX0BNMwgQm/cwvDW6se690Pki0XCqpGpxK/k7FK9Z9QtwolHrln3W7ybJ9SKx1nkaV7XRW6pJLLjlpfcnuuusuuJzd0mlw2V6xa6cgNDi9Qtq6X5mwrs8r6T5HMchg0s/80uD0plnrepJlc+n1WA1OZfOcOSTbKwSt+zMaLVRoebtMnz7d2Aze9urVq+EyY0k15Ve2T6hW1nVZufHxYDoNTmX7IFwrPRM+5ZRT4L+l4vcGl+op+emyrtML+hR4636FEUz6mV8anH4nZl1PsmxmcUinwanxzoSR+MvNmk9HYh/SoVdHonXYIdUzrKyvTZe+D6zrSsh25hel38da14eM5/L6saTb4NR4HhOj9I8wXY++z9C/p+LXBrdy5Upj83ifMmVdt5t0hiXr/oQZTPqZXxqcXt5uXU8yfSghWi6VdBucyuYpA1p49Lu8xDqs/56OxLLpeuCBB8zJn9G6xmO0Bmd9XSas67Iazx8W6cxwovTMOptJsMeSSYNT1157LVzPWE4//XRj8e/WEfQGp58S2HHGZmXdjtN0koMofByJwKSf+aXBjTWDfTYfaWXS4JR+Z5LOBRDa2NAsKdbXpcO6jnTp88Pmz59vzomI1jsWLfrV1dUnXeGYbPHixXDZdOgDaq3rs7r55pvhsunQ7wSt60tF73XL5qnwCfoQWJ1pRC9ksa47E5dddplZINE2kulH8hs2bDAW+fOyfm5wOn+nztmpM5nosx11//Vm6uuuu070O1frdu1k3Zfx0J9D5x/VC5p0Fh29Mlcbs15BfMcddxibw/sQFTBJwXPfffeZlyzrzeL6V7QWe52S6J577jH+GS/jpXvvvdd8LtmaNWvMj030Xpzy8nKzicViMdHCqvf/WWdiiSo9o9LjqTe76x8KOnOMTjW1aNEis5Fdc801ZvMf6363bOnsMXo8dIYXfcKFHjM9dsnPliPyG5gkIiIKOpgkIiIKOpgkIiIKOpgkIiIKOpgkIiIKOpgkIiIKOpgkIiIKOpgkIiIKOpgkIiIKOpgkIiIKOpgkIiIKOpgkIiIKOpgkIiIKOpgkIiIKOpgkIiIKOpgkIiIKOpgkIiIKOpgkIiIKOpgkIiIKOpgkIiIKOpgkIiIKOph0y7HKHwkREUWPtR84ASbdgn5oIiIKP2s/cAJMugX90EREFH7WfuAEmHQL+qGJiCj8rP3ACTDpFvRDExFR+Fn7gRNg0i2dy8vhD05EROGltd/aD5wAk27pObsC/vBERBReWvut/cAJMOmWvitWwR+eiIjCS2u/tR84ASbdMnjTBfCHJyKi8NLab+0HToBJtwzfex384YmIKLyG77vOaAG4L9gJJt1y4um74Q9PREThpbXf2g+cAJNuQj88ERGFl7UPOAUm3YR+eCIiCi9rH3AKTLoJ/fBERBRe1j7gFJh0E/rhiYgovKx9wCkw6Sb0wxMRUXhZ+4BTYNJNnUvK4AAQEVH4dC6ZbJR+3A/sBpNu6m4/Aw4CERGFj9Z8ax9wCky6qe/SZXAQiIgofPouW2aUftwP7AaTbhq44Rw4CEREFD5a8619wCkw6aahu66Gg0BEROEzdNc1RunH/cBuMOmmE0/cDgeBiIjCR2u+tQ84BSbdhgaBiIjCx1r/nQSTbkODQERE4WOt/06CSbehQSAiovCx1n8nwaTb0CAQEVH4WOu/k2DSbWgQiIgofKz130kw6baOxmI4EEREFB4dC4uNko/7gBNg0m3d8XlwMIiIKDy64/ONko/7gBNg0m29Fy+Cg0FEROGhtd5a/50Ek27rv3YtHAwiIgoPrfXW+u8kmHTb0O9/BgeDKMw6qoncdazq5Pehm4Zu/5lR8nEfcAJMuu34I7+Fg0EUZsfjOUSu6q6fAN+Lbjn+6K1Gycd9wAkw6QU0GERhhgoQkZM6a71tcNa67zSY9AIaDKIwQwWIyEnmx5TgvegWa913Gkx6AQ0GUZihAkTkJPQ+dJO17jsNJr2ABoMozFABInLKcDMbnGfQYBCFGSpCRE4ZWjMRvg/dZK37ToNJL3TU5cMBIQorVISInDKwytsGpzXeWvedBpNe6GqaAweFKKxQESJySv9ybxtcV9Nco9Tj+u8UmPRC7/l1cFCIwgoVISKn9C31tsH1XlBvlHpc/50Ck17ov7oFDgpRWKEiROSU3sXe3gPXf02LUepx/XcKTHph8NbL4KAQhRUqQkRO6VnobYPTGm+t+06DSS8c33ATHBSisEJFiMgp3Q0eT9O14Waj1OP67xSY9AoaFKKwQkWIyCldddGapkvBpFfQoBCFFSpCRE7pqMHvQ7dY670bYNIraFCIwgoVISKnoPegm6z13g0w6RU0KERhhYoQkROiOE2XgkmvoEEhCitUiIicMLSGDc5zx6q8nyuNyC2oEBE5YdDjabqOVU80Sjyu+06CSa90rZyBB4cohFAhInLCwAqPp+laNcMo8bjuOwkmvdJzThUcHKIwQoWIyAl9y7xtcD3nVBslHtd9J8GkV/quXAMHhyiMUCEicoLX03T1XdlklHhc950Ek14ZvPliODhEYYQKEZETPJ+m65aLjRKP676TYNIrw3+4AQ4OURihQkTkBK+n6Rq+/wajxOO67ySY9MqfNt4LB4cojFAhInJCFKfpUjDpJTQ4RGGEChGREzojOE2XgkkvocEhCiNUiIiccKwKvwfdYq3zboFJL6HBIQojVIiI7DYci+YsJgomvYQGhyiMUDEisltUp+lSMOklNDhEYYSKEZHdPJ+my2Ct826BSS91LpsKB4goTPTZXKgYEdnN62m6tKZb67xbYNJL3WvPgoNEFCaDqyfCYkRkt36vp+lad5ZR2nG9dxpMeqnvpyvgIBGFCSpERE7oXeLxNF2XrzRKO673ToNJLw3ceB4cJKIwQYWIyAk9i7xtcAO/Pt8o7bjeOw0mvTR8zy/hIBGFCSpERE7obvR4mi6jplvrvFtg0ksnnroTDhJRmKBCROQEr6fpOvHUXUZpx/XeaTDpNTRIRGGCChGRE6I6TZeCSa+hQSIKE1SIiJzQEdFpuhRMeg0NEtFYjlb8ww8ZucNVE+VQ5QQ5WPEj06HqXNlbnSe7K3N+YGddiWxdOEW+biiTTbUl8nlVoXxakf+911rr5PnmKnlq2enycONcebB2ltxfPUP+UDVd7q2cllKqeGjJ9DE9vHSGPLZitjy+co480zxfXmg/S149p0o+XH+GbG6eLFtXFZm2rymRnbEy2d06Vfa3TZGj8SLpaM7/ga54ofS1FEh/LEcG4rmmwXieDMcm/gAqlBQ8UZ6mS8Gk19AgEVkdrs2X3bWF8k1lruyoypOtZnOaJJ9XF8unlYXyYW2ZvLxsnjy16FTZUFUu91eYN5wyjHh0yTR5auUsebHlNHln3emyZXWxoUi2NZXI7nipHIwVyWGjIaqO1mLpay+BBZT8baiJDc530CBRNOkZmJ5dbanMk88Xlcvbi2fLizVT5I8Vk+QJo3Ex3IknW38sr6+YLO82z5BN7bNlV3OJ7G0qlEOtpdLXVgSLK3lPJxRAv1duMgLWeTfApNc6F02CA0XhdaCuUHbWl8jmynx5P1YhT64403grMIIUr689Q7a1TJO9sWI53D5F+tn4POf5NF2LS/WtAeu8G2DSa92tp8HBouA7YpyRaTP7tipPthtnZi//JG4cckaY4+0LG2RP2zTpaCmWwZZ8WIjJGV5P09Xddpq+BWCddwNMeq33kiVwsCi4Dtbmy6srzDc7gyFv/jwOCzLZq2+Jtw2u95KlerhhnXcDTHpt4Pqz4WBRMBxcWCqbYmfKcwvnyIaGucYhZTBSx/vnVsixs8tlOJ4LCzVlx/Npuq5fr4cX1nk3wKTXhu74ORws8p5eeq+X3e+vypE9NfmyvX6SfFFZIO+sWCCP1c82Dh+DMf7YuGKGfNoyS76Nl8nheLF0xwukL54nA7FcNsEMeD1N19CdV+nhhHXeDTDptROP3QYHi9ynVzHurcqVnVV58nVNsXxcM0meXHiKcZgYDHfjkZVz5Y+rZsnnbbNlT3OxHNV7+kbu4UPFnXKkq97jaboev00PHazzboBJP0CDRe44Up1jnpl90DBVnqubbhwOBsOf8YxxpvdO03TZ0TJVDhlnev28X+8HOmvx77hbjID13S0w6QdosMg5++sKZcvCKfJirNoYfgYjuPFG2wLZv7ZcBlryI392F+VpuhRM+gEaLLKPTmV1qGqibG6cIo/yQhBGSOOzWLl0tRTKUFshbAChFvFpuhRM+gEaLLLPey08U2NEK15vmScDrQW4GYRQ1KfpUjDpB2iwaHw+WTxTHl56ujG8DEZ047nYPDncOkmGQVMIk6hP06Vg0g86GgrhgFFq5gz6lRPkQFWO7KrMkY9qJhnDyWAwULywZrZ8s7pIjrSUSF8sV4biuaH53m5gpbcNrqOhSIcY1ne3wKQfdDWfAgeNTqbfpx3USYlrCuSLxqnyfF25MYQMBiOTeGTlHPmgebrsiZdKR7ww8Gd4/cs9nqYrZk6GDuu7W2DSD3ovbISDRj+kje2zhinydP1MY9gYDIZd8cbKKbKtfab0tATzApW+pR5P03VRow4jrO9ugUk/6P9FGxw0+s6eqjx5O1ZpDBWDwXA6PjLO7Lpbi2Ej8atej6fp6v9luw4drO9ugUk/GLrtcjhoUabfr+1YNVeeXjLfGCKGX+KuimlpubuyXO6pmm56YHH6GP4JnUWltyUYV2J6Pk3X76/QIYP13S0w6QfHH74FDlpU7anOk6eXcTZ+p+KxWINsPHu5vHr+KvlkxanyVUXeD2yuKpCtNUXmI3521E+SbxtLjbPoXNlXOVH2VkxIi75W5/BU3c250tWUkx7jtcdaS8xnrB1sLZP9LaWyL14iu5sKZdeagh/Y2TJFXruiSZ6/eNnIT8ZwIr46+1Q53uLvOTG9nqbr+MO/0aGC9d0tMOkXaNCi6NOVPGPLJl68bK18FTvTnBR6r9Fc9mlzqc41HTT+f500OkHn3NQpytTRKucLAypIdtArAIda8k2DI5MTJ/THcqTHOPvojudLVyzvewfWTpPXf3XRyKgxMolPm6ZIf6s/v6OL+jRdCib9Ag1a2OnHkAeNgqtXRL69kBeOjBaPnd8sX7TXyO7KHNlrnN3ury0wmxQaUz9CBclPBoyi3d1SJJ2xAjnWlCd71k6Xpy9vGRl9hjX0o8uOeJH5R4VfbjPoqMbvPbcYAeu6m2DSL9CghdURw26jqX1YN1kejvhjZzbUzpJnV5whb5+9SLZX5squuiLZ31AiR2pyzVsi0PgFDSpIQaKFvLNtkhyJF8u+pgLZ1D5bnms6VR5bGu3vDF9umiO7mkuMM+N8z28zQO87NxkB67qbYNIv0KCF0cH6Inl/SXSa2hOL58ur1ZPl7aoS+XhhuXxdN0l2VOWZjexQbT4co7BBBSks+tpLzO8MD6zJl32xEvm6dYZ8sqrUnCrriebofI/8SdM06Yp78/HlcBMbnIJJv0CDFiaHq3NkU22J8aOGLzbUzZaN9TPl7eXz5KvKfNlSXSDfGE1st3FGdqAmzzhj9fYLcK+hohR2/S0F5sTHHc155kNM9UKZ7c2l8l58tjy/IpyTEzy2co7sby6SoRgeE6dwmq7vwKRfHKvJhQMXBtuWhuf7tceWnS6vV5bIB3WTZXtdseyuzv/uQo6qieYTC/RjxbB8tGgXVJSiRr+r0o/xBuK55jRZerZztLlAjjTly9fts+SdNeXy+OpwPFz34/hM6XPx9gLPp+mqzdMfG9Z1N8GkX3StngUHL8j0QoiPa0uNHy+48WxztWxaNF12Go1sT2WOHDCamX6HqPRnZDMbGypKNNL09EpQ44xn0Gh8PbE86YgZfzAZZ3u7morkxStbR96FwYtHV82VbuPnQT+33byepqtrjfmVC6zrboJJv+g5rwYOXlDp1ZF/XGLOzxaoeHbdEtlZV2JeraiX1B/RszLw81H6UFGi1LTxDbbkSb+e7RlNb9t5wXwyhl5xiX4+O3k9TVfP+bX6o8K67iaY9Iv+q2Jw8IIkMbv/t7VFsmFxcL5gf2f16bK3Jj9Ql94HCSpKlJ3+9hI5Gi+SLRdWjLx7gxEHYkXmx7NO3FbQu9jjabquiuuPCOu6m2DSLwZ/cwkcvKDQs52vG6fIxpppxo/j73hp6anyda1xlrZoMvxZyF6oKNH4DRsNo7OlWDa3z5Jnm/z//d3bzTPlaMz+Jxf0LPS2wQ3+9lL98WBddxNM+sXwAzfCwQuCb2sL5UUfP7Zm48qzzGfFfVMdrBukwwIVJbJfT2uR7GsqlK/aZsrrzf69FWdr63TzbA79DNnwfJquB3+tPxas626CST9Bg+dneoGFXnzxQMNcY/f9E08snGte3LKlulB2VeXKwboCuP/kDlSUyDn6MeBAS74cjRvv/9gkebfJfzekv7W63LyVAu1/pjprvW1wRsB67jaY9BM0eH62t67Q2G3/hJ6l6bRfOsGv3nvGKxz9ARUlckfi1gS9J+9Qc4F82T5bnl89a+Q3xvvoaZ8E9zsTnKbrOzDpJ2jw/MwP8Un9ZNleP2mkqfGyfT9CRYncZ96WYDS7vnie+ZSG11oXjPwWeRtd8fGdyaH3nJuMgPXcbTDpJ2jw/GpDzQxjl72LrY2T5VB1rnnlJpuav6GiRN4yb0PQMzujuXx5+eKR3ypv4pGl06U3lt13csPNbHAJMOknaPD8RC/Q2FWdb+yqd7FtyXTz3jS0f+RPqDCR/xxs9W5ShldXTs1qLsuhNd7XAiNgPXcbTPoJGjy/OFSVI+8umWPspvvx9MK55seQaL/I/1BhIn/S7+z2xL1pdE+1nCFH4kUZ3Svn9TRdx6om6K7Deu42mPSTzuXleBA9drDiR/Ju9SRjF92N9+qnyq764u+nxaJgQoWJ/K2vtVB2tU2Tt9e6O4PKQ8tmmvNzon1CvJ6mq3OFeYUqrOdug0k/6Tm7Ag6il/Q7rk9q3H0KwEeLZsieas7CHxaoMFEw6MNgD7eUyOa4uxM4dMTSu/DE82m61lfq7sJ67jaY9JO+K1bBQfTSnlr3bgV4r26K7DK2x+/YwgUVJgoO/chwSGdNiRfIh83uTeiQzi0EXk/T1fez1bqrsJ67DSb9ZPCmC+Egeul9Fz6afKOhXHZXfTdLP6+IDB9UmCh4zBvIjUa3L+7O1xUvryyH+5HM82m6br5IdxXWc7fBpJ8M33cdHESv6NO3nY7NNUXmBM1o+xQOqDBRcCUa3WfnOz/h85aW1E2uu8Hb2jH8h+t1N2E9dxtM+smJp++Gg+iFQ7X58mCjs4+70VlH0LYpXFBhonDQJ5Y7HfqcPLRt1VXnbYM78cw9uouwnrsNJv0GDaLb9MnUzzZVGbvjTDy5cK7srS+G26bwQYWJwmOgrUjebHJu4of3m8rN5+KhbXOarj+DSb9Bg+gm/Q7svRrn7oN5f9EMfiQZMagwUbj0t+TLh3Hn5rjc31QA749D7zc3GQHruBdg0m/QILppb1WOsRv2x+PV02RbdYEcrWJzixprUaJw6ovny6bVzlyA8t7KMnNqseTtcZquH4JJv0GD6Kbn6+3/qGFD/RzzsTW8QjKakosShZs2oW2rnbk47XDzD8/iOE3XD8Gk36BBdIveg+ZE6JWSesM42iaFX3IBpPDT6b4+WTd/5LffvviyqewHTwMfXMUGlwwm/aZzyWQ4kG74ZOU8YxfsjbdrJ3NGkohLLn4UDXpj+Jtr7H/Qam9byffbGFjh8TRdS6foLsE67gWY9Jvu9jPgYDpNm9Czdfa/IXfVFcHtUXQkFz6KFrtDP6ZMrLtvmbcNrnvtmbpLsI57ASb9pu+yZXAwnbbbaER2xycL/Tl5NLkrueBRtBxrtfeik61tM75ft+fTdP10ue4SrONegEm/GbjhHDiYTttSW2xs3t44yDklyZBc8Ch6nm+aO1IR7An9+FPX6/U0XQO/Ok93B9ZxL8Ck3wzddQ0cTKd9VmXvGdwXdaVwOxQ91oJH0fJNs71ncQMjN317Pk3X3b/Q3YF13Asw6TcnnrgdDqaT9PL9TyoKjM3bF/tr8uG2KHqsBY+i5YjNH1P2x75br+fTdD15h+4OrONegEk/QoPpJL2E/8PaMmPT9oU+6RZti6LHWvAoWnQuSTvjyLmzzPV21uD3m1uMgPXbKzDpR2gwnXS4aqK80mTvzOBoOxRN1oJH0dIbyx2pCvbE3nPmmOs9VoXfb24xAtZvr8CkH6HBdJI2uOdXmpe82hZoOxRN1oJH0dIXt/cM7tu1MzhNFwCTfoQG00na4P5oc4PjzCWUgIoeRYfdH1FqgxtawwZnBZN+hAbTSU40uIPVuXBbFD2o6FF0HG2x9xYkbXCcputkMOlHHY3uPivNiQb3WU0J3BZFDyp6FB3fNpeMVAV7Qhuc19N0dSwyrwyF9dsrMOlH3fH5cFCd4kSD0zhS7f3HCOQ9VPQoOt6KzxmpCPaENrh+r6fpalmguwLrt1dg0o96L14EB9UpTjW4bbWch5LY4KKs3+YLTDS0wfUu8fY2pN6fLNZdgfXbKzDpR/3XroWD6hSnGtxTNeVyhM+AizxU+CgatsTMGfdtDW1wPYs8nqbrunW6K7B+ewUm/Wjo9p/BQXWKUw1OY1PtJLhNig5U+Cjc9Llte9fPHqkC9oY2OK+n6Rq64+e6K7B+ewUm/ej4I7fCQXWKkw1OY3t1gRwB26VoQAWQwmuwtUC2xu0/c0uENjivp+k6/tjvdFdg/fYKTPoVGlSnON3gNHY0lLLJRRQqghROva1F8snZ5gUYjoU2OE7TdTKY9Cs0qE5xo8FpbGsoMyd2RvtA4YUKIYVPX0uBfLh2/shvu3OhDa6D03SdBCb9Cg2qU9xqcBpfVfPKyqhBxZDCRZ/R9ll8+shvubOxs30GfJ+5yQhYt70Ek36FBtUpbjY4jS+rCuWosU20LxQ+qCBSuOxsnTby2+18fNPGBofApF+hQXWK2w1O483G6fy4MiJQQaTw2N8+deS32p3Y0cIGh8CkX3XUuffAUC8anMZrC2fJvuo8TswccqgoUrANxvOkK5YvL66z9zFb6cT2mLcNrqPefDg0rNtegkm/6mqaAwfXCV41uER8WF0iu6py5SgfkhpKqEBS8AzHJpozkxxoLpQ3YvZOv5VJbG/ytsF1NZ+iuwHrtpdg0q96L6iHg+sErxtcIl6vnSI7awrhPlJwoWJJwdPVUihvxeeO/LZ6F9vWeNvgei9s0N2AddtLMOlX/Ve3wMF1gl8aXCLeqymVg5W8CCUsULGk4OiO58uXa8pGfju9jy2rpsP3mVv6f9GquwHrtpdg0q8Gb70MDq4T/NbgNO6tniFfVxXK4Up+bBl0qGiS/3XGCuTd5hkjv5H+iS0rvG1wQ7+7XHcD1m0vwaRfHd9wExxcJ/ixwSXisYY5sr2mkBeiBBgqnuRP+j3bQEu+fBFz77L/TGPzcm8b3PGHbtHdgHXbSzDpZ2hwneDnBpcc+xvcfRAs2QMVUvKnjrbSkd82/8bXS8vh+8wtRsB67TWY9DM0uE4ISoPTeGjhqfJ1TbEcqMqRI5UTeC9dAKBCSt7TGf/7Y/odW4F8e/Yceabp1JHfMn/HV4vZ4BCY9DM0uE4IUoNLjo31M2VTVYH5tIJ9lRPNhod+PvIWKq7kDf0Isqel0LzU//OmKfLUau+visw0vlzEBofApJ+hwXVCUBucNd6unypba4vlYE0e/DnJG6jQknuG47nS2Voiu1omyxdGUwt6sMFhMOlnaHCdEJYGlxw6S8rm2hLzZ0M/M7kHFV1ynp6pfdM+Q16OmTcmhybY4DCY9LNjLhXnMDa45HhiZYVsXTJdDlfnwJ+fnIWKLzmjv71EDsSK5IULl4y8+8MXnja4mhzdBVivvQaTfta10p079sPe4JLjlaYK2dVYymnBXIQKMdlnIJ4nR1pK5Klm55/F5ofwssF1rZ6luwDrtddg0s96zqmCg2y3KDW45HgmXi97lkyFY0L2QUWZxq+rvVSeW18z8m6OTnjZ4HrONccb1muvwaSf9V3ZBAfZbk40uB21RSP/Kxjx5KoK+WLhNNldUyAHKibIwcoJcqQ6x7zBnLcijA8qzjQ2vYx/KKaX8uea02UdNs7SPl43X55bNXPkXRuMOHp2+cj/sie8bHD9P2/WXYD12msw6WeDt1wMB9luTjQ4Xe+3RrN4fGEw7q1B8fTy0+Xt2inyVW2J7KgukF2VObK/KkcO1xWcNIY0OlS86Yd09hC9H+1YS5F5Cf+O9hnyYXO5vLrC3Wet2Rmbf1Ijwy150hfPG8nYE142uMHf/ER3AdZrr8Gknw3/4QY4yHZzqsGpQ9W58kltqTxcbe9fcV7GH5tr5P2qYtlUXyY7agplfy2fUJ4KKuhR1tdaaDayQ80FsnPdLPmieaq81jJv5N0V/PioaZo5j6Xec2f+vCFqcMMP3Ki7AOu112DSz/608V44yHZzssEl7K+cKJ8tnCZPLgzejaXpxENGA39hyTx5q7lCtlbmybdG0ztsNHfrOESRtcBHSd+6MjnaXiZ7movls/a58uKa2SPvmPDFW6vLZV+8xLzo5QdjEKIGZwSs1X4Ak36HBtlubjQ4pWc5+hHf5poieaTBuwcmuh2vt9bJVuNM75vKXNlXXxS52xWSi12Yda8tlcPGWdmO9afIi2dXjRz98MerrQtk97qZ5neFaFzY4NwBk36HBtlubjW4BL1wY5/R6D6qmTTy6mjGq/Ea2d0wSQ7pBS3GMQjro4FQ0QsqnRVkcMTW88+QZ9ZVjxzN6MXrzbPlQNtk6W8pMMcFjZdig3MHTPodGmS7ud3gEo4Y9Izu06Xh/dgm09hQM0OeX3mGfNxaJQcaikNxBScqekGx/6LT5f0LauSF+Hx5crn/no3mRTzTeqYcatGPIkdvasnY4NwBk36HBtluXjW4ZIcrfiTbFgX3ijG34smacnlp4Wx5e/UZstUYL72yc7dhT1Wu7KvJl4PVueYZYTI9vuaTF4xx1obpdtNERc9uekGD0svqh1ryjDOsPBmI5X6vzzjL6G4pkq54oXkBREdzvhxpnSRbz5kn77SeKq+smi4vLOf7b6z45vzTzDFGx2A0bHDugEm/Q4NsNz80uIRD1Tny9rLg3lrgl7inYprpwbrZ8tji+fLcwjnySmWpvFZRLK9XTpI3q8vkvYZp8tHimfKJcQa9afkc2VZbZH5PmGxnVZ58W50vu2oKvre7tvAH9tQVmc1VLyTaXzHhJD3Nud/rjuVJp9FoOttKpKO1+Af0ykJ11GhCR4wmdNhoQj9kbHvtDNlmNKXN606RL9tny6fN5fLR6inywcoyeX9Fqby9plxeaD1dNsYXyOOr5srDS2fIhiXTR0aFkW3o8RhsK4QNbCxscO6ASb/rXOb8TBt+anBKzza0YH5UWyqPLgzXRLFhjvsqpsofKqed5JEl5d9jBCfeXbtADrSWZXzGZhWWBte53HzKOazTfgCTfte97iw42HbyW4NL0I/S9NE3O40ziE/qyuSROnMeOAaD4VD8cfVs2dI+UzpaimWwJe/7e9nGIywNrufsCt08rNN+AJN+1/fTFXCw7eTXBpdMJ0c2bzGoLpSXa/ldCYNhV7ywepZ83j5XDscKpTeeb36HiRpVtsLS4PquWKWbh3XaD2DS7wZuPB8Otp2C0OAS9EIJnSdyd12RfFlTYvxy/nhkiwwGI5P4tG2ueTVk30hTs+NsDQlLgxu46QLdPKzTfgCTfjd8zy/hYNspSA0uIXE14CFj3w8YZ3Zb6kpGtsxgMFKFTtrc21Jg+5naaMLS4IbvvU43D+u0H8Ck35146k442HYKYoND9FaDvVW58sdFvDCFwUiOvWunS7/RaPQJBagJOSksDe7E03fr5mGd9gOYDAI02HYKS4NLpo+62W00u9fWLhzZIwYjWvHRugXS1TbJk6aWLCwNzghYn/0CJoMADbadwtjgkunPt6VxsrxeX27eF8ZghDFeWj1LtsSnyqFYkfS3l8Bm4wU2OHfAZBCgwbZT2Btcgn5np1diflNdIJtqiuWj6hJ5chFvKmcEM15omiubWmbIvuYi6Wotdu07tUyxwbkDJoMADbadotLgrPSKTG14u6ryzGe7vV47RR5dFJ7ncjHCFa82zZZtzaVysLlQOuLOXNLvBDY4d8BkEKDBtlNUG1wynfhZZ/PfX51rzu24deEU+bhmkjzbMHPkJ2Iw3I232hfI1jUlciheLF3xAulvMRpa7Lt5N1Ej8Ss2OHfAZBB0LiqFA24XNjhMz/B0smJ9tI+e5X21hLPJM5yLN86pkv2tZWYz07OzxEwiQWtoVmFocJ1LynTTsD77BUwGQXfraXDQ7cIGl4GqCebZnk4htq2hTJ5cHZ0HWzLsja/PmS/HmvOlt7XIfJ6a11c7OiUMDa67/QzdNKzPfgGTQdB7yRI46HZhgxu/fXWFsr0qX95bv2hkBBiMH8bmtXPkWEuxDLTkB/6sLBNhaHB9ly7TTcP67BcwGQQD158NB90ubHD208f+fFtbKFuNpvfhktnyfN10ebrS/JiDEeLQ58p92DJbdsQny/74JOlaPw0W/SgJQ4MbuOEc3TSsz34Bk0EwdMdVcNDtwgbnngM1ebKjKk82VxXI59XF8nFloXxYVSwbV5wh91fzOz6/x6PLZ8kbrfNkU/MU2do0Sb41GtmB5kI5ZOhuK4nUmVm6wtDghu66WjcN67NfwGQQnHjsNjjodmGD80ZiPk1zAmmj8e2tnGjOvrKjOl+2VhpNsLpQ3lt2irzSMEOerSiVp2rM51ExHIwX1syWV1dMkfdb5sjW9lmyp7lIDsSKzEmJu1oKpSuWJ/0tBd99ZxaCC0DcEIYGd+KJ23XTsD77BUwGBRp0u7DB+Uty4ztiHBs9Pno150Hjv3tr8mWX0QS/1VsZ6kvl84bvbmd4r6JQ3qmdLE+v4tMVRotXLlosn6+ZLJtWFsvmpjLZ2TrVaF7FcrS5wLyvTM/AdGb9gViuDBpFechoYlqg2cTGJwwNzghYl/0EJoMCDbpd2OCCS5ug2Qi1IVZNkENVOXKgOlf2GWeDeysmfHdWWFMgO2sKZUdVvmyryJWtPzaao+GLhdPk8YtaR45Y8OKpq8+V937RLvvW5Mv+pgLzo8KDxtmWzpZ/rHWSdDXnSrdxxtVjNK2+1kIZMOiVikN65jVSfNm8nMcG5w6YDAo06HZhg4sm8yzRvO3hO/o0hmT6KKL9DcWyt3GS7GkokV11ReaFM/odotpemZuWg0bzGY1+d6UOG43pSLzYbEwdbaXStXay9K0tNc+iBmM5P6C5hOMt351lkX+xwbkDJoMCDbpd2ODISajoUXSwwbkDJoMCDbpd2ODISajoUXSwwbkDJoOio6EQDrwd2ODISajoUXQEvcF1NBbrZmFd9hOYDIqu2Klw8O3ABkdOQkWPoiPoDa47bj5hBNZlP4HJoOi9sBEOvh3Y4MhJqOhRdAS9wfVebE6/B+uyn8BkUPT/og0Ovh3Y4MhJqOhRdAS9wfVfu1Y3C+uyn8BkUAzddjkcfDuwwZGTUNGj6Ah6gxu6/We6WViX/QQmg+L4w7+Bg28HNjhyEip6FB1Bb3DHH7lVNwvrsp/AZJCgwbcDGxw5CRU9io6gNzgjYD32G5gMEjT4dmCDIyehokfRwQbnDpgMEjT4dmCDIyehokfRwQbnDpgMEjT4dmCDIyehokfRwQbnDpgMEjT4dmCDIyehokfRwQbnDpgMko6aXHgAxosNjpyEih5FR5AbXEddvm4S1mO/gckg6Vo9Cx6E8WKDIyehokfREeQG19U0RzcJ67HfwGSQ9JxXCw/CeLHBkZNQ0aPoCHKD672gXjcJ67HfwGSQ9F8VgwdhvNjgyEmo6FF0BLnB9V/dopuE9dhvYDJIBn9zCTwI48UGR05CRY+iI8gNbvDWy3STsB77DUwGyfADN8KDMF5scOQkVPQoOoLc4I5vuEk3Ceux38Bk0KCDMF5scOQkVPQoOoLc4IyAddiPYDJo0EEYLzY4chIqehQdbHDugMmgQQdhvNjgyEmo6FF0sMG5AyaDBh2E8WKDIyehokfRwQbnDpgMGnQQxosNjpyEih5FBxucO2AyaNBBGC82OHISKnoUHYFtcNUTdXOwDvsRTAZN5wr7Dy4bHDkJFT2KjqA2uK6VM3RzsA77EUwGTc/ZFfBgjAcbHDkJFT2KjqA2uJ5zqnRzsA77EUwGTd8Vq+HBGA82OHISKnoUHUFtcH1XNunmYB32I5gMmsGbLoQHYzzY4MhJqOhRdAS1wQ3ecrFuDtZhP4LJoBm+7zp4MMaDDY6chIoeRUdQG9zw/Tfo5mAd9iOYDJoTz9wND8Z4sMGRk1DRo+gIaoP708b7dHOwDvsRTAYROhjjwQZHTkJFj6IjqA3OCFh//QomgwgdjPFggyMnoaJH0cEG5w6YDCJ0MMaDDY6chIoeRQcbnDtgMojQwRgPNjhyEip6FB1scO6AySBCB2M82ODISajoUXSwwbkDJoOoc8lkeECyxQZHTkJFj6IjiA2uc9lU3RSsv34Fk0HU3X4GPCjZYoMjJ6GiR9HRG8sdqQr2hBsNrmfdWbopWH/9CiaDqO+yZfCgZMuJBne4Jg9ui6IHFT2Kjs7WkpGqYE+40eD6Ll+pm4L1169gMogGfnUuPCjZcqLB7a7Khdui6EFFj6Jjb3PxSFWwJ9xocAM3nq+bgvXXr2AyiIbuugYelGw50eBea66E26LoQUWPomNL3Pw+y7Zwo8EN3/NL3RSsv34Fk0F04onb4UHJlhMNTuMgP6YkAyp6FB0bz180UhHsCTca3Imn7tRNwfrrVzAZVOigZMupBvdh4zQ5CrZH0YKKHoXfsOFg2+SRamBfuNHgjIB1189gMqjQQcmWUw1OY3tlHptcxKHiR+G3d930kSpgb7DBYTAZVOigZMvJBvd4w2zZXVMAt0vRgIofhduBdeUjFcD+YIPDYDKo0EHJlpMNTuONmslysAJvm8IPFUAKr85Y/shvvjPBBofBZFChg5ItpxucxicVBXIEbJvCDxVBCqcuo7k9tnzmyG+9M8EGh8FkUHUsLIYHJhtuNDiNj9fVy9GqCXAfKLyGYxNhMaRw6Yvlyosrpo38tjsXTje4zsWluhlYd/0MJoOqOz4fHpxsuNXgNN5aPg/uA4UXG1z4DbbkyRtrzxj5LXc2nG5w3a2n6WZg3fUzmAyq3osXwYOTDTcbnMZTtdPNC0/4kWU0sMGFl94K0NlSLG83zRj57XY+nG5wvZcs0c3AuutnMBlUA9euhQcnG243uER8WFUsByonytGKf4D7ReHABhc+ekyPxovks9VlI7/N7oXTDW7g+vW6GVh3/Qwmg2ro9ivhwcmGVw1O49GaGfJV3STjbI7fzYUVG1x46BlbV0uhfNFk/w3c6YbTDW7ozqt0M7Du+hlMBtXxR2+FBycbXja4RDzfMFO+5f1yoTTUxAYXFvvi9j4ZIJtwusGdePw23Qysu34Gk0GGDk42/NDgEvHaqjPlkLE/aD8pmAZXs8EF3WA8V7a0OjMzSabhdIMzAtZbv4PJIEMHJxt+anCJ2FFbxO/mQmJwFRtckB08Z9bIb6U/gg0Og8kgQwcnG35scBpvN84wzuZy4D5TcPAMLpgOr3fvyshMgg0Og8kgQwcnG35tcIl4qXGWbK0pkv2VE+WIsa88swsWnsEFw1BLnvTE82VPbNLIb54/gw0Og8kgQwcnG35vcMnxSsMM2VxbLPuMMzs+pSAY2OD8a6AlX461TpI9zcXyTtu8kd8yfwcbHAaTQdZRZ7w5wQHKVJAaXCIerJstry+cKdtqCnmLgc/xI0p/0ds2eloKZEd8irwamzvyGxWccLLBdTQU6SZgvfU7mAyyrqY58CBlKogNLjnuriyX1xbPkT1VuWx2PsQzOP/oapskX8emjPzmBDOcbHBdsVN1E7De+h1MBlnvBfXwIGUq6A0uOTY2zpYdPKvzFTY4b/XHcmXH+aeP/IYEP5xscL0XNeomYL31O5gMsv5rWuBBylSYGlxyvL/qNDnGpxd4jh9ReqOrpUhebwnG92qZhJMNrv+X7boJWG/9DiaDbPDWy+BBylRYG1xyfNY4VQ7V2vOdJWWGZ3Du2npRxci7PpzhZIMbuu0K3QSst34Hk0F2fMPN8CBlKgoNLjneWjhTvqoukp0Nk8zJng9WTuBz6hyEijBlZzieK0OGAUNPLE8Ox4pkW3yqvLXGH7OMuBFONrjjD/9GNwHrrd/BZNChg5QpJxrcw4uC89HIE41z5K2GctlUWyLf1BbJnsocOViTB8eKMocKNaWvL54nHfEi2Rcrli3r5sibTTPl2TVzRt69/o9nVtt7paaTDc4IWGeDACaDDh2kTDnR4A5V58oHte4/SsOueHzxPHm1qlQ+aZgqO+uK5UCtPr+OZ3nZQEWbMD1D64oXytHmAtl27gJ5b800eW7VzJF3ZbDi2TVzZee6WebN43YGGxwGk0GHDlKmnGhwul5tCN9U55szkYQhHmmYI++uOVO+Nc7w9lXnydFqTiOWDlTI6c962oplf0upvNsyR55cOXvk3RbceKJpgeyMlZr32uk9d3oGamewwWEwGXToIGXKqQandFotPZvbWj9JXqkP3/cEz66ukC3LZppjyCs2MVTUo0iLvT5PrW9dmXx9ab080zxfHlw0beSdFI7YFC83nxc3FPvzz80G5w6YDDp0kDLlZINL0Gm1DhlndLuMs58XGvw5iasd8VjlFHnBOGPdsXQ6G96I5CIfRYcunCdvtc2Xx9eE75L9RDwfX2B+T6iP1bE+4JYNzh0wGXTHqsf/7DQ3GlyyI9U58sGy4E0RlG3ozeevVJbKZ6vmy94lU+GYhFlysQuzvrZi+ersU+W9VcGeKSSTeKq9UjpjBWZjQ2OigtLgOmrN/YR1NghgMui6Vs6ABysTbje4hD01BfLEwlNGlohmvFA9Rd5onCHvLTtFtlTmyfaaQtldXyL7a/LkgHHGqw9/NRn/+3CFcawMQbvYBRU9P0lcej8Yy/mO8b8HjKKsM4D0NedIZ3upHGmfLAfiJbKrqUi+ajWOV9N0ebl1wchRjGZ8u36OOW5oTJMFpcF1rTG//4R1NghgMuh6zqmGBysTXjW4hN1Go3utKdw3p443nm6YLS8YZ4Gv1k2Td5fOlc/rSuVroyFu1qZYWyQ760qMPxjyZV/lRNP+qhw5UJ0rh4xGqY8YQuPuFlT03NDfWii98XzzfrHu5lzTsfYyOWw0q/1Gs9rbXCS74mXyVfsc+ahltry1aqq8vrxMXllVPjLqDBQ7W6bIQFsRHHMkKA2u57xaXT2ss0EAk0HXd2UTPFiZ8LrBJextnCSfVxXKI7XBvCzaD/GHqnK5v3KabKiZIY81zpWnF8+Tl+rK5dWKYnmtskTeqp0sHy6eKR8vnS2bVs2TrYumya6qPPO70YTdVbmytzpP9hoN80BdoRysL5LDNblZP4cPFb3RDLXkS397iXllYU9rkXS3FJmXzXfE8qWjWeWN/Ddfdp83T7afd5psXneKfN4yQz5aPUXeX1km762YJO+unCwvtp0hG5tOkceXz5BHl5SbGNnFc/EFsjU22fyDAR23VILS4PqviunqYZ0NApgMusFbLoYHKxN+aXBKi6g+621T4xT5Y110Zmfwe2xoPEUeq5wqj1VMztizS6em7akQXCYfltDL/b9om22c7U6SXuNsGDWvdASlwQ3+9lJdPayzQQCTQTd8/w3wYGXCTw0uQafO0im09J6zD+unyuNNNSNrZjAYTsZrzbNld+sU8+x50GhOqGllIigN7viDv9bVwzobBDAZdH/aeB88WJnwY4NL0DO6I8Z/D9Tmy47qfNm47LSRLTAYDDtj6+piOdxSIv1GQ9L79VCzykZQGpwRsMYGBUyGATpYmfBzg0tmNjtjX/UjzA9WhPeeIgbDrXghvkAOtpaZTch6/5pd2ODcAZNhgA5WJoLS4KwOG2d1O2sKZeMl5jOcGAxGmvHaOVXmFaV2nqmNhg3OHTAZBuhgZSKoDS6ZXhL/Xv3Uka0zGAxrbFxbKbvipdKzrgw2IqewwbkDJsMAHaxMhKHBJei8l9urC+TDusnyUgjnvmQwMokPW2bLzpbJ5i0XqPm4gQ3OHTAZBuhgZSJMDS7B/L6uOse8+XlrXYm8vXCGPNQY7VlTGOGPF2Onyo41xeaz43TSYzuughwvNjh3wGQYdC4b3/yGYWxwVvoz7jPO7r6pypPPFk03n/XGYAQ9nonNly+ap5ozs3TFC4xmkm9+r+bUBSPZCEKD61xhftoD62tQwGQY9Kw7Cx60dEWhwSUkbjvQOR33GWd331bmyhcLp8nDq6tG9pzB8Hd8taZUdsdL5VhzvjmzSDrzQXopCA2uZ32lrhrW16CAyTDou3wlPGjpilKDQxKP8tlvnOHtrCmQzxeH93E+jGDG9vWnmB859rd8N1WWn87QxhKEBtf3s9W6alhfgwImw2DgxvPhQUtX1BvcaA5V5cjmhjJ5fsmpIz8Vg+FObI5Nkf3tU2HDCJogNLjBmy/SVcP6GhQwGQbD9/wSHrR0scGlZ9eiKfJZdbG80mx+nMFg2BKPNy2QT1pmyZ7WydLr4dWOTglCgxu+73pdNayvQQGTYXDiqTvhQUsXG1zm9GPNffVFsrm2RD6unyyvV5fJCzXRedAlI7t4s2mmfB6fLjtipXJg7TTpc/meNC8EocGdeOYeXTWsr0EBk2GBDlq62ODGRy9c0Yan04jtqS2UHZW5sqW2WD6vLpK3Fs+WpxadIg9UThsZGUbY45nVc+XttafL181T5Bujke1umypHYgXSbZyd+eGyfbcFocEZAetqkMBkWKCDli42OGdo09OxPagPH62cKLvrimRLdYF8YTS+d+unyctVZfJcLZ9RFtR4beU0+aB5umxae4rsbio07z3riBeZVzbqxSB6daN5yb6l4EcNG5w7YDIs0EFLFxucO8wzvcTZnkFvVdCrN/fWFcrOqjzZXpEjX1cXmg99fb+Rjc8P8dxlTbKpdabsaJ4ku1qmmPebHY0XSndLoQzEcs0mZjay2MTvoSKfkRZ/X/afKTY4d8BkWKCDli42OP9INMFjVRPkkHFc9Mxvf8UE8yb17fWlZgP8sjJfnj9v1chIM8YbX7TNkZ1rimVPbJIcbJ8qXa3F0tOcaxTmfBk0zsQSN07b1sDGwgaXMtjgMJgMC3TQ0sUGF0zfnxEaDtXkyTeLp8kXDVPkw8oi+aCy0BT1ePPCBvlqzSTZFp8iu9fNlEMXzpeB9mL3mlU22OBSBhscBpNh0bmoFB64dLDBRcv+JVNl25r5smnZbPmoYaq8U1Uib1cWf29j20J5Mt4wciS9jafW1ciz5zbI6+sr5MM1U+XTVZNMn68pk82t0+Wb9XPl4PmnSl97iX8bVsT5vcF1LjWvfoZ1NUhgMiy6W0+DBy8dbHBkl6NVE2T/ojLZs2qO7F4523TsglOl89yZsPili80ruPze4LrXmrUP1tUggcmw6L1kCTx46WCDIyehokfR4fcG13fZcl0trKtBApNhMXD9enjw0sEGR05CRY+iw+8NbuBX5+pqYV0NEpgMi6E7r4IHLx1scOQkVPQoOvze4Ibv/oWuFtbVIIHJsDjx2G3w4KWDDY6chIoeRYffG9yJJ+/Q1cK6GiQwGSbo4KWDDY6chIoeRYffG5wRsJ4GDUyGCTp46WCDIyehokfRwQbnDpgME3Tw0sEGR05CRY+igw3OHTAZJujgpYMNjpyEih5FBxucO2AyTNDBSwcbHDkJFT2KDjY4d8BkmHQ0FMIDOBY2OHISKnoUHX5ucB0LS3SVsJ4GDUyGSVfsVHgQx8IGR05CRY+iw88Nrrtlga4S1tOggckw6b2oER7EsbDBkZNQ0aPo8HOD6/3JYl0lrKdBA5Nh0v+LNngQx8IGR05CRY+iw88NbuC6dbpKWE+DBibDZOi2K+BBHAsbHDkJFT2KDj83uKE7fq6rhPU0aGAyTI4//Bt4EMfCBkdOQkWPosPPDe74o7/TVcJ6GjQwGTboII6FDY6chIoeRYefG5wRsI4GEUyGDTqIY2GDIyehokfRwQbnDpgMG3QQx8IGR05CRY+igw3OHTAZNuggjoUNjpyEih5FBxucO2AybNBBHAsbHDkJFT2KDjY4d8Bk2HTU5MIDmQobHDkJFT2KDr82uI76Al0drKNBBJNh07V6FjyYqbDBkZNQ0aPo8GuD62o+RVcH62gQwWTY9JxXCw9mKmxw5CRU9Cg6/Nrgei9s0NXBOhpEMBk2/VfF4MFMhQ2OnISKHkWHXxtc/zWtujpYR4MIJsNm8LeXwIOZChscOQkVPYoOvza4wd/9VFcH62gQwWTYHH/g1/BgpsIGR05CRY+iw68N7vhDt+jqYB0NIpgMI3QwU2GDIyehokfR4dcGZwSsn0EFk2GEDmYqbHDkJFT0KDrY4NwBk2GEDmYqbHDkJFT0KDrY4NwBk2GEDmYqbHDkJFT0KDrY4NwBk2GEDmYqbHDkJFT0KDrY4NwBk2GEDmYqbHDkJFT0KDp82eBqcnRVsH4GFUyGUeeKzN4AbHDkJFT0KDr82OC6Vs3UVcH6GVQwGUY96yvgQR0NGxw5CRU9ig4/Nriec2t0VbB+BhVMhlHfFavhQR0NGxw5CRU9ig4/Nrj+nzfrqmD9DCqYDKPBmy6EB3U02uCeX3WWsah9gbZD0YSKHkWH3Q3uq8XT4fssE4O/+YmuCtbPoILJMBq+7zp4UEejDe6VVTyDI2egokfR0RvLHakK9sTWZZk/Esxq+IFf6apg/QwqmAyjE8/cAw/qaI4aPqiZZCxqX6DtUDShokfRYXeD29tQAt9nmTAC1s4gg8mwQgd1NEcr/kE+qTCfbmtbHKgrhNui6EFFj6KjI140UhXsiUOVE+D7LBNGwLoZZDAZVuigpvJpZaGxmH2xoyofboeiBxU9io49zcUjVcGeYIPDYDKs0EFNZUtdibGYvXGoaiLcFkULKnoUHe83zxipCPbEETY4CCbDCh3UVHZV2Xulk8am2hLz+z20PYoOVPQoGo612vvd/ie1peZXKuh9lgkjYN0MMpgMK3RQUzlUlSNPNM4xFrUv7q2eIXuqcuH2KDqG1xbD4kfh1m/z7QEaO2rs+W7fCFg3gwwmw6pzyWR4YFP5qG6ysai98Vp9uRzkR5WRNgyKH4XbUGuBPLeucqQK2BMPL14gB6vH/wdz5/JpujpYN4MMJsOqu/0MeHBT0bMtJ+Kbqjy4PYoGVAAp3L5ca++nQRrvLZwhR6vG//1bz9kVujpYN4MMJsOq77Jl8OCmop9tP18z1Vjc3nisaqrsr+RZXFShAkjhtavZ/gvWNLbVjf/+N9V3xSpdHaybQQaTYTXwq3PhwR3LHgcuNtF4tmqKHKgY/19fFDyoCFL46EfRe2L2XlSSiI2Ns237qmPg1xfoKmHdDDKYDKuhu66BBzcdr9SZn1HbHg9WTpPNS2fy9oGIQcWQwmUgnitb4s7UDY3NNl6RPXzvtbpKWDeDDCbD6sQTt8ODmw69kdLJeKnhu6sreQtBNKCCSOHR01YsHzaXj/x22x8v1k83zt5y4HsrGyeevltXC+tmkMFkmKGDm65dNfZO3WWNDbWzZFt1AZtcBKCiSOGwp9X+K6+tsbOm0JZ73xKMgPUy6GAyzNDBzYR+qet0fFpXZj7NAG2fwgEVRgo2fQTOG82zRn6LnYtPakpsmbkkmRGwXgYdTIYZOriZ0LOrd2ud/wvt9UWzbJlfjvwJFUgKrn1xZy4kscaTTTVy2IG6YASsl0EHk2GGDm6m9lblGKtyJ75cPR/uAwUbKpIUPEPxXPly7dyR31bnw46buhEjYL0MOpgMM3RwM6WffX9RmW+szp14oXqK7KnOkyNgXyiYULGkYBiOTZShWI70xPLk9ebZI7+lzscBBz/RMQLWy6CDyTDrWGjPjZGHa/Pl5WXzjFW6F8/Xz5At1YXmDeJ2fsFM7kOFk/xt0Dhb64rly9Y1JfLiyukjv5XuxLe1zj1LsnNJmW4C1sugg8kw626x7yO/fTX58sLiU4zVuhsbambIu5VFsrmhzLGPLMhZqICSPw3E82RPvFTeWe3cPW2pYkvjZFum4xpNd9vpuhlYL4MOJsOs9+JF8CBn60BNnry/zL3P4K3xaONc+aKmxHzyAdo/8idUSMlfulsKZXdziTyzwt5nt2USW+tLHbmoJFnfpct0U7BeBh1MhtnAtWvhQR6Pw9U58vVi527qTDc21ZdxRpSAQAWVvKdTa/XE8+XNVd6crSXH1vpJtt8OgAzccI5uDtbLoIPJMBu6/Up4kMdLP0LYW50nj9S4+9k8ipdXnyWHavPhfpI/oOJKHmrJlUPryuXZtrNGfou8DX3YshvNTQ3ddbVuEtbLoIPJMDv+6K3wINtFr3b0S2xsmC3baovgfpK3YJElT3S1l8rza9y7GnKs2OfyRWQnnvi9bhbWy6CDybBDB9ku+sbUv778Fp/UlZlzXR6u+JF5uwGvwvQWKrTkLL28Xz+CHIjlysHWMvmiacrIb4c/4tPqEjlS7f536UbAOhkGMBl26CDbbU9dkTzeYP8DDscbD1WXy4uNM+WDmkmyvbrQ/GtRv7fj/JfuQgWY7GPeqxbPlf5YjnTH8+VI6yT5OjZFXmv23++kxueNUx29UjIVI2CdDAOYDDt0kJ2gZ0qf1Ds/rdd4Q58r9W5ViXzVOEV2V+fJgepc1z7/jypUlLPSkovzEdXXViSH4sWyNTZZ3l8zTV5a4f3FIqni2aZ58o3HE6wbAetkGMBk2KGD7BT9KHC3cTb3weKZxqaDEQ/Wz5GXGmfJVwunyr7aAjY7B6DinJUINzjz48aWfOmKF8jm9fPlzZVT5cmYeU9XIOLz1lnSuabI809PjIB1MgxgMuzQQXaafra+vaZQHllymrELwYqHamfKm2vOlAONk/jdnU1Qwc5KSx7Oh9iw8TMfOHuGvNW+YOQdGqx4pWmOHGgtk0Hj5xhY4f1tPUbAOhkGMBl2HXXeXEKvf6ntrcmXNxc5/0gNJ+OxVZXy6eIZcqDOuemDwg4V7qxEpMEdPO8U+ahltry23JxWKrDx7doZ0h/PM88+9efqX+Ztg+toLNbdgnUyDGAy7Lqa5sKD7RZ91pveTvBsQ7AbXSKeWzhH3qmbIttXzOYZXpqsBTxrIf2IsuPsafLJ2lNH3mHBj8/OOd2cGSXR2BJ6l3j78X933JxPF9bJMIDJsOu9oB4ebLcd0VsK6sy/oEIXHzZMlc2LpplnrAcrJ3x3pWbVBLMBsglG8wzOvEw/iU5e3BvPl8PtU+Sb+GT5LO79JAlOxIG2KUZjw3+I9CzytsHp1IVGwDoZBjAZdv3XtMCD7aVPFno/1ZfT8czy0+WNhunyUV2ZfF5VaE4Wvau2UPZWTpR9VTly0KAPeT1iNEOFxiksULHLio8anF6Wr01rQBtXS4F5eX5nc555VeOueKlsbSo1mtgMea+pXN4M+EeN6cSW2BTzezY0Vgndjd42uP5r1+quwjoZBjAZdoO3XgYPtpf0rGZXZY683ODdxK5eh16A82z1VHmlfrq8vXi2fFpZIF9UF8mOhlLzI119TJA+PeFwTR4cwyBBxS4rLn5EqWch/S355nPQlD46Ri/2+CZWKl83lclH8Zny5upyeXl1dN/DGp+um280+vT+8Oiq97bBDf3+Z7rLsE6GAUyG3fENN8OD7QdavLWgf1RdIn+ojnahsMa9leXyUMNceXLpAnm5cpLp7cbp8sXyObK7vkQOGA1QHwp5qDrHkxkhMoGKXVZsPIMbMpqXXnbfF8s17T9/nnn5/UfN0+XdVZPljdXT5Y/Np8qjy2fJBh9MLu6neD42T7bFp0p3W0lGf3R01uD3h1uOP/Jb3X1YJ8MAJqMAHWw/Ma+4NAr25upCeX6Rd4/jCXJsrCyT5wwv1ZXLO8vnyafxCtm5cg4cb7ehYpeVDBvcQGuh7Lv4TPnygh/L+61zjaZVLq8sn2xiZB6vrCyXPbES6WkpGPV7tlQ6qvD7wy1GwPoYFjAZBehg+5WemehzoZ5Z4u4TxKMUT6yulFeMM8JXKkpMrxr/+42ayfLeopny4dI58sXqBfJ17AzZvWKWLWeHqNil69ClP5ZvL/6xbDvvNPly7Vz5JDZdPlg9Rd5dUfq9N5rDcYWuX0Nv0j4QKzLPdK1XRqZrOOb9pwxGwPoYFjAZBehg+5me0elHb7tqCuT95h8bPwKDwXA7dsYnS5d5ub/R2GITYeNK11ATG5zTYDIK0MEOCm12B2oLZHPdJONHYTAYTse362ZKn34MOc6mlmxwNWcxcRpMRgE62EGkzW5To78e+8FghCGeXV8rO8+eY158gxrUeA2sZINzGkxGwbHqcN1npTdRb6splNcXz5GHGk8xfkQGg5FpPNc8Tza1zDAvGkFNyU6eT9NVl68/MqyPYQGTUdC1agY86GGgtxpsry2Sj+sny5N1vNWAwUgVeom/3sd3MF5i3iZh58eQqfQt8bbBdTWZz8aD9TEsYDIKes6phgc9TPR5dPurcmRHdYF83DBVnqvlvUsMhsYHTeXmDepHm/OlJ240NdCAnNbr9TRd59fpUMD6GBYwGQV9VzbBgx5GOkuKPtNNp8HSuS/13rp3FgXn+XQMhh3xadMU2R0vNa+C1OnEhmK48bjF82m6rm7RYYH1MSxgMgoGb7kYHvSwS0x2fNhodvv1o0zj7O7dNWcaQ8JghCuebTtLtsUny5GmfLOped3QrLyepkunLDQC1sewgMkoGL7/BnjQo0ivxNQzvH3VeeYUYQxGkGNbyzTzKd/a0Nz6Pi0bnbX499EtxzfcpMMF62NYwGRUoINO39lbVygfNU4zhonB8He81jxbtp9/uqsTT9uhoxr/7rnFCFgXwwQmowIddDqZfqS5bekMebeqRJ5v4Hd3DO/iyWXT5dXmOfJ18xTpaJuU1fyPvsBpulwBk1GBDjqlph9nHtTv7moK5dO6Mnm7ulReqeGN5gz74/GmBfLOmnLZ1DxVdjZPksPrppnPnPPiike7cZoud8BkVKCDTunTZne44kfm1Zn7avJlZ2WufFVTLO82lsuzC+fIgw18CgIjvXhm9Vx5s3W+fLWmVL5pmSKH2iab36Pp1Y6BPUtLgdN0uQMmowIddBofs+kZDe+gXqVZnSs7G8vk66pC+ayyQN6unSxPLT3NGHpGlOOd1dPko9WTZUvrdNkTmyRHWydJbzzfaGZ55oUhfrva0QmcpssdMBkV6KCT/RK3JuiN54eqcmSvcbanTy/f0jhZPq0rlbdryozDwQhjvHHxYtke+26WkI54ofS0FsngyD1o+lGjXuXo5ysdndK/3OMGVzVRDw+si2ECk1HRuWwqPvjkikTjU3rWpx91frukXD5dOlveqC6V1yp5y0JQ4oW1FfJZfLrsPmeu0cSKzY8WB/WMTD9ijGADG0vfUo+n6VppTuEH62KYwGRU9Kw7Cx588p+9i6fIp2tOlxfrp5tP6mZ4E6+tni4frVsgey6pkKFW5yckDiuvp+nqOadKDyesi2ECk1HRd/lKePApWHRy6Z3LZ8nny+aYH3e+XlFsnv091zBTHq2fLQ9Wlcv9FVONQ85IjoeXzpAnls+QZ5tOkRdbT5N3m4zmtarMnE3/m/MWSE+7XoaPCzSNT4/H03TpVIVGwLoYJjAZFQM3ng8PPoWDPkJIZ2jRKz3V3oYS2d44WTbXlsgXlfmmj+vK5L2FM+SdxunyVv00ebW6TF6pnCQvV5TIS9WT5Yk11cZbxd/xcnyevL2iTN5ZUSrvGv99b9UU+aipXD5rmSWb2ufK1qZS2bG6UL5ZXSS7Y5Pk4Npp0rW27LuLOvT7MP0YsSWPzcxhQ2smmh9NdjcYza0Kv2fdolMVGgHrYpjAZFQM3/NLePApOswmWDXxe/pdoPl9YOL2h9oC2VdXKHtqCmRXVZ58W5krOytzoG+Mf9vWUCpfLZlh+nLxdNMXC8vl88ap8lnDFPm0/jv6/29vmy472mfIznWz5NuzZ8uu9XPM77AONRea8yeO5mhzgRyLFUpnS7F0t5WYT5oeiOUacswLOBKGtGm1OvOwThrbsHE8BlZMlJ5FE6SzBr//vDL8hxuMEojrYpjAZFSceOpOePCJsqW3SSTOHMeSOHtKZp5J8aKMwNL72/Q5b15PpDyWP2281yiBuC6GCUxGCTr4RG5ABZKCZbj5u0v+exZO8HxuyUxY62BYwWSUoINP5AZUMMn/BldNlN7FE6Srzt9naalY62BYwWSUoINP5AZUPMl/htYYZ2nLJpoPKO3w+OIQu1jrYFjBZJSgg0/kBlRMyQf04pCVxlmaXhzi8TPbnGKtg2EFk1GCDj6RG2BxJU8M6cUhiUv4wbEKG2sdDCuYjJLOxaXwDUDkNFRoyR3mxSF6Cb9eHOKzS/idplMUWutgWMFklHS3ngbfBEROQ4WXnGNeHLIk2BeH2KF73VlG6cP1MGxgMkp6L1kC3wRETkNFmOyjDxXVS/jNi0MCdAm/0/p+usIofbgehg1MRsnA9evhm4DIaago0/iYF4cs1otDon2WlopOUWitg2EFk1EydOdV8E1A5DRUoCkz5vyOegm/D+Z3DAqdotBaB8MKJqPkxOO3wTcBkdNQwabU/Dy/Y1DoFIXWOhhWMBk16E1A5DRUwOlkQZnfMSis9S/MYDJq0JuAyGmomFNw53cMCmv9CzOYjBr0JiByGiruURWG+R2Dwlr/wgwmowa9CYichgp9VJiX8IdsfsegsNa/MIPJqEFvAiKnocIfWhGY3zEorPUvzGAyajoaiuAbgchJsBGESNTmdwyCzkWlRsnDdTCMYDJqumKnwjcDkZNQUwgyvTjEvIR/IS/h9yudmtBa/8IMJqOm96JG+GYgchJqEkHz/fyOvIQ/EHRqQmv9CzOYjJr+X7bBNwORk1DD8DvO7xhsA9efbZQ8XAfDCCajZui2K+CbgchJqIH4Eed3DA+dmtBa/8IMJqPm+MO/gW8GIiehZuIHQ2tyOL9jSJ147Daj5OE6GEYwGUW9lyyFbwgip6Dm4gXO7xh+PWdXyPB91xmlDte/sILJqBv6/c+kOz4PvlGI7IKajVvM+R2Xcn7HsOpcMlkGfnWuUc5wjYsKmKQf6r+mVTrqC+AbiShbqPE4hfM7hl/vT5bI8cd+Z5QsXMeiCCZpdMMP3Cg959XANxhRJlAjshPndww3vX9XL5Cz1ij6M5ik9A3efJF0rpgO34BEqaCmNB6c3zHcOmrzpP/quFF2cC2ik8EkZUcfJNj30xXwzUlkhZpURji/Y+j1nFMtw/f/yigvuOZQajBJ9hi662rpbjsdvnGJYNMaw9Aazu8YZp3Lp8nAry8wygeuKZQZmCRnDFy7TjoWlsA3NkUPamBWnN8x/PouWyYnnrjdKBG4blD2YJKcd/yhW6T3wgb4hqdoQA1N6cUhfZzfMbS6WxbI0B0/N8oArg1kH5gk9w3+9lLpWj0b/kJQOCUaGud3DLeOhkLp/0Wb8WuOf/fJOTBJ3vrTxnul78o1cqyKf8GHGed3DK+e8+vk+IM3Gb/O+Hec3AGT5C/D914rPet+DH+RiMh7XStnyOAtFxu/rvh3mLwBk+RvAzecI51LyuAvGhG5o+/ylXLi6buMX0n8e0reg0kKjuOP/k56f7IY/gISkX2628+QobuuMX7t8O8i+Q9MUnAN3Xa5dMVOgb+gRJQ+vaVn4Lp1xq8V/l0j/4NJCg+d2ken+EG/wET0Q70XNsrxh28xfnXw7xMFC0xSOA3ff4M59Q/6xSaKoq41s0Vv0bH+rlA4wCRFg04JpFMDoV98olCqmmDegqO34lh/Hyh8YJKi58QTd0jfZctxUSAKML3FRm+1sb7nKfxgkkinEupuXQALBpGf6S00eiuN9T1N0QOTRFb9v2yXjoYiWFCIvNb7k0Vy/NFbjbcqfv9SNMEkUSrHN9wkvefXwUJD5Iau5lNEb4mxvjeJksEkUSYGb/mJdK2aCQsRkR06anKl/6qY8XbD70EiBCaJsnXimbul74pVsEgRZaJnfZUM/+EG422F32tEY4FJIrsM3/0L6V57JixgRMk6l02VgRvPN942+L1ElCmYJHLKwPVnS+eiUljgKHr6Ll0qJx7/vfHWwO8XovGASSI3HH/kt9J70UJY+CicuuPzZej2K43Dj98TRHaCSSIvDP7up9LVNBcWRgqmjvoC6b+m1Ti8+JgTOQkmifyg/+fNcqwmBxZO8q+e82rl+AM3GocQH1cit8Akkd8M33e99KyvhAWVvNW5YroM3nyRcZjwsSPyCkwS+d3AjedJ59IpsOCS8/p+ukJOPHWncSjw8SHyA5gkChK9Cq/30qWwEJM9uttOl6E7rzaGGx8DIj+CSaIgG7r9Z9IdnwcLNaWno7FY+q9dawwnHmOiIIBJojDRq/j0aj5UyOnPei+ol+MP3WwMGR5HoqCBSaKwGn7gRvMqP1Tgo6Zr9SwZ/M0lxrDgsSIKOpgkigq9+q9r5XTYAMKo72er5cQz9xg/Oh4PojCBSaIo0qsC+y5fCRtDUHWvPUuG7/ml8ePhn5kozGCSiOQfDd11tXn1IGocftW5uFQGrl9v7D7+mYiiBCaJ6GQD166TjoUlsLF4qffihaLzelr3lyjqYJKIUjv+0C3Se2EDbDhO0/k6dd5O6z4R0Q/BJBFlZvC3l0rXmtmwIY1bTY7ovJzWbRJRajBJRNn708Z7pe/KNXKsagJuWGnoWV8hw/ddZ6wOb4OIxgaTRGSf4XuvlZ51P4aNLEHn1dT5Na3LElH2YJKInDNwwznSuWSy9F6yRE48fpuRwq8jovGBSSIiomCTf/T/AbfMXW/c0az2AAAAAElFTkSuQmCC;clipPath=inset(16.67% 4.88% 0% 5.28%);" vertex="1" parent="1">
          <mxGeometry x="762" y="311.07000000000005" width="30" height="33.93" as="geometry" />
        </mxCell>
        <mxCell id="JXNgu1NTZfalHeEMGzlT-3" value="" style="group" vertex="1" connectable="0" parent="1">
          <mxGeometry x="462" y="345" width="250" height="69" as="geometry" />
        </mxCell>
        <mxCell id="JXNgu1NTZfalHeEMGzlT-4" value="catalog" style="rounded=1;whiteSpace=wrap;html=1;glass=0;sketch=1;curveFitting=1;jiggle=2;fillStyle=hachure;fillColor=#ffe6cc;fontStyle=1;fontSize=16;strokeColor=#d79b00;fontColor=#D79B00;" vertex="1" parent="JXNgu1NTZfalHeEMGzlT-3">
          <mxGeometry width="90" height="30" as="geometry" />
        </mxCell>
        <mxCell id="JXNgu1NTZfalHeEMGzlT-5" value="projects" style="rounded=1;whiteSpace=wrap;html=1;glass=0;sketch=1;curveFitting=1;jiggle=2;fillStyle=hachure;fillColor=#ffe6cc;fontStyle=1;fontSize=16;strokeColor=#d79b00;fontColor=#D79B00;" vertex="1" parent="JXNgu1NTZfalHeEMGzlT-3">
          <mxGeometry x="80" y="15" width="90" height="30" as="geometry" />
        </mxCell>
        <mxCell id="JXNgu1NTZfalHeEMGzlT-6" value="features" style="rounded=1;whiteSpace=wrap;html=1;glass=0;sketch=1;curveFitting=1;jiggle=2;fillStyle=hachure;fillColor=#ffe6cc;fontStyle=1;fontSize=16;strokeColor=#d79b00;fontColor=#D79B00;" vertex="1" parent="JXNgu1NTZfalHeEMGzlT-3">
          <mxGeometry x="160" width="90" height="30" as="geometry" />
        </mxCell>
        <mxCell id="JXNgu1NTZfalHeEMGzlT-7" value="auth." style="rounded=1;whiteSpace=wrap;html=1;glass=0;sketch=1;curveFitting=1;jiggle=2;fillStyle=hachure;fillColor=#ffe6cc;fontStyle=1;fontSize=16;strokeColor=#d79b00;fontColor=#D79B00;" vertex="1" parent="1">
          <mxGeometry x="702" y="364.5" width="90" height="30" as="geometry" />
        </mxCell>
        <mxCell id="2B5soyCHmkdj6GQSiZZp-3" value="" style="shape=image;imageAspect=0;aspect=fixed;verticalLabelPosition=bottom;verticalAlign=top;image=https://automerge.org/img/favicon.ico;" vertex="1" parent="1">
          <mxGeometry x="410" y="115" width="50" height="50" as="geometry" />
        </mxCell>
        <mxCell id="FeX1M-6nnQ1l-h0BOBjK-1" value="Frontend offline services" style="rounded=1;whiteSpace=wrap;html=1;glass=0;sketch=1;curveFitting=1;jiggle=2;fillStyle=hachure;fillColor=#A9C4EB;fontStyle=1;fontSize=18;fontColor=#0069D1;strokeColor=#0069D1;spacingBottom=40;" vertex="1" parent="1">
          <mxGeometry x="450" y="153" width="350" height="73" as="geometry" />
        </mxCell>
        <mxCell id="FeX1M-6nnQ1l-h0BOBjK-2" value="" style="group" vertex="1" connectable="0" parent="1">
          <mxGeometry x="460" y="183.9975" width="329" height="33.075" as="geometry" />
        </mxCell>
        <mxCell id="FeX1M-6nnQ1l-h0BOBjK-3" value="catalog" style="rounded=1;whiteSpace=wrap;html=1;glass=0;sketch=1;curveFitting=1;jiggle=2;fillStyle=hachure;fillColor=#dae8fc;fontStyle=1;fontSize=16;strokeColor=#6c8ebf;fontColor=#0069D1;" vertex="1" parent="FeX1M-6nnQ1l-h0BOBjK-2">
          <mxGeometry width="90" height="23.625" as="geometry" />
        </mxCell>
        <mxCell id="FeX1M-6nnQ1l-h0BOBjK-4" value="projects" style="rounded=1;whiteSpace=wrap;html=1;glass=0;sketch=1;curveFitting=1;jiggle=2;fillStyle=hachure;fillColor=#dae8fc;fontStyle=1;fontSize=16;strokeColor=#6c8ebf;fontColor=#0069D1;" vertex="1" parent="FeX1M-6nnQ1l-h0BOBjK-2">
          <mxGeometry x="75" y="9.45" width="90" height="23.625" as="geometry" />
        </mxCell>
        <mxCell id="FeX1M-6nnQ1l-h0BOBjK-5" value="features" style="rounded=1;whiteSpace=wrap;html=1;glass=0;sketch=1;curveFitting=1;jiggle=2;fillStyle=hachure;fillColor=#dae8fc;fontStyle=1;fontSize=16;strokeColor=#6c8ebf;fontColor=#0069D1;" vertex="1" parent="FeX1M-6nnQ1l-h0BOBjK-2">
          <mxGeometry x="155" width="90" height="23.625" as="geometry" />
        </mxCell>
        <mxCell id="FeX1M-6nnQ1l-h0BOBjK-6" value="auth." style="rounded=1;whiteSpace=wrap;html=1;glass=0;sketch=1;curveFitting=1;jiggle=2;fillStyle=hachure;fillColor=#dae8fc;fontStyle=1;fontSize=16;strokeColor=#6c8ebf;fontColor=#0069D1;" vertex="1" parent="FeX1M-6nnQ1l-h0BOBjK-2">
          <mxGeometry x="239" y="9.449999999999989" width="90" height="23.625" as="geometry" />
        </mxCell>
        <mxCell id="qMp-C4ssJuDC-AV7Pfmr-1" value="" style="endArrow=classic;html=1;rounded=0;fontColor=#0069D1;strokeWidth=2;strokeColor=#0069D1;exitX=0.75;exitY=1;exitDx=0;exitDy=0;startArrow=classic;startFill=1;entryX=0.5;entryY=0;entryDx=0;entryDy=0;" edge="1" parent="1" source="RRRLEGIaQqu-76i88Ook-20" target="FeX1M-6nnQ1l-h0BOBjK-1">
          <mxGeometry width="50" height="50" relative="1" as="geometry">
            <mxPoint x="440" y="120" as="sourcePoint" />
            <mxPoint x="255" y="163" as="targetPoint" />
          </mxGeometry>
        </mxCell>
        <mxCell id="qMp-C4ssJuDC-AV7Pfmr-2" value="Service items&lt;div&gt;to be updated&lt;/div&gt;" style="edgeLabel;html=1;align=center;verticalAlign=middle;resizable=0;points=[];fontColor=#0069D1;" vertex="1" connectable="0" parent="1">
          <mxGeometry x="610" y="115" as="geometry" />
        </mxCell>
      </root>
    </mxGraphModel>
  </diagram>
</mxfile>
